<?xml version="1.0" encoding="utf-8"?>
<!-- Generator: Adobe Illustrator 17.0.0, SVG Export Plug-In . SVG Version: 6.00 Build 0)  -->
<!DOCTYPE svg PUBLIC "-//W3C//DTD SVG 1.1//EN" "http://www.w3.org/Graphics/SVG/1.1/DTD/svg11.dtd">
<svg version="1.1" id="Layer_1" xmlns="http://www.w3.org/2000/svg" xmlns:xlink="http://www.w3.org/1999/xlink" x="0px" y="0px"
	 width="288px" height="288px" viewBox="0 0 288 288" enable-background="new 0 0 288 288" xml:space="preserve">
<g>
	<g>
		<g>
			<path fill="#943651" d="M107.17,152.27l-10.66,0.01c-1.25,0-2.33-0.06-2.64-1.51c-0.4-1.88,1.35-2.26,1.35-2.26
				c-0.15,0.11-0.58,0.94-0.24,1.8c0.31,0.78,0.94,0.66,1.99,0.66l11.91-0.01C108.89,152.15,107.17,152.27,107.17,152.27z"/>
			<path fill="#943651" d="M104.3,199.37h-5.18c-0.88,0-1.68-0.17-2-1.16c-0.39-1.19,0.91-1.48,0.91-1.48
				c-0.1,0.08-0.27,0.47-0.03,1.07c0.22,0.55,0.7,0.51,1.45,0.52l6.06,0.03C105.51,199.37,104.3,199.37,104.3,199.37z"/>
			<path fill="#943651" d="M111.12,146.13c1.77-1.62,3.38-4.42,2.27-8.39l-0.05-0.12c-0.01-0.04-1.77-4.45-0.25-9.37l0.51-1.63
				l-1.66,0.21c-0.24,0.03-2.19,0.34-4.56,2.76c-1.98-4.06-5.74-7.09-9.66-9.08c1.44,4.66,1.63,6.37,0.45,8.36
				c-2.68-2.54-5.93-3.03-6.08-3.05l-1.88-0.26l0.76,1.78c1.21,2.84,0.26,4.81-0.85,7.11c-0.81,1.69-1.73,3.6-1.73,5.96
				c0,3.09,1.55,5.08,3.01,6.16c-1.02,0.94-1.68,2.33-1.68,3.85c0,1.95,0.98,3.65,2.47,4.5c0.48,1.52,1.53,2.78,2.9,3.52l1.71,35.04
				c-2.09,0.45-3.65,2.35-3.65,4.58c0,2.41,1.8,4.4,4.09,4.64l0.69,14.05c0,2.08,1.66,3.76,3.71,3.76c2.13,0,3.68-1.69,3.71-3.72
				l0.62-14.09c2.33-0.25,4.12-2.29,4.11-4.65c0-2.27-1.6-4.17-3.71-4.58l1.53-34.97c1.45-0.73,2.56-2.04,3.05-3.64
				c1.49-0.89,2.44-2.65,2.44-4.47C113.38,148.68,112.49,147.05,111.12,146.13z M110.53,129.79c-0.71,4.44,0.59,8.06,0.81,8.61
				c1.23,4.49-2.1,6.56-2.84,6.96l-0.1-0.02l-3.35,0c2.09-2.78,3.76-6.42,3.76-9.66c-0.01-0.99-0.1-1.92-0.29-2.82l-0.28-0.95
				C109.09,130.91,109.88,130.22,110.53,129.79z M100.89,124.79c2.62,2.15,5.86,6.21,5.86,10.88c0,4.21-3.55,9.05-4.4,9.67
				c-0.69-0.94-1.54-2.71-1.55-4.72c-0.01-3.47,1.66-5.51,1.66-5.51s-2.47,1.62-2.83,4.84c-0.18,1.57,0.16,3.22,1.21,5.39h-1.5
				c-0.4-0.66-3.29-4.32-0.89-8.47c0.4-0.68,2.21-3.34,2.44-3.88c0.28-0.66,0.25-1.27,0.25-1.27c-0.3,0.5-0.82,1.09-0.82,1.09
				c-0.52,0.58-2.29,2.45-2.85,3.13c-3.45,4.27-0.09,9.01,0.07,9.41c-0.18,0-1.4,0-1.4,0c-1.54-1.79-2.05-3.53-1.9-6.16
				C94.61,133.3,101.58,132.56,100.89,124.79z M90.52,140.41c0-1.84,0.74-3.37,1.52-4.99c0.95-1.97,2.01-4.15,1.5-6.92
				c1,0.39,2.26,1.07,3.36,2.19c-0.7,0.86-1.46,1.7-1.89,2.21c-2.93,3.55-4.06,7.77-0.92,12.49h-0.45
				C93.63,145.38,90.53,144.26,90.52,140.41z M103.27,216.72c0,0.94-0.67,1.7-1.64,1.7c-0.91,0-1.65-0.76-1.65-1.69l-0.68-13.99
				h0.86l0.49,13.53c0,1.02,0.47,1.23,0.47,1.23l-0.26-14.75l3.03,0L103.27,216.72z M108.01,198.05c0,1.38-1.14,2.57-2.53,2.57
				l-7.76,0.01c-1.4,0-2.54-1.14-2.54-2.56c0-1.4,1.13-2.57,2.53-2.58l7.76-0.01C106.88,195.48,108.01,196.64,108.01,198.05z
				 M97.17,159.1c0,0,0.52,0.08,1.4,0.15l1.25,34.14l-0.97,0L97.17,159.1z M100.09,159.34c1.57,0.07,3.61,0.05,5.72-0.24
				l-1.51,34.28l-3.61,0.01L100.09,159.34z M105.24,157.04l-7.36,0.01c-1.26,0.01-2.39-0.6-3.11-1.55l13.56-0.02
				C107.62,156.43,106.5,157.04,105.24,157.04z M108.73,153.39l-14.37,0.02c-1.36,0-2.59-1.19-2.59-2.99c0-1.72,1.24-2.97,2.59-2.97
				l14.38-0.02c1.34,0,2.59,1.32,2.6,2.96C111.33,152.06,110.07,153.39,108.73,153.39z"/>
		</g>
		<g>
			<path fill="#943651" d="M193.16,152.27l-10.66,0.01c-1.25,0-2.33-0.06-2.63-1.51c-0.4-1.88,1.35-2.26,1.35-2.26
				c-0.15,0.11-0.58,0.94-0.24,1.8c0.31,0.78,0.94,0.66,1.99,0.66l11.92-0.01C194.87,152.15,193.16,152.27,193.16,152.27z"/>
			<path fill="#943651" d="M190.28,199.37h-5.18c-0.88,0-1.68-0.17-2-1.16c-0.39-1.19,0.91-1.48,0.91-1.48
				c-0.1,0.08-0.27,0.47-0.03,1.07c0.22,0.55,0.7,0.51,1.45,0.52l6.06,0.03C191.49,199.37,190.28,199.37,190.28,199.37z"/>
			<path fill="#943651" d="M197.1,146.13c1.77-1.62,3.38-4.42,2.27-8.39l-0.05-0.12c-0.02-0.04-1.77-4.45-0.25-9.37l0.51-1.63
				l-1.66,0.21c-0.24,0.03-2.19,0.34-4.56,2.77c-1.97-4.06-5.74-7.09-9.66-9.09c1.44,4.66,1.63,6.37,0.45,8.36
				c-2.68-2.53-5.93-3.02-6.08-3.04l-1.89-0.26l0.76,1.78c1.21,2.84,0.26,4.81-0.85,7.11c-0.81,1.69-1.74,3.6-1.74,5.96
				c0.01,3.1,1.55,5.08,3.01,6.16c-1.02,0.95-1.68,2.33-1.68,3.85c0,1.95,0.98,3.65,2.47,4.5c0.49,1.52,1.54,2.78,2.9,3.52
				l1.71,35.04c-2.09,0.45-3.65,2.35-3.65,4.58c0,2.41,1.8,4.4,4.09,4.64l0.69,14.05c0,2.08,1.66,3.76,3.71,3.76
				c2.13,0,3.68-1.69,3.71-3.72l0.62-14.09c2.32-0.25,4.12-2.29,4.11-4.65c0-2.27-1.6-4.17-3.71-4.58l1.53-34.97
				c1.44-0.73,2.56-2.04,3.05-3.64c1.49-0.89,2.44-2.65,2.44-4.47C199.37,148.68,198.47,147.05,197.1,146.13z M196.52,129.79
				c-0.72,4.44,0.59,8.06,0.8,8.61c1.23,4.49-2.1,6.56-2.84,6.96l-0.1-0.02l-3.34,0c2.09-2.78,3.76-6.42,3.76-9.66
				c0-0.99-0.1-1.92-0.29-2.82l-0.28-0.95C195.07,130.91,195.87,130.22,196.52,129.79z M186.87,124.79
				c2.62,2.15,5.86,6.21,5.86,10.88c0,4.21-3.55,9.05-4.4,9.67c-0.69-0.94-1.54-2.71-1.54-4.72c0-3.47,1.67-5.51,1.67-5.51
				s-2.47,1.62-2.83,4.84c-0.17,1.57,0.16,3.22,1.21,5.39h-1.5c-0.4-0.66-3.29-4.32-0.89-8.47c0.4-0.68,2.21-3.34,2.44-3.88
				c0.28-0.66,0.25-1.27,0.25-1.27c-0.3,0.5-0.82,1.09-0.82,1.09c-0.52,0.58-2.29,2.45-2.85,3.13c-3.45,4.27-0.09,9.01,0.07,9.41
				c-0.18,0-1.4,0-1.4,0c-1.54-1.79-2.05-3.53-1.9-6.16C180.59,133.3,187.57,132.56,186.87,124.79z M176.51,140.41
				c0-1.84,0.74-3.37,1.52-4.99c0.95-1.97,2.01-4.15,1.5-6.92c1,0.39,2.27,1.07,3.36,2.19c-0.7,0.86-1.46,1.7-1.89,2.21
				c-2.93,3.55-4.06,7.77-0.91,12.49h-0.45C179.61,145.38,176.51,144.26,176.51,140.41z M189.26,216.72c0,0.94-0.68,1.7-1.64,1.7
				c-0.91,0-1.65-0.76-1.65-1.69l-0.68-13.99h0.86l0.49,13.53c0,1.02,0.47,1.23,0.47,1.23l-0.26-14.75l3.03,0L189.26,216.72z
				 M194,198.05c0,1.38-1.14,2.57-2.53,2.57l-7.75,0.01c-1.4,0-2.54-1.14-2.54-2.56c0-1.4,1.13-2.57,2.53-2.58l7.76-0.01
				C192.86,195.48,194,196.64,194,198.05z M183.16,159.1c0,0,0.53,0.08,1.4,0.15l1.25,34.14l-0.97,0L183.16,159.1z M186.07,159.34
				c1.57,0.07,3.61,0.05,5.72-0.24l-1.51,34.28l-3.61,0.01L186.07,159.34z M191.22,157.04l-7.37,0.01c-1.26,0.01-2.38-0.6-3.11-1.55
				l13.56-0.02C193.6,156.43,192.48,157.04,191.22,157.04z M194.72,153.39l-14.38,0.02c-1.36,0-2.59-1.19-2.59-2.99
				c0-1.72,1.24-2.97,2.59-2.97l14.37-0.02c1.34,0,2.59,1.32,2.6,2.96C197.31,152.06,196.05,153.39,194.72,153.39z"/>
		</g>
		<g>
			<path fill="#943651" d="M157.96,149.77c2.19-1.87,4.98-5.54,3.33-11.42l-0.04-0.12c-0.03-0.06-2.52-6.36-0.36-13.27l0.51-1.63
				l-1.66,0.21c-0.14,0.02-3,0.42-6.41,4.07c-3.28-6.95-10.3-11.26-10.69-11.49l-2.57-1.55l1.02,2.86c0.41,1.16,1.3,4.71,0.44,7.15
				c-0.26,0.74-0.56,1.37-0.88,1.95c-3.67-3.71-8.32-4.37-8.53-4.4l-1.89-0.25l0.76,1.77c1.76,4.1,0.4,6.93-1.18,10.2
				c-1.16,2.41-2.37,4.91-2.36,8.07c0,4.35,2.27,7.06,4.29,8.44c-1.57,1.24-2.59,3.17-2.59,5.34c0,2.65,1.52,4.94,3.71,6.04
				c0.37,2.25,1.83,4.11,3.81,5.02l2.22,49.19c-2.75,0.49-4.84,2.94-4.84,5.87c0.01,3.12,2.37,5.68,5.37,5.94l0.89,19.78
				c0,2.79,2.24,5.07,4.99,5.06c2.75,0,4.98-2.28,4.98-5.03l0.9-19.82c3.13-0.13,5.64-2.75,5.64-5.97c-0.01-3.02-2.23-5.52-5.1-5.9
				l2.22-49.21c2.08-0.95,3.6-2.85,3.93-5.05c2.11-1.13,3.54-3.39,3.53-5.98C161.39,153.14,160,150.92,157.96,149.77z M158.3,126.37
				c-1.33,6.52,0.66,11.95,0.93,12.64c1.65,5.96-2.28,9.01-3.81,9.96c-0.22-0.02-0.44-0.04-0.67-0.04l-5.21,0.01
				c2.25-2.78,5.47-7.89,5.42-14.34c-0.01-1.67-0.29-3.24-0.76-4.73C155.79,127.99,157.24,126.94,158.3,126.37z M143.54,125.33
				c0.66-1.87,0.55-4.01,0.28-5.7c3.28,2.58,8.96,8.04,9.01,14.99c0.05,7.05-4.45,12.5-6.17,14.32l-0.29,0
				c-0.94-1.31-2.1-3.74-2.1-6.49c-0.01-4.82,2.3-7.64,2.3-7.64s-3.42,2.25-3.92,6.7c-0.24,2.17,0.22,4.45,1.65,7.43h-2.08
				c-0.65-1.01-4.5-6.02-1.2-11.68c0.55-0.95,3.06-4.64,3.38-5.39c0.39-0.92,0.34-1.77,0.34-1.77c-0.41,0.69-1.13,1.52-1.13,1.52
				c-0.72,0.81-3.17,3.39-3.95,4.35c-4.69,5.79-0.31,12.22,0.08,12.98l-2.33,0c-6.52-8.65,0.35-15.5,0.66-15.8l0.07-0.08
				c0.44-0.52,0.87-0.99,1.29-1.44C141.09,129.8,142.53,128.21,143.54,125.33z M129.58,141.93c-0.01-2.65,1.04-4.81,2.14-7.11
				c1.44-2.98,2.91-6.04,1.9-10.06c1.56,0.51,3.86,1.57,5.76,3.61c-0.47,0.59-0.99,1.16-1.54,1.77c-0.41,0.46-0.85,0.94-1.3,1.46
				c-0.65,0.66-7.62,8.15-1.71,17.43c-0.25,0.03-0.49,0.08-0.74,0.15C133.42,148.91,129.59,147.1,129.58,141.93z M140.91,167.38
				l2,48.49l-1.88,0l-2.19-48.51c0.18,0.02,0.36,0.03,0.55,0.03L140.91,167.38z M148.11,247.55c0.01,1.59-1.27,2.88-2.83,2.88
				c-1.56,0-2.83-1.29-2.84-2.93l-0.89-19.71l1.74,0l0.73,19.26c0,1.42,0.65,1.71,0.65,1.71l-0.33-20.97l4.66-0.01L148.11,247.55z
				 M154.65,221.81c0,2.08-1.66,3.79-3.71,3.79l-11.04,0.01c-2.05,0-3.71-1.7-3.72-3.78c0-2.08,1.66-3.78,3.7-3.78l11.04-0.02
				C152.98,218.04,154.64,219.73,154.65,221.81z M149.55,215.86l-5.52,0.01l-0.59-48.49l7.52-0.01c0.27,0,0.52-0.02,0.78-0.05
				L149.55,215.86z M150.95,165.18l-11.57,0.01c-1.84,0-3.44-1.13-4.13-2.76c0.17,0.01,0.35,0.02,0.52,0.02l19-0.02
				c0.22,0,0.43-0.01,0.64-0.03C154.69,164,152.94,165.17,150.95,165.18z M154.76,160.24l-18.99,0.02
				c-2.47,0.01-4.48-2.04-4.49-4.55c-0.01-2.52,2-4.56,4.47-4.56l18.99-0.02c0.33,0,0.66,0.04,0.97,0.11l0.02,0.04
				c0,0,0.02-0.01,0.05-0.03c1.97,0.48,3.44,2.28,3.44,4.43C159.24,158.19,157.24,160.24,154.76,160.24z"/>
			<path fill="#943651" d="M134.73,155.78c-0.55-1.38,0.14-2.72,0.39-2.91c0,0-2.68,0.47-2.03,3.51c0.5,2.34,2.08,2.58,4.11,2.58
				l17.19-0.02c0,0,2.01,0.19,2.77-1.74l-19.23,0.02C136.24,157.21,135.23,157.04,134.73,155.78z"/>
			<path fill="#943651" d="M139,221.95c-0.43-1.1,0.12-2.15,0.31-2.3c0,0-2.11,0.37-1.61,2.77c0.4,1.84,1.65,2.03,3.25,2.03
				l9.37-0.01c0,0,1.58,0.15,2.18-1.37l-10.97,0.01C140.19,223.08,139.39,222.94,139,221.95z"/>
		</g>
	</g>
	<path fill="#943651" d="M248.26,65.17l-0.35-6.33c-0.41-5.85-1.09-11.98-2.07-18.24l-0.69-4.25c-0.4-2.25-0.84-4.52-1.33-6.81
		l-0.41-1.91l-1.84,0.54c-0.06,0.02-3.04,0.88-8.05,1.73l-12.15,1.41c-2.41,0.16-4.98,0.26-7.68,0.27
		c-7.07,0.01-13.99-0.64-20.66-1.88l-4.27-0.86c-0.08-0.02-0.15-0.03-0.23-0.04c-0.09-0.02-3.51-0.76-8.72-2.56l-5.66-2.14
		c-5.66-2.31-12.37-5.63-19.03-10.17l-5.57-4.12c-1.04-0.84-2.07-1.7-3.09-2.61l-1.24-1.1l-1.18,1.15
		c-0.04,0.04-1.04,0.99-2.93,2.51l-5.69,4.17c-4.65,3.13-11.11,6.9-19.15,10.21l-5.67,2.15c-2.74,0.95-5.61,1.85-8.64,2.63
		c-0.08,0.02-0.16,0.03-0.23,0.05l-4.92,1.09c-5.79,1.1-12.02,1.67-18.62,1.68c-3.23,0-6.31-0.13-9.21-0.34L56.8,29.98
		c-4.81-0.79-7.78-1.55-7.84-1.56l-1.81-0.46l-0.4,1.85c-0.39,1.83-0.72,3.64-1.05,5.46l-0.93,5.53c-0.94,6.13-1.6,12.13-2,17.86
		l-0.35,6.36c-0.13,3.1-0.2,6.1-0.21,8.98l0.04,6.17c0.34,17.33,2.37,29.28,2.53,30.24c0.19,1.47,3.79,29.38,17.42,63.02
		c12.82,31.58,37.32,74.83,81.48,102.08l1.92,1.17l1.9-1.17c44.08-27.36,68.49-70.68,81.21-102.3
		c13.55-33.68,17.09-61.6,17.26-63.07c0.16-0.95,2.14-12.77,2.46-29.93l0.03-6.13C248.46,71.22,248.39,68.25,248.26,65.17z
		 M200.77,110.78l-0.47-1.77c-6.33,1.73-10.85,2.54-14.23,2.55c-0.02,0-0.04,0-0.06,0c-5.86,0-14.95-0.77-25.17-4.4
		c-2.78-0.99-6.1-2.07-9.69-2.69c-3.66-0.63-6.8-0.7-10.19-0.25c-4.25,0.56-8.13,1.83-11.37,2.99c-10.25,3.67-19.36,4.45-25.2,4.46
		c-0.01,0-0.02,0-0.03,0c-5.01,0-11.98-1.83-18.13-3.63l-0.5,1.76l0.49-1.76c-1.76-0.51-3.49-1.02-5.17-1.53l-2.01-0.6
		c-3.65-1.08-9.73-1.89-14.18-1.89c-0.02,0-0.03,0-0.05,0c-6.03,0.01-11.41,1.35-16.75,4.18c-0.14-0.92-0.33-2.23-0.54-3.89
		c5.28-2.94,11.21-4.54,17.28-4.55c0.03,0,0.05,0,0.07,0c4.09,0,9.85,0.76,13.16,1.74l7.19,2.13l0.5-1.76l-0.49,1.76
		c6.75,1.96,13.73,3.77,19.13,3.77c0.01,0,0.03,0,0.04,0c6.11-0.01,15.66-0.83,26.39-4.68c3.08-1.11,6.76-2.3,10.62-2.8l3.52-0.27
		c0.07,0,0.14,0,0.21,0l5.44,0.49c3.34,0.58,6.46,1.61,9.07,2.53c10.69,3.81,20.2,4.61,26.32,4.61c0.03,0,0.07,0,0.09,0
		c3.69,0,8.36-0.82,15.16-2.67c2.78-0.76,5.58-1.6,8.24-2.4l2.96-0.89c3.25-0.97,9.25-1.77,13.39-1.78c0.01,0,0.03,0,0.05,0
		c6.07,0,12.04,1.59,17.34,4.54c-0.2,1.58-0.37,2.84-0.51,3.75c-5.29-2.7-10.83-4.02-16.83-4.02c-0.01,0-0.02,0-0.03,0
		c-3.91,0.01-10.37,0.73-14.41,1.92l-3,0.9c-2.62,0.79-5.38,1.62-8.11,2.37L200.77,110.78z M104.67,99.54c0.01,0,0.02,0,0.03,0
		c4.28-0.01,10.25-0.44,17.08-1.99c2.96-0.67,6.07-1.53,9.3-2.69c3.08-1.1,6.74-2.3,10.62-2.8l3.77-0.26l5.4,0.49
		c3.39,0.6,6.63,1.67,9.08,2.54c3.96,1.41,7.76,2.41,11.29,3.1c5.99,1.18,11.2,1.5,15.05,1.5c0.02,0,0.04,0,0.06,0
		c3.7,0,8.38-0.83,15.15-2.68c2.85-0.77,5.72-1.64,8.44-2.46l2.76-0.83c3.28-0.97,9.28-1.77,13.39-1.77c0.01,0,0.02,0,0.03,0
		c6.16,0,12.59,1.63,17.9,4.42c-0.13,1.46-0.25,2.82-0.38,4.07c-5.5-2.8-11.6-4.28-17.79-4.28c-0.02,0-0.03,0-0.05,0
		c-3.95,0.01-10.41,0.73-14.4,1.92l-2.97,0.89c-2.63,0.8-5.4,1.63-8.14,2.38c-4.05,1.1-9.91,2.47-14.32,2.55
		c-5.84,0-14.91-0.77-25.14-4.4c-1.27-0.45-2.74-0.95-4.34-1.42c-1.68-0.5-3.49-0.95-5.36-1.28c-2.06-0.36-4-0.53-5.94-0.53
		c-1.42,0.01-2.81,0.1-4.23,0.3v0c-2.22,0.28-4.35,0.78-6.35,1.35c-1.79,0.51-3.49,1.08-5.03,1.63c-10.26,3.68-19.37,4.46-25.2,4.47
		c-0.01,0-0.02,0-0.04,0c-4.97,0-11.96-1.83-18.14-3.63l-7.18-2.13c-3.64-1.08-9.71-1.88-14.16-1.88c-0.03,0-0.05,0-0.08,0
		c-6.18,0.01-12.25,1.48-17.72,4.27c-0.13-1.2-0.25-2.5-0.38-3.89c5.41-2.91,12.03-4.58,18.4-4.59c0.01,0,0.03,0,0.05,0
		c4.1,0,9.87,0.76,13.18,1.74l7.19,2.13l0.49-1.76l-0.49,1.76C92.28,97.73,99.27,99.54,104.67,99.54z M145.52,88.13l-0.01,0.28
		l-0.01-0.28c-1.42,0.01-2.85,0.11-4.24,0.29v0c-4.21,0.54-8.11,1.81-11.37,2.98c-8.79,3.15-16.75,4.17-22.54,4.41
		c2.63-19.27,18.63-33.62,37.97-33.65c0.02,0,0.03,0,0.05,0c19.1,0,35.3,14.54,37.99,33.53c-5.76-0.24-13.58-1.25-22.23-4.33
		c-2.58-0.92-6.02-2.06-9.69-2.7l-0.02,0.13l0.02-0.13C149.37,88.3,147.43,88.13,145.52,88.13z M201.05,94.98l-0.47-1.77
		c-3.82,1.04-9.29,2.41-13.58,2.53c-0.48-3.71-1.44-7.25-2.79-10.6l60.64-4.64c-0.09,4.25-0.27,8.15-0.51,11.62
		c-5.52-2.62-12.01-4.1-18.2-4.1c-0.01,0-0.02,0-0.04,0c-3.91,0.01-10.36,0.73-14.39,1.92l-2.77,0.83c-2.7,0.81-5.53,1.67-8.36,2.43
		L201.05,94.98z M244.89,74.58l-61.65,8.38c-0.47-1.01-0.98-1.99-1.53-2.96l62.98-14.03C244.8,68.93,244.88,71.82,244.89,74.58z
		 M242.44,42.21c0.92,6.07,1.54,11.99,1.92,17.65l-63.8,18.2c-1.11-1.74-2.36-3.37-3.71-4.93L242.44,42.21z M226.43,34.58
		c6.7-0.69,11.72-1.76,14.25-2.38c0.24,1.17,0.43,2.32,0.65,3.49l-65.87,35.88c-0.68-0.71-1.38-1.39-2.1-2.05L226.43,34.58z
		 M193.13,33.46c6.64,1.18,13.53,1.8,20.57,1.79c0.85,0,1.65-0.03,2.47-0.05l-44.32,33.02c-1.79-1.49-3.69-2.83-5.69-4.01
		L193.13,33.46z M177.98,29.52c3.8,1.33,6.78,2.15,8.41,2.55l-22.65,30.8c-1.15-0.58-2.33-1.1-3.54-1.57L177.98,29.52z
		 M154.58,17.99c6.36,4.18,12.66,7.28,18.05,9.49l-14.9,32.97c-2.75-0.87-5.61-1.49-8.56-1.76L154.58,17.99z M145.28,11.03
		c1.33,1.14,2.67,2.21,4.02,3.24l-2.41,44.31c-0.51-0.02-1-0.07-1.51-0.07c-0.02,0-0.04,0-0.06,0c-0.53,0-1.04,0.06-1.57,0.08
		l-2.41-44.38C143.08,12.88,144.42,11.78,145.28,11.03z M135.94,17.99l5.41,40.71c-3,0.29-5.89,0.92-8.67,1.81l-14.92-33.02
		C125.22,24.42,131.32,21,135.94,17.99z M112.41,29.54l17.79,31.81c-1.2,0.47-2.38,1-3.53,1.58l-22.63-30.78
		C106.97,31.35,109.76,30.48,112.41,29.54z M78.17,35.41c6.83,0,13.28-0.59,19.27-1.74l26.83,30.58c-2.03,1.2-3.95,2.56-5.74,4.08
		L74.24,35.35C75.53,35.38,76.83,35.42,78.17,35.41z M49.88,32.4c2.53,0.56,7.53,1.55,13.99,2.24l53.17,35
		c-0.71,0.66-1.42,1.34-2.08,2.05l-65.72-35.8C49.46,34.72,49.64,33.57,49.88,32.4z M48.15,42.39l65.47,30.86
		c-1.24,1.47-2.42,3-3.46,4.63L46.3,59.67C46.67,54.12,47.27,48.33,48.15,42.39z M45.98,65.82L109,79.87
		c-0.55,0.98-1.06,1.98-1.54,3.01l-61.68-8.39C45.79,71.72,45.87,68.8,45.98,65.82z M106.49,85.1c-1.34,3.38-2.3,6.97-2.77,10.74
		c-4.89-0.2-11.4-1.9-17.21-3.59l-7.18-2.13c-3.63-1.08-9.72-1.89-14.18-1.89c-0.02,0-0.04,0-0.06,0
		c-6.41,0.01-13.07,1.56-18.71,4.3c-0.25-3.6-0.46-7.66-0.55-12.08L106.49,85.1z M225.34,171.93
		c-12.53,31.1-36.51,73.66-79.75,100.48c-43.32-26.7-67.42-69.21-80.02-100.27c-11.61-28.6-15.85-52.9-16.92-60.04
		c5.18-2.96,10.34-4.4,16.17-4.4c0.01,0,0.03,0,0.05,0c4.09,0,9.86,0.76,13.17,1.74l2.01,0.6c1.68,0.5,3.43,1.02,5.2,1.53v0
		c6.4,1.86,13.67,3.77,19.13,3.77c0.01,0,0.03,0,0.04,0c6.12-0.01,15.67-0.83,26.39-4.67c3.05-1.1,6.7-2.29,10.6-2.8l3.53-0.26
		c0.07,0,0.14,0,0.21,0l5.46,0.5c3.31,0.58,6.44,1.6,9.06,2.53c10.68,3.8,20.22,4.61,26.35,4.61c0.02,0,0.04,0,0.06,0
		c3.7-0.01,8.51-0.86,15.15-2.68v0c2.76-0.75,5.56-1.6,8.21-2.39l2.98-0.89c3.29-0.97,9.3-1.77,13.41-1.78c0.01,0,0.02,0,0.03,0
		c5.83,0,11.15,1.43,16.27,4.25C241.1,118.74,236.94,143.16,225.34,171.93z"/>
</g>
</svg>
