<?xml version="1.0" encoding="iso-8859-1"?>
<!-- Generator: Adobe Illustrator 17.0.0, SVG Export Plug-In . SVG Version: 6.00 Build 0)  -->
<!DOCTYPE svg PUBLIC "-//W3C//DTD SVG 1.1//EN" "http://www.w3.org/Graphics/SVG/1.1/DTD/svg11.dtd">
<svg version="1.1" xmlns="http://www.w3.org/2000/svg" xmlns:xlink="http://www.w3.org/1999/xlink" x="0px" y="0px" width="48px"
	 height="48px" viewBox="0 0 48 48" style="enable-background:new 0 0 48 48;" xml:space="preserve">
<g id="archive">
</g>
<g id="programming">
</g>
<g id="documents">
</g>
<g id="images">
</g>
<g id="video">
</g>
<g id="audio">
	<linearGradient id="SVGID_1_" gradientUnits="userSpaceOnUse" x1="24" y1="0.5" x2="24" y2="47.259">
		<stop  offset="0" style="stop-color:#384D53"/>
		<stop  offset="0.9945" style="stop-color:#7DA4AB"/>
	</linearGradient>
	<path style="fill:url(#SVGID_1_);" d="M43,44c0,2.2-1.8,4-4,4H9c-2.2,0-4-1.8-4-4V4c0-2.2,1.8-4,4-4h23.1c2.2,3.1,8,9,10.9,11V44z"
		/>
	<g>
		<linearGradient id="SVGID_2_" gradientUnits="userSpaceOnUse" x1="38.1406" y1="5.125" x2="38.1406" y2="17.6306">
			<stop  offset="0" style="stop-color:#004546"/>
			<stop  offset="1" style="stop-color:#005F70;stop-opacity:0"/>
		</linearGradient>
		<path style="opacity:0.6;fill:url(#SVGID_2_);" d="M43,11c-2.3-1.6-6.3-5.5-9-8.6l-0.8,7.5l9.7,9.7V11z"/>
	</g>
	<linearGradient id="SVGID_3_" gradientUnits="userSpaceOnUse" x1="37.5" y1="0.1146" x2="37.5" y2="10.8302">
		<stop  offset="0" style="stop-color:#4D656B"/>
		<stop  offset="0.9945" style="stop-color:#7DA4AB"/>
	</linearGradient>
	<path style="fill:url(#SVGID_3_);" d="M43,11h-7c-2.2,0-4-1.8-4-4l0.1-7L43,11z"/>
	<g>
		<linearGradient id="SVGID_4_" gradientUnits="userSpaceOnUse" x1="26.5" y1="18.325" x2="26.5" y2="47.5371">
			<stop  offset="0" style="stop-color:#004546"/>
			<stop  offset="1" style="stop-color:#005F70;stop-opacity:0"/>
		</linearGradient>
		<path style="opacity:0.6;fill:url(#SVGID_4_);" d="M36.8,19.1l-5.8,0.6l0.2,4.4l-6-6l-2.3,5.5l-0.8,1.4L15.3,18l-2.3,5.5L10,29
			l19,19h10c2.2,0,4-1.8,4-4V25.2L36.8,19.1z"/>
	</g>
	<g>
		<g>
			<linearGradient id="SVGID_5_" gradientUnits="userSpaceOnUse" x1="24" y1="20.25" x2="24" y2="31.3487">
				<stop  offset="4.888515e-003" style="stop-color:#FFFFFF"/>
				<stop  offset="1" style="stop-color:#A7DEF3"/>
			</linearGradient>
			<path style="fill:url(#SVGID_5_);" d="M13.7,18L10,29h2.1l0.6-1.9h3.6l0.6,1.9H19l-3.7-11H13.7z M13.3,25.2l1.3-4l1.2,4H13.3z
				 M23.7,18L20,29h2.1l0.6-1.9h3.6l0.6,1.9H29l-3.7-11H23.7z M23.3,25.2l1.3-4l1.2,4H23.3z M34,27.1c-0.6,0-1-0.2-1.4-0.6
				c-0.4-0.5-0.5-1-0.5-3.1c0-2.1,0.1-2.6,0.5-3.1c0.3-0.4,0.8-0.6,1.4-0.6c1,0,1.6,0.6,1.8,1.5H38c-0.4-2.2-1.9-3.4-4-3.4
				c-1.2,0-2.1,0.4-2.9,1.2c-0.5,0.5-0.8,1-0.9,1.6c-0.1,0.6-0.2,1.5-0.2,2.7c0,1.2,0.1,2.1,0.2,2.7c0.1,0.6,0.4,1.2,0.9,1.6
				c0.8,0.8,1.8,1.2,2.9,1.2c2.1,0,3.6-1.2,4-3.4h-2.2C35.6,26.5,35,27.1,34,27.1z"/>
		</g>
	</g>
</g>
</svg>
