<?xml version="1.0" encoding="iso-8859-1"?>
<!-- Generator: Adobe Illustrator 17.0.0, SVG Export Plug-In . SVG Version: 6.00 Build 0)  -->
<!DOCTYPE svg PUBLIC "-//W3C//DTD SVG 1.1//EN" "http://www.w3.org/Graphics/SVG/1.1/DTD/svg11.dtd">
<svg version="1.1" xmlns="http://www.w3.org/2000/svg" xmlns:xlink="http://www.w3.org/1999/xlink" x="0px" y="0px" width="48px"
	 height="48px" viewBox="0 0 48 48" style="enable-background:new 0 0 48 48;" xml:space="preserve">
<g id="archive">
</g>
<g id="programming">
</g>
<g id="documents">
</g>
<g id="images">
	<linearGradient id="SVGID_1_" gradientUnits="userSpaceOnUse" x1="24" y1="0.5" x2="24" y2="47.2536">
		<stop  offset="1.247675e-002" style="stop-color:#B3542A"/>
		<stop  offset="1" style="stop-color:#D89C50"/>
	</linearGradient>
	<path style="fill:url(#SVGID_1_);" d="M43,44c0,2.2-1.8,4-4,4H9c-2.2,0-4-1.8-4-4V4c0-2.2,1.8-4,4-4h23.1c2.2,3.1,8,9,10.9,11V44z"
		/>
	<g>
		<linearGradient id="SVGID_2_" gradientUnits="userSpaceOnUse" x1="38.1406" y1="5.125" x2="38.1406" y2="17.6306">
			<stop  offset="5.346566e-003" style="stop-color:#D34D27"/>
			<stop  offset="1" style="stop-color:#D88725;stop-opacity:0"/>
		</linearGradient>
		<path style="opacity:0.9;fill:url(#SVGID_2_);" d="M43,11c-2.3-1.6-6.3-5.5-9-8.6l-0.8,7.5l9.7,9.7V11z"/>
	</g>
	<linearGradient id="SVGID_3_" gradientUnits="userSpaceOnUse" x1="37.5" y1="0.1146" x2="37.5" y2="10.8302">
		<stop  offset="1.247675e-002" style="stop-color:#B3542A"/>
		<stop  offset="1" style="stop-color:#D89C50"/>
	</linearGradient>
	<path style="fill:url(#SVGID_3_);" d="M43,11h-7c-2.2,0-4-1.8-4-4l0.1-7L43,11z"/>
	<g>
		<linearGradient id="SVGID_4_" gradientUnits="userSpaceOnUse" x1="30.1505" y1="18.3125" x2="30.1505" y2="47.5335">
			<stop  offset="5.346566e-003" style="stop-color:#D34D27"/>
			<stop  offset="1" style="stop-color:#D88725;stop-opacity:0"/>
		</linearGradient>
		<path style="opacity:0.9;fill:url(#SVGID_4_);" d="M30.3,18.1l-2.2,5.5L22.5,18l-1.2,2.9l0,0l-4,8.1l19,19H39c2.2,0,4-1.8,4-4
			V30.8L30.3,18.1z"/>
	</g>
	<g>
		<g>
			<linearGradient id="SVGID_5_" gradientUnits="userSpaceOnUse" x1="23.5" y1="19.375" x2="23.5" y2="32.5149">
				<stop  offset="4.888515e-003" style="stop-color:#FFFFFF"/>
				<stop  offset="1" style="stop-color:#FCD288"/>
			</linearGradient>
			<path style="fill:url(#SVGID_5_);" d="M20.7,18L17,29h2.1l0.6-1.9h3.6l0.6,1.9H26l-3.7-11H20.7z M20.3,25.2l1.3-4l1.2,4H20.3z
				 M28,18v11h2V18H28z"/>
		</g>
	</g>
</g>
<g id="video">
</g>
<g id="audio">
</g>
</svg>
