<?xml version="1.0" encoding="iso-8859-1"?>
<!-- Generator: Adobe Illustrator 17.0.0, SVG Export Plug-In . SVG Version: 6.00 Build 0)  -->
<!DOCTYPE svg PUBLIC "-//W3C//DTD SVG 1.1//EN" "http://www.w3.org/Graphics/SVG/1.1/DTD/svg11.dtd">
<svg version="1.1" xmlns="http://www.w3.org/2000/svg" xmlns:xlink="http://www.w3.org/1999/xlink" x="0px" y="0px" width="48px"
	 height="48px" viewBox="0 0 48 48" style="enable-background:new 0 0 48 48;" xml:space="preserve">
<g id="archive">
</g>
<g id="programming">
	<g>
		<linearGradient id="SVGID_1_" gradientUnits="userSpaceOnUse" x1="24" y1="0.5" x2="24" y2="47.259">
			<stop  offset="0" style="stop-color:#453973"/>
			<stop  offset="1" style="stop-color:#506387"/>
		</linearGradient>
		<path style="fill:url(#SVGID_1_);" d="M43,44c0,2.2-1.8,4-4,4H9c-2.2,0-4-1.8-4-4L5,4c0-2.2,1.8-4,4-4h23.1c2.2,3.1,8,9,10.9,11
			V44z"/>
		<g>
			<linearGradient id="SVGID_2_" gradientUnits="userSpaceOnUse" x1="38.1406" y1="2.5543" x2="38.1406" y2="19.3591">
				<stop  offset="0" style="stop-color:#2D4B63"/>
				<stop  offset="1" style="stop-color:#517CA0;stop-opacity:0"/>
			</linearGradient>
			<path style="opacity:0.8;fill:url(#SVGID_2_);" d="M43,11c-2.3-1.6-6.3-5.5-9-8.6l-0.8,7.5l9.7,9.7V11z"/>
		</g>
		<linearGradient id="SVGID_3_" gradientUnits="userSpaceOnUse" x1="37.5" y1="0.1146" x2="37.5" y2="10.8302">
			<stop  offset="0" style="stop-color:#453973"/>
			<stop  offset="1" style="stop-color:#506387"/>
		</linearGradient>
		<path style="fill:url(#SVGID_3_);" d="M43,11h-7c-2.2,0-4-1.8-4-4V0L43,11z"/>
		<g>
			<linearGradient id="SVGID_4_" gradientUnits="userSpaceOnUse" x1="26.5" y1="19.3021" x2="26.5" y2="47.5523">
				<stop  offset="0" style="stop-color:#2D4B63"/>
				<stop  offset="1" style="stop-color:#517CA0;stop-opacity:0"/>
			</linearGradient>
			<path style="opacity:0.8;fill:url(#SVGID_4_);" d="M31,20.3l1.1,4.4l-4.5-4.5l-5.8,0.4l0.5,1.9l-1.4,1.6l4.5,4.5l0.2,0.7L15.3,19
				l-2.9,7.4L10,30.1L27.9,48H39c2.2,0,4-1.8,4-4V26l-6.1-6.1L31,20.3z"/>
		</g>
		<g>
			<g>
				<linearGradient id="SVGID_5_" gradientUnits="userSpaceOnUse" x1="24" y1="20.4167" x2="24" y2="32.3406">
					<stop  offset="4.888515e-003" style="stop-color:#FFFFFF"/>
					<stop  offset="1" style="stop-color:#B3C7D0"/>
				</linearGradient>
				<path style="fill:url(#SVGID_5_);" d="M13.7,19L10,30h2.1l0.6-1.9h3.6l0.6,1.9H19l-3.7-11H13.7z M13.3,26.2l1.3-4l1.2,4H13.3z
					 M25.1,23.6l-1.3-0.2c-0.4-0.1-0.8-0.2-1-0.4c-0.2-0.2-0.3-0.5-0.3-0.8c0-0.7,0.5-1.4,1.7-1.4c0.7,0,1.5,0.1,2.2,0.7l1.3-1.3
					c-0.9-0.9-2-1.3-3.5-1.3c-2.4,0-3.8,1.4-3.8,3.3c0,0.9,0.3,1.6,0.8,2.1c0.5,0.5,1.2,0.8,2.1,0.9l1.3,0.2c0.5,0.1,0.7,0.2,1,0.4
					c0.2,0.2,0.3,0.5,0.3,0.9c0,0.9-0.7,1.3-1.9,1.3c-1,0-1.9-0.2-2.6-0.9L20,28.6c1.1,1.1,2.3,1.4,4,1.4c2.3,0,4-1.2,4-3.3
					c0-1-0.3-1.7-0.8-2.3C26.7,24,26.1,23.7,25.1,23.6z M34.3,19H30v11h2.2v-4.1h2.1c2.3,0,3.7-1.6,3.7-3.4C38,20.6,36.6,19,34.3,19
					z M34.2,23.9h-2v-3h2c1,0,1.6,0.6,1.6,1.5C35.8,23.3,35.2,23.9,34.2,23.9z"/>
			</g>
		</g>
	</g>
</g>
<g id="documents">
</g>
<g id="images">
</g>
<g id="video">
</g>
<g id="audio">
</g>
</svg>
