<?xml version="1.0" encoding="iso-8859-1"?>
<!-- Generator: Adobe Illustrator 17.0.0, SVG Export Plug-In . SVG Version: 6.00 Build 0)  -->
<!DOCTYPE svg PUBLIC "-//W3C//DTD SVG 1.1//EN" "http://www.w3.org/Graphics/SVG/1.1/DTD/svg11.dtd">
<svg version="1.1" xmlns="http://www.w3.org/2000/svg" xmlns:xlink="http://www.w3.org/1999/xlink" x="0px" y="0px" width="48px"
	 height="48px" viewBox="0 0 48 48" style="enable-background:new 0 0 48 48;" xml:space="preserve">
<g id="archive">
</g>
<g id="programming">
</g>
<g id="documents">
</g>
<g id="images">
	<linearGradient id="SVGID_1_" gradientUnits="userSpaceOnUse" x1="24" y1="0.5" x2="24" y2="47.259">
		<stop  offset="7.196800e-013" style="stop-color:#668037"/>
		<stop  offset="0.9998" style="stop-color:#D7D560"/>
	</linearGradient>
	<path style="fill:url(#SVGID_1_);" d="M43,44c0,2.2-1.8,4-4,4H9c-2.2,0-4-1.8-4-4V4c0-2.2,1.8-4,4-4h23.1c2.2,3.1,8,9,10.9,11V44z"
		/>
	<g style="opacity:0.8;">
		<linearGradient id="SVGID_2_" gradientUnits="userSpaceOnUse" x1="38.1406" y1="5.125" x2="38.1406" y2="17.6306">
			<stop  offset="0" style="stop-color:#919A38"/>
			<stop  offset="0.9962" style="stop-color:#D6D21C;stop-opacity:0"/>
		</linearGradient>
		<path style="opacity:0.6;fill:url(#SVGID_2_);" d="M43,11c-2.3-1.6-6.3-5.5-9-8.6l-0.8,7.5l9.7,9.7V11z"/>
	</g>
	<linearGradient id="SVGID_3_" gradientUnits="userSpaceOnUse" x1="37.5" y1="0.1146" x2="37.5" y2="10.8302">
		<stop  offset="7.196800e-013" style="stop-color:#668037"/>
		<stop  offset="0.9998" style="stop-color:#D7D560"/>
	</linearGradient>
	<path style="fill:url(#SVGID_3_);" d="M43,11h-7c-2.2,0-4-1.8-4-4l0.1-7L43,11z"/>
	<g style="opacity:0.8;">
		<linearGradient id="SVGID_4_" gradientUnits="userSpaceOnUse" x1="26" y1="18.3125" x2="26" y2="47.5369">
			<stop  offset="0" style="stop-color:#919A38"/>
			<stop  offset="0.9962" style="stop-color:#D6D21C;stop-opacity:0"/>
		</linearGradient>
		<path style="opacity:0.6;fill:url(#SVGID_4_);" d="M43,44V24l-5.3-5.3L32,19.2l0.1,2L28.9,18l-3,3.9l-1.6,2.9l-3.2-3.2L20,23.1
			l-4.3-4.3l-4.4-0.3L11,20.8l-1.2-0.1L9,29l19,19h11C41.2,48,43,46.2,43,44z"/>
	</g>
	<g>
		<g>
			
				<linearGradient id="SVGID_5_" gradientUnits="userSpaceOnUse" x1="24" y1="16.3333" x2="24" y2="32.0888" gradientTransform="matrix(0.9999 1.592388e-002 -1.592388e-002 0.9999 0.3773 -0.3792)">
				<stop  offset="4.888515e-003" style="stop-color:#FFFFFF"/>
				<stop  offset="0.9765" style="stop-color:#E6D48E"/>
			</linearGradient>
			<path style="fill:url(#SVGID_5_);" d="M15.5,23.2c0.6-0.3,1.4-1,1.4-2.2c0-1.9-1.2-3.1-3.4-3.1l-4.4-0.1l-0.2,11l4.6,0.1
				c2,0,3.4-1.1,3.4-3.1C17,24.3,16.1,23.5,15.5,23.2z M11.2,19.7l2.1,0c0.9,0,1.4,0.5,1.4,1.3c0,0.8-0.5,1.3-1.4,1.2l-2.1,0
				L11.2,19.7z M13.3,26.9l-2.2,0l0-2.7l2.2,0c1,0,1.4,0.6,1.4,1.4C14.8,26.3,14.3,26.9,13.3,26.9z M24,23.9l-2.8-6l-2.1,0l-0.2,11
				l2.2,0l0.1-6.4l2.1,4.2l1.5,0l2.2-4.1L26.8,29l2.2,0l0.2-11L27,18L24,23.9z M35.4,18.2l-4.3-0.1l-0.2,11l2.2,0l0.1-4.1l2.1,0
				c2.3,0,3.7-1.5,3.7-3.4C39.1,19.8,37.7,18.2,35.4,18.2z M35.2,23.1l-2,0l0-3l2,0c1,0,1.6,0.6,1.6,1.5
				C36.8,22.5,36.2,23.1,35.2,23.1z"/>
		</g>
	</g>
</g>
<g id="video">
</g>
<g id="audio">
</g>
</svg>
