<?xml version="1.0" encoding="iso-8859-1"?>
<!-- Generator: Adobe Illustrator 17.0.0, SVG Export Plug-In . SVG Version: 6.00 Build 0)  -->
<!DOCTYPE svg PUBLIC "-//W3C//DTD SVG 1.1//EN" "http://www.w3.org/Graphics/SVG/1.1/DTD/svg11.dtd">
<svg version="1.1" xmlns="http://www.w3.org/2000/svg" xmlns:xlink="http://www.w3.org/1999/xlink" x="0px" y="0px" width="48px"
	 height="48px" viewBox="0 0 48 48" style="enable-background:new 0 0 48 48;" xml:space="preserve">
<g id="archive">
</g>
<g id="programming">
	<g>
		<linearGradient id="SVGID_1_" gradientUnits="userSpaceOnUse" x1="24" y1="0.5" x2="24" y2="47.259">
			<stop  offset="0" style="stop-color:#961756"/>
			<stop  offset="1" style="stop-color:#D7494C"/>
		</linearGradient>
		<path style="fill:url(#SVGID_1_);" d="M43,44c0,2.2-1.8,4-4,4H9c-2.2,0-4-1.8-4-4V4c0-2.2,1.8-4,4-4h23.1c2.2,3.1,8,9,10.9,11V44z
			"/>
		<g>
			<linearGradient id="SVGID_2_" gradientUnits="userSpaceOnUse" x1="38.1406" y1="2.5696" x2="38.1406" y2="19.3744">
				<stop  offset="0" style="stop-color:#961756"/>
				<stop  offset="0.9909" style="stop-color:#F37122;stop-opacity:0"/>
			</linearGradient>
			<path style="fill:url(#SVGID_2_);" d="M43,11c-2.3-1.6-6.3-5.5-9-8.6l-0.8,7.5l9.7,9.7V11z"/>
		</g>
		<linearGradient id="SVGID_3_" gradientUnits="userSpaceOnUse" x1="37.5" y1="0.1146" x2="37.5" y2="10.8302">
			<stop  offset="0" style="stop-color:#961756"/>
			<stop  offset="1" style="stop-color:#D7494C"/>
		</linearGradient>
		<path style="fill:url(#SVGID_3_);" d="M43,11h-7c-2.2,0-4-1.8-4-4l0.1-7L43,11z"/>
		<g>
			<linearGradient id="SVGID_4_" gradientUnits="userSpaceOnUse" x1="32.1982" y1="20.2409" x2="32.1982" y2="47.3717">
				<stop  offset="0" style="stop-color:#961756"/>
				<stop  offset="0.9909" style="stop-color:#F37122;stop-opacity:0"/>
			</linearGradient>
			<path style="opacity:0.8;fill:url(#SVGID_4_);" d="M26.3,20l-4.7,0.2L21.4,29l18.8,18.8c1.6-0.5,2.8-2,2.8-3.8v-7.4L26.3,20z"/>
		</g>
		<linearGradient id="SVGID_5_" gradientUnits="userSpaceOnUse" x1="23.8538" y1="19.3048" x2="23.8538" y2="29.6968">
			<stop  offset="4.888515e-003" style="stop-color:#FFFFFF"/>
			<stop  offset="1" style="stop-color:#F9AC83"/>
		</linearGradient>
		<path style="fill-rule:evenodd;clip-rule:evenodd;fill:url(#SVGID_5_);" d="M27.5,26.6h-2c-0.2,0.9-0.7,1.5-1.7,1.5
			c-0.5,0-0.9-0.2-1.2-0.6c-0.4-0.5-0.5-1-0.5-3s0.1-2.6,0.5-3c0.3-0.4,0.7-0.6,1.2-0.6c0.9,0,1.5,0.6,1.7,1.5h2
			c-0.3-2.2-1.7-3.4-3.7-3.4c-1.1,0-2,0.4-2.7,1.2c-0.4,0.5-0.7,1-0.8,1.6c-0.1,0.6-0.2,1.5-0.2,2.7c0,1.2,0.1,2.1,0.2,2.7
			c0.1,0.6,0.4,1.2,0.8,1.6c0.7,0.8,1.6,1.2,2.7,1.2C25.8,30,27.2,28.8,27.5,26.6z"/>
	</g>
</g>
<g id="documents">
</g>
<g id="images">
</g>
<g id="video">
</g>
<g id="audio">
</g>
</svg>
