<?xml version="1.0" encoding="iso-8859-1"?>
<!-- Generator: Adobe Illustrator 17.0.0, SVG Export Plug-In . SVG Version: 6.00 Build 0)  -->
<!DOCTYPE svg PUBLIC "-//W3C//DTD SVG 1.1//EN" "http://www.w3.org/Graphics/SVG/1.1/DTD/svg11.dtd">
<svg version="1.1" xmlns="http://www.w3.org/2000/svg" xmlns:xlink="http://www.w3.org/1999/xlink" x="0px" y="0px" width="48px"
	 height="48px" viewBox="0 0 48 48" style="enable-background:new 0 0 48 48;" xml:space="preserve">
<g id="archive">
</g>
<g id="programming">
	<g>
		<linearGradient id="SVGID_1_" gradientUnits="userSpaceOnUse" x1="24" y1="0.5" x2="24" y2="47.259">
			<stop  offset="0" style="stop-color:#2B3074"/>
			<stop  offset="1" style="stop-color:#006993"/>
		</linearGradient>
		<path style="fill:url(#SVGID_1_);" d="M43,44c0,2.2-1.8,4-4,4H9c-2.2,0-4-1.8-4-4V4c0-2.2,1.8-4,4-4h23.1c2.2,3.1,8,9,10.9,11V44z
			"/>
		<g>
			<linearGradient id="SVGID_2_" gradientUnits="userSpaceOnUse" x1="38.1406" y1="2.5696" x2="38.1406" y2="19.3744">
				<stop  offset="0" style="stop-color:#2B3074"/>
				<stop  offset="1" style="stop-color:#997E85;stop-opacity:0"/>
			</linearGradient>
			<path style="opacity:0.8;fill:url(#SVGID_2_);" d="M43,11c-2.3-1.6-6.3-5.5-9-8.6l-0.8,7.5l9.7,9.7V11z"/>
		</g>
		<linearGradient id="SVGID_3_" gradientUnits="userSpaceOnUse" x1="37.5" y1="0.1146" x2="37.5" y2="10.8302">
			<stop  offset="0" style="stop-color:#2B3074"/>
			<stop  offset="1" style="stop-color:#006993"/>
		</linearGradient>
		<path style="fill:url(#SVGID_3_);" d="M43,11h-7c-2.2,0-4-1.8-4-4l0.1-7L43,11z"/>
		<g>
			<linearGradient id="SVGID_4_" gradientUnits="userSpaceOnUse" x1="27.6876" y1="20.0245" x2="27.6876" y2="47.5636">
				<stop  offset="0" style="stop-color:#2B3074"/>
				<stop  offset="1" style="stop-color:#997E85;stop-opacity:0"/>
			</linearGradient>
			<path style="opacity:0.8;fill:url(#SVGID_4_);" d="M43,26.7l-8-7L29.6,21l0.5,2.7l-3.8-3.8L21,21l-0.1,2.9L17,19.9L12.4,21v8.1
				L31.3,48H39c2.2,0,4-1.8,4-4V26.7z"/>
		</g>
		<g>
			<g>
				<linearGradient id="SVGID_5_" gradientUnits="userSpaceOnUse" x1="23.661" y1="19.3036" x2="23.661" y2="29.6534">
					<stop  offset="4.888515e-003" style="stop-color:#FFFFFF"/>
					<stop  offset="1" style="stop-color:#91CCF0"/>
				</linearGradient>
				<path style="fill-rule:evenodd;clip-rule:evenodd;fill:url(#SVGID_5_);" d="M14.7,20.9c0.9,0,1.5,0.6,1.7,1.5h2
					C18,20.2,16.6,19,14.7,19c-1.1,0-1.9,0.4-2.7,1.2c-0.4,0.5-0.7,1-0.8,1.6c-0.1,0.6-0.2,1.5-0.2,2.7s0.1,2.1,0.2,2.7
					c0.1,0.6,0.4,1.1,0.8,1.6c0.7,0.8,1.6,1.2,2.7,1.2c1.9,0,3.3-1.2,3.6-3.4h-2c-0.2,0.9-0.7,1.5-1.7,1.5c-0.5,0-0.9-0.2-1.2-0.6
					c-0.4-0.5-0.5-1-0.5-3c0-2.1,0.1-2.6,0.5-3C13.7,21.1,14.1,20.9,14.7,20.9z M24,19H20v10.9h2v-4.1h2c2.1,0,3.4-1.6,3.4-3.4
					S26,19,24,19z M23.9,23.9H22v-3h1.9c0.9,0,1.5,0.6,1.5,1.5C25.3,23.3,24.8,23.9,23.9,23.9z M33,19H29v10.9h2v-4.1h2
					c2.1,0,3.4-1.6,3.4-3.4S35,19,33,19z M32.9,23.9H31v-3h1.9c0.9,0,1.5,0.6,1.5,1.5C34.3,23.3,33.8,23.9,32.9,23.9z"/>
			</g>
		</g>
	</g>
</g>
<g id="documents">
</g>
<g id="images">
</g>
<g id="video">
</g>
<g id="audio">
</g>
</svg>
