<?xml version="1.0" encoding="iso-8859-1"?>
<!-- Generator: Adobe Illustrator 17.0.0, SVG Export Plug-In . SVG Version: 6.00 Build 0)  -->
<!DOCTYPE svg PUBLIC "-//W3C//DTD SVG 1.1//EN" "http://www.w3.org/Graphics/SVG/1.1/DTD/svg11.dtd">
<svg version="1.1" xmlns="http://www.w3.org/2000/svg" xmlns:xlink="http://www.w3.org/1999/xlink" x="0px" y="0px" width="48px"
	 height="48px" viewBox="0 0 48 48" style="enable-background:new 0 0 48 48;" xml:space="preserve">
<g id="archive">
</g>
<g id="programming">
	<g>
		<linearGradient id="SVGID_1_" gradientUnits="userSpaceOnUse" x1="24" y1="47.0625" x2="24" y2="0.291">
			<stop  offset="0" style="stop-color:#AAAB79"/>
			<stop  offset="0.9915" style="stop-color:#4B5A41"/>
		</linearGradient>
		<path style="fill:url(#SVGID_1_);" d="M43,44c0,2.2-1.8,4-4,4H9c-2.2,0-4-1.8-4-4V4c0-2.2,1.8-4,4-4h23.1c2.2,3.1,8,9,10.9,11V44z
			"/>
		<g>
			<linearGradient id="SVGID_2_" gradientUnits="userSpaceOnUse" x1="38.1406" y1="19.3038" x2="38.1406" y2="2.4945">
				<stop  offset="0" style="stop-color:#AAAB79;stop-opacity:0"/>
				<stop  offset="0.9915" style="stop-color:#4B5A41"/>
			</linearGradient>
			<path style="opacity:0.7;fill:url(#SVGID_2_);" d="M43,11c-2.3-1.6-6.3-5.5-9-8.6l-0.8,7.5l9.7,9.7V11z"/>
		</g>
		<linearGradient id="SVGID_3_" gradientUnits="userSpaceOnUse" x1="37.5" y1="10.7852" x2="37.5" y2="6.669673e-002">
			<stop  offset="0" style="stop-color:#AAAB79"/>
			<stop  offset="0.9915" style="stop-color:#4B5A41"/>
		</linearGradient>
		<path style="fill:url(#SVGID_3_);" d="M43,11h-7c-2.2,0-4-1.8-4-4l0.1-7L43,11z"/>
		<g>
			<linearGradient id="SVGID_4_" gradientUnits="userSpaceOnUse" x1="27.4502" y1="47.4421" x2="27.4502" y2="19.6066">
				<stop  offset="0" style="stop-color:#AAAB79;stop-opacity:0"/>
				<stop  offset="0.9915" style="stop-color:#4B5A41"/>
			</linearGradient>
			<path style="opacity:0.7;fill:url(#SVGID_4_);" d="M36.6,20.2L31,20.3l0.2,3.3l-3.5-3.5L22,20.3l0.2,4.1l-4.7-4.7l-4.4-0.3
				l-0.1,0.9l-0.4,0l-0.8,8.3L31.3,48H39c2.2,0,4-1.8,4-4V26.6L36.6,20.2z"/>
		</g>
		<g>
			<g>
				<linearGradient id="SVGID_5_" gradientUnits="userSpaceOnUse" x1="24" y1="21.75" x2="24" y2="33.7506">
					<stop  offset="4.888515e-003" style="stop-color:#FFFFFF"/>
					<stop  offset="1" style="stop-color:#BCD4A1"/>
				</linearGradient>
				<path style="fill:url(#SVGID_5_);" d="M15,20.9c1,0,1.6,0.6,1.8,1.5H19c-0.4-2.2-1.9-3.4-4-3.4c-1.2,0-2.1,0.4-2.9,1.2
					c-0.5,0.5-0.8,1-0.9,1.6c-0.1,0.6-0.2,1.5-0.2,2.7c0,1.2,0.1,2.1,0.2,2.7c0.1,0.6,0.4,1.2,0.9,1.6c0.8,0.8,1.8,1.2,2.9,1.2
					c2.1,0,3.6-1.2,4-3.4h-2.2c-0.2,0.9-0.8,1.5-1.8,1.5c-0.6,0-1-0.2-1.4-0.6c-0.4-0.5-0.5-1-0.5-3.1c0-2.1,0.1-2.6,0.5-3.1
					C14,21.1,14.4,20.9,15,20.9z M25.1,23.6l-1.3-0.2c-0.4-0.1-0.8-0.2-1-0.4c-0.2-0.2-0.3-0.5-0.3-0.8c0-0.7,0.5-1.4,1.7-1.4
					c0.7,0,1.5,0.1,2.2,0.7l1.3-1.3c-0.9-0.9-2-1.3-3.5-1.3c-2.4,0-3.8,1.4-3.8,3.3c0,0.9,0.3,1.6,0.8,2.1c0.5,0.5,1.2,0.8,2.1,0.9
					l1.3,0.2c0.5,0.1,0.7,0.2,1,0.4c0.2,0.2,0.3,0.5,0.3,0.9c0,0.9-0.7,1.3-1.9,1.3c-1,0-1.9-0.2-2.6-0.9L20,28.6
					c1.1,1.1,2.3,1.4,4,1.4c2.3,0,4-1.2,4-3.3c0-1-0.3-1.7-0.8-2.3C26.7,24,26.1,23.7,25.1,23.6z M36.2,24.4
					c-0.5-0.4-1.1-0.7-2.1-0.8l-1.3-0.2c-0.4-0.1-0.8-0.2-1-0.4c-0.2-0.2-0.3-0.5-0.3-0.8c0-0.7,0.5-1.4,1.7-1.4
					c0.7,0,1.5,0.1,2.2,0.7l1.3-1.3c-0.9-0.9-2-1.3-3.5-1.3c-2.4,0-3.8,1.4-3.8,3.3c0,0.9,0.3,1.6,0.8,2.1c0.5,0.5,1.2,0.8,2.1,0.9
					l1.3,0.2c0.5,0.1,0.7,0.2,1,0.4c0.2,0.2,0.3,0.5,0.3,0.9c0,0.9-0.7,1.3-1.9,1.3c-1,0-1.9-0.2-2.6-0.9L29,28.6
					c1.1,1.1,2.3,1.4,4,1.4c2.3,0,4-1.2,4-3.3C37,25.8,36.7,25,36.2,24.4z"/>
			</g>
		</g>
	</g>
</g>
<g id="documents">
</g>
<g id="images">
</g>
<g id="video">
</g>
<g id="audio">
</g>
</svg>
