<?xml version="1.0" encoding="iso-8859-1"?>
<!-- Generator: Adobe Illustrator 17.0.0, SVG Export Plug-In . SVG Version: 6.00 Build 0)  -->
<!DOCTYPE svg PUBLIC "-//W3C//DTD SVG 1.1//EN" "http://www.w3.org/Graphics/SVG/1.1/DTD/svg11.dtd">
<svg version="1.1" xmlns="http://www.w3.org/2000/svg" xmlns:xlink="http://www.w3.org/1999/xlink" x="0px" y="0px" width="48px"
	 height="48px" viewBox="0 0 48 48" style="enable-background:new 0 0 48 48;" xml:space="preserve">
<g id="archive">
</g>
<g id="programming">
</g>
<g id="documents">
	<linearGradient id="SVGID_1_" gradientUnits="userSpaceOnUse" x1="24" y1="0.5" x2="24" y2="47.259">
		<stop  offset="1.470306e-002" style="stop-color:#254D79"/>
		<stop  offset="0.9934" style="stop-color:#50B2D8"/>
	</linearGradient>
	<path style="fill:url(#SVGID_1_);" d="M43,44c0,2.2-1.8,4-4,4H9c-2.2,0-4-1.8-4-4V4c0-2.2,1.8-4,4-4h23.1c2.2,3.1,8,9,10.9,11V44z"
		/>
	<linearGradient id="SVGID_2_" gradientUnits="userSpaceOnUse" x1="38.1406" y1="5.125" x2="38.1406" y2="17.6306">
		<stop  offset="1.247532e-002" style="stop-color:#5A183B"/>
		<stop  offset="1" style="stop-color:#A96284;stop-opacity:0"/>
	</linearGradient>
	<path style="opacity:0.4;fill:url(#SVGID_2_);" d="M43,11c-2.3-1.6-6.3-5.5-9-8.6l-0.8,7.5l9.7,9.7V11z"/>
	<linearGradient id="SVGID_3_" gradientUnits="userSpaceOnUse" x1="37.5" y1="0.1146" x2="37.5" y2="10.8302">
		<stop  offset="1.470306e-002" style="stop-color:#254D79"/>
		<stop  offset="0.9934" style="stop-color:#50B2D8"/>
	</linearGradient>
	<path style="fill:url(#SVGID_3_);" d="M43,11h-7c-2.2,0-4-1.8-4-4l0.1-7L43,11z"/>
	<linearGradient id="SVGID_4_" gradientUnits="userSpaceOnUse" x1="27.0176" y1="18.7764" x2="27.0176" y2="47.5441">
		<stop  offset="1.247532e-002" style="stop-color:#5A183B"/>
		<stop  offset="1" style="stop-color:#A96284;stop-opacity:0"/>
	</linearGradient>
	<path style="opacity:0.4;fill:url(#SVGID_4_);" d="M35.5,18.8l-4.8,1.3l-0.2,2.7l-3.7-3.7l-4.4-0.3L22,23.3l-4.5-4.5l-4.4-0.3
		l-0.2,2.4l-1-0.1L11,29.1L30,48h9c2.2,0,4-1.8,4-4V26.3L35.5,18.8z"/>
	<g>
		<g>
			<linearGradient id="SVGID_5_" gradientUnits="userSpaceOnUse" x1="24" y1="17" x2="24" y2="32.438">
				<stop  offset="4.888515e-003" style="stop-color:#FFFFFF"/>
				<stop  offset="1" style="stop-color:#99D9E5"/>
			</linearGradient>
			<path style="fill:url(#SVGID_5_);" d="M17.8,19.1C17.1,18.3,16,18,14.9,18H11v11h3.9c1.1,0,2.1-0.3,2.9-1.1
				c1.2-1.2,1.1-2.8,1.1-4.5C18.9,21.8,19,20.3,17.8,19.1z M16.3,26.4c-0.4,0.4-0.9,0.7-1.6,0.7h-1.6v-7.2h1.6
				c0.7,0,1.2,0.2,1.6,0.7c0.4,0.5,0.5,1.2,0.5,2.9C16.8,25.1,16.7,25.9,16.3,26.4z M24,18c-1.2,0-2.2,0.4-2.9,1.2
				C20,20.3,20,21.6,20,23.5c0,1.9,0,3.2,1.1,4.3c0.8,0.8,1.7,1.2,2.9,1.2c1.2,0,2.1-0.4,2.9-1.2c1.1-1.1,1.1-2.4,1.1-4.3
				c0-1.9,0-3.2-1.1-4.3C26.2,18.4,25.2,18,24,18z M25.4,26.5c-0.3,0.3-0.8,0.6-1.3,0.6c-0.6,0-1.1-0.2-1.4-0.6
				c-0.4-0.5-0.5-1-0.5-3c0-2.1,0.1-2.6,0.5-3c0.3-0.3,0.8-0.6,1.4-0.6c0.6,0,1,0.2,1.3,0.6c0.4,0.5,0.5,1,0.5,3
				C25.9,25.6,25.8,26.1,25.4,26.5z M33,27.1c-0.6,0-1-0.2-1.4-0.6c-0.4-0.5-0.5-1-0.5-3.1c0-2.1,0.1-2.6,0.5-3.1
				c0.3-0.4,0.8-0.6,1.4-0.6c1,0,1.6,0.6,1.8,1.5H37c-0.4-2.2-1.9-3.4-4-3.4c-1.2,0-2.1,0.4-2.9,1.2c-0.5,0.5-0.8,1-0.9,1.6
				c-0.1,0.6-0.2,1.5-0.2,2.7c0,1.2,0.1,2.1,0.2,2.7c0.1,0.6,0.4,1.2,0.9,1.6c0.8,0.8,1.8,1.2,2.9,1.2c2.1,0,3.6-1.2,4-3.4h-2.2
				C34.6,26.5,34,27.1,33,27.1z"/>
		</g>
	</g>
	<path style="fill:none;" d="M19,28v-2h-8v2h3v9h2v-9H19z"/>
</g>
<g id="images">
</g>
<g id="video">
</g>
<g id="audio">
</g>
</svg>
