<?xml version="1.0" encoding="iso-8859-1"?>
<!-- Generator: Adobe Illustrator 17.0.0, SVG Export Plug-In . SVG Version: 6.00 Build 0)  -->
<!DOCTYPE svg PUBLIC "-//W3C//DTD SVG 1.1//EN" "http://www.w3.org/Graphics/SVG/1.1/DTD/svg11.dtd">
<svg version="1.1" xmlns="http://www.w3.org/2000/svg" xmlns:xlink="http://www.w3.org/1999/xlink" x="0px" y="0px" width="48px"
	 height="48px" viewBox="0 0 48 48" style="enable-background:new 0 0 48 48;" xml:space="preserve">
<g id="archive">
</g>
<g id="programming">
</g>
<g id="documents">
	<linearGradient id="SVGID_1_" gradientUnits="userSpaceOnUse" x1="24" y1="0.5" x2="24" y2="47.259">
		<stop  offset="1.470306e-002" style="stop-color:#1E4169"/>
		<stop  offset="0.9934" style="stop-color:#4396B6"/>
	</linearGradient>
	<path style="fill:url(#SVGID_1_);" d="M43,44c0,2.2-1.8,4-4,4H9c-2.2,0-4-1.8-4-4V4c0-2.2,1.8-4,4-4h23.1c2.2,3.1,8,9,10.9,11V44z"
		/>
	<linearGradient id="SVGID_2_" gradientUnits="userSpaceOnUse" x1="38.1406" y1="5.125" x2="38.1406" y2="17.6306">
		<stop  offset="1.247532e-002" style="stop-color:#5A183B"/>
		<stop  offset="1" style="stop-color:#A96284;stop-opacity:0"/>
	</linearGradient>
	<path style="opacity:0.4;fill:url(#SVGID_2_);" d="M43,11c-2.3-1.6-6.3-5.5-9-8.6l-0.8,7.5l9.7,9.7V11z"/>
	<linearGradient id="SVGID_3_" gradientUnits="userSpaceOnUse" x1="37.5" y1="0.1146" x2="37.5" y2="10.8302">
		<stop  offset="1.470306e-002" style="stop-color:#1E4169"/>
		<stop  offset="0.9934" style="stop-color:#4396B6"/>
	</linearGradient>
	<path style="fill:url(#SVGID_3_);" d="M43,11h-7c-2.2,0-4-1.8-4-4l0.1-7L43,11z"/>
	<linearGradient id="SVGID_4_" gradientUnits="userSpaceOnUse" x1="26.5" y1="19.3021" x2="26.5" y2="47.5523">
		<stop  offset="1.247532e-002" style="stop-color:#5A183B"/>
		<stop  offset="1" style="stop-color:#A96284;stop-opacity:0"/>
	</linearGradient>
	<path style="opacity:0.4;fill:url(#SVGID_4_);" d="M37.8,19l-2.2,2.6L33,19l1.6,4.4l-0.7,1.3l-5-5l-3.5,0.8l-0.5,2.2l-3-3l-3.5,0.8
		l-0.5,2.1L15.2,20l-4.4-0.3L10,28l20,20h9c2.2,0,4-1.8,4-4V24.2L37.8,19z"/>
	<g>
		<g>
			<linearGradient id="SVGID_5_" gradientUnits="userSpaceOnUse" x1="24" y1="17.5" x2="24" y2="29.086">
				<stop  offset="4.888515e-003" style="stop-color:#FFFFFF"/>
				<stop  offset="1" style="stop-color:#99D9E5"/>
			</linearGradient>
			<path style="fill:url(#SVGID_5_);" d="M15.1,19.9c-0.5-0.6-1.3-0.9-2.1-0.9H10v9h2.9c0.8,0,1.6-0.3,2.1-0.9
				c0.9-1,0.8-2.3,0.8-3.7S16,20.9,15.1,19.9z M14,25.9c-0.3,0.4-0.6,0.6-1.2,0.6h-1.2v-5.9h1.2c0.5,0,0.9,0.2,1.2,0.6
				c0.3,0.4,0.3,1,0.3,2.3C14.3,24.8,14.3,25.5,14,25.9z M20,19c-0.9,0-1.6,0.3-2.2,1C17,20.9,17,22,17,23.5s0,2.6,0.8,3.5
				c0.6,0.6,1.3,1,2.2,1s1.6-0.3,2.2-1c0.8-0.9,0.8-2,0.8-3.5s0-2.6-0.8-3.5C21.6,19.3,20.9,19,20,19z M21,26
				c-0.2,0.3-0.6,0.5-1,0.5c-0.4,0-0.8-0.2-1-0.5c-0.3-0.4-0.4-0.8-0.4-2.5s0.1-2.1,0.4-2.5c0.2-0.3,0.6-0.5,1-0.5
				c0.4,0,0.8,0.2,1,0.5c0.3,0.4,0.4,0.8,0.4,2.5S21.3,25.6,21,26z M27,20.5c0.8,0,1.2,0.5,1.4,1.3H30C29.7,20,28.6,19,27,19
				c-0.9,0-1.6,0.3-2.2,1c-0.4,0.4-0.6,0.8-0.7,1.3C24,21.8,24,22.5,24,23.5s0,1.7,0.1,2.2c0.1,0.5,0.3,0.9,0.7,1.3
				c0.6,0.6,1.3,1,2.2,1c1.6,0,2.7-1,3-2.8h-1.6c-0.2,0.8-0.6,1.3-1.4,1.3c-0.4,0-0.8-0.1-1-0.5c-0.3-0.4-0.4-0.8-0.4-2.5
				s0.1-2.1,0.4-2.5C26.2,20.7,26.6,20.5,27,20.5z M35.4,23.4l2.4-4.4H36l-1.5,2.9L33,19h-1.9l2.4,4.4L31,28h1.9l1.6-3.1l1.6,3.1H38
				L35.4,23.4z"/>
		</g>
	</g>
</g>
<g id="images">
</g>
<g id="video">
</g>
<g id="audio">
</g>
</svg>
