<?xml version="1.0" encoding="iso-8859-1"?>
<!-- Generator: Adobe Illustrator 17.0.0, SVG Export Plug-In . SVG Version: 6.00 Build 0)  -->
<!DOCTYPE svg PUBLIC "-//W3C//DTD SVG 1.1//EN" "http://www.w3.org/Graphics/SVG/1.1/DTD/svg11.dtd">
<svg version="1.1" xmlns="http://www.w3.org/2000/svg" xmlns:xlink="http://www.w3.org/1999/xlink" x="0px" y="0px" width="48px"
	 height="48px" viewBox="0 0 48 48" style="enable-background:new 0 0 48 48;" xml:space="preserve">
<g id="archive">
</g>
<g id="programming">
</g>
<g id="documents">
</g>
<g id="images">
	<linearGradient id="SVGID_1_" gradientUnits="userSpaceOnUse" x1="24" y1="0.5" x2="24" y2="47.259">
		<stop  offset="2.004962e-002" style="stop-color:#162D37"/>
		<stop  offset="0.9934" style="stop-color:#5C7C99"/>
	</linearGradient>
	<path style="fill:url(#SVGID_1_);" d="M43,44c0,2.2-1.8,4-4,4H9c-2.2,0-4-1.8-4-4V4c0-2.2,1.8-4,4-4h23.1c2.2,3.1,8,9,10.9,11V44z"
		/>
	<linearGradient id="SVGID_2_" gradientUnits="userSpaceOnUse" x1="38.1406" y1="5.125" x2="38.1406" y2="17.6306">
		<stop  offset="1.247532e-002" style="stop-color:#5A183B"/>
		<stop  offset="1" style="stop-color:#A96284;stop-opacity:0"/>
	</linearGradient>
	<path style="opacity:0.4;fill:url(#SVGID_2_);" d="M43,11c-2.3-1.6-6.3-5.5-9-8.6l-0.8,7.5l9.7,9.7V11z"/>
	<linearGradient id="SVGID_3_" gradientUnits="userSpaceOnUse" x1="37.5" y1="0.1146" x2="37.5" y2="10.8302">
		<stop  offset="2.004962e-002" style="stop-color:#162D37"/>
		<stop  offset="0.9934" style="stop-color:#5C7C99"/>
	</linearGradient>
	<path style="fill:url(#SVGID_3_);" d="M43,11h-7c-2.2,0-4-1.8-4-4l0.1-7L43,11z"/>
	<linearGradient id="SVGID_4_" gradientUnits="userSpaceOnUse" x1="26" y1="18.3125" x2="26" y2="47.5369">
		<stop  offset="1.247532e-002" style="stop-color:#5A183B"/>
		<stop  offset="1" style="stop-color:#A96284;stop-opacity:0"/>
	</linearGradient>
	<path style="opacity:0.4;fill:url(#SVGID_4_);" d="M43,44V23.3l-4.7-4.6l-4.9,1.7L31,18l-2.2,3.5L25.3,18l-2,3.1L20.1,18l0.7,6.4
		l-5.3-5.3l-4.4-0.3l-0.2,2.1l-1.1-0.1L9,29l19,19h11C41.2,48,43,46.2,43,44z"/>
	<g>
		<g>
			<linearGradient id="SVGID_5_" gradientUnits="userSpaceOnUse" x1="24.5" y1="19.1875" x2="24.5" y2="32.0055">
				<stop  offset="4.888515e-003" style="stop-color:#FFFFFF"/>
				<stop  offset="1" style="stop-color:#B4DDE5"/>
			</linearGradient>
			<path style="fill:url(#SVGID_5_);" d="M15.8,19.1C15.1,18.3,14,18,12.9,18H9v11h3.9c1.1,0,2.1-0.3,2.9-1.1
				c1.2-1.2,1.1-2.8,1.1-4.5C16.9,21.8,17,20.3,15.8,19.1z M14.3,26.4c-0.4,0.4-0.9,0.7-1.6,0.7h-1.6v-7.2h1.6
				c0.7,0,1.2,0.2,1.6,0.7c0.4,0.5,0.5,1.2,0.5,2.9C14.8,25.1,14.7,25.9,14.3,26.4z M27.2,24.9L25.3,18h-1.5l-1.9,6.9L20.2,18H18
				l2.8,11h1.7l1.9-6.7l1.9,6.7h1.7L31,18h-2.2L27.2,24.9z M35.9,22.9v1.8h2v0.4c0,0.6-0.2,1.1-0.5,1.4c-0.4,0.4-0.9,0.6-1.5,0.6
				c-0.6,0-1-0.2-1.3-0.6c-0.4-0.5-0.5-0.9-0.5-3.1c0-2.1,0.1-2.5,0.5-3c0.3-0.4,0.8-0.6,1.3-0.6c1,0,1.7,0.5,1.9,1.6H40
				c-0.3-1.9-1.6-3.5-4-3.5c-1.1,0-2.1,0.4-2.9,1.2c-0.5,0.5-0.8,1-0.9,1.6c-0.1,0.6-0.2,1.5-0.2,2.7c0,1.2,0.1,2.1,0.2,2.7
				c0.1,0.6,0.4,1.2,0.9,1.6c0.8,0.8,1.7,1.2,2.9,1.2c1.2,0,2.2-0.4,3-1.2c0.7-0.8,1-1.7,1-3.3v-1.6H35.9z"/>
		</g>
	</g>
</g>
<g id="video">
</g>
<g id="audio">
</g>
</svg>
