<?xml version="1.0" encoding="iso-8859-1"?>
<!-- Generator: Adobe Illustrator 17.0.0, SVG Export Plug-In . SVG Version: 6.00 Build 0)  -->
<!DOCTYPE svg PUBLIC "-//W3C//DTD SVG 1.1//EN" "http://www.w3.org/Graphics/SVG/1.1/DTD/svg11.dtd">
<svg version="1.1" xmlns="http://www.w3.org/2000/svg" xmlns:xlink="http://www.w3.org/1999/xlink" x="0px" y="0px" width="48px"
	 height="48px" viewBox="0 0 48 48" style="enable-background:new 0 0 48 48;" xml:space="preserve">
<g id="archive">
</g>
<g id="programming">
</g>
<g id="documents">
</g>
<g id="images">
	<linearGradient id="SVGID_1_" gradientUnits="userSpaceOnUse" x1="24" y1="0.5" x2="24" y2="47.259">
		<stop  offset="1.782189e-002" style="stop-color:#8A2864"/>
		<stop  offset="0.9934" style="stop-color:#DA9484"/>
	</linearGradient>
	<path style="fill:url(#SVGID_1_);" d="M43,44c0,2.2-1.8,4-4,4H9c-2.2,0-4-1.8-4-4V4c0-2.2,1.8-4,4-4h23.1c2.2,3.1,8,9,10.9,11V44z"
		/>
	<linearGradient id="SVGID_2_" gradientUnits="userSpaceOnUse" x1="38.1406" y1="5.125" x2="38.1406" y2="17.6306">
		<stop  offset="1.247532e-002" style="stop-color:#5A183B"/>
		<stop  offset="1" style="stop-color:#A96284;stop-opacity:0"/>
	</linearGradient>
	<path style="opacity:0.5;fill:url(#SVGID_2_);" d="M43,11c-2.3-1.6-6.3-5.5-9-8.6l-0.8,7.5l9.7,9.7V11z"/>
	<linearGradient id="SVGID_3_" gradientUnits="userSpaceOnUse" x1="37.5" y1="0.1146" x2="37.5" y2="10.8302">
		<stop  offset="1.782189e-002" style="stop-color:#8A2864"/>
		<stop  offset="0.9934" style="stop-color:#DA9484"/>
	</linearGradient>
	<path style="fill:url(#SVGID_3_);" d="M43,11h-7c-2.2,0-4-1.8-4-4l0.1-7L43,11z"/>
	<linearGradient id="SVGID_4_" gradientUnits="userSpaceOnUse" x1="27" y1="18.3472" x2="27" y2="47.5374">
		<stop  offset="1.247532e-002" style="stop-color:#5A183B"/>
		<stop  offset="1" style="stop-color:#A96284;stop-opacity:0"/>
	</linearGradient>
	<path style="opacity:0.5;fill:url(#SVGID_4_);" d="M38,18l-6.2,1.2l0.3,2L28.8,18l-2.4,3.7L22.6,18l1.8,6.7L24,25.3l-6.5-6.5
		l-4.4-0.3l-0.2,2.2l-1-0.1L11,28.9L30.1,48H39c2.2,0,4-1.8,4-4V23.1L38,18z"/>
	<g>
		<g>
			<linearGradient id="SVGID_5_" gradientUnits="userSpaceOnUse" x1="24.5" y1="17.2381" x2="24.5" y2="33.3866">
				<stop  offset="4.888515e-003" style="stop-color:#FFFFFF"/>
				<stop  offset="1" style="stop-color:#EEC4DD"/>
			</linearGradient>
			<path style="fill:url(#SVGID_5_);" d="M17.8,19.1C17.1,18.3,16,18,14.9,18H11v11h3.9c1.1,0,2.1-0.3,2.9-1.1
				c1.2-1.2,1.1-2.8,1.1-4.5C18.9,21.8,19,20.3,17.8,19.1z M16.3,26.4c-0.4,0.4-0.9,0.7-1.6,0.7h-1.6v-7.2h1.6
				c0.7,0,1.2,0.2,1.6,0.7c0.4,0.5,0.5,1.2,0.5,2.9C16.8,25.1,16.7,25.9,16.3,26.4z M28.8,18h-2.4l-1.9,3.6L22.6,18h-2.4l3.1,5.4
				L20,29h2.4l2.1-3.8l2.1,3.8H29l-3.4-5.6L28.8,18z M38,19.9V18h-7v11h2.1v-4.5h4.2v-1.9h-4.2v-2.7H38z"/>
		</g>
	</g>
</g>
<g id="video">
</g>
<g id="audio">
</g>
</svg>
