<?xml version="1.0" encoding="iso-8859-1"?>
<!-- Generator: Adobe Illustrator 17.0.0, SVG Export Plug-In . SVG Version: 6.00 Build 0)  -->
<!DOCTYPE svg PUBLIC "-//W3C//DTD SVG 1.1//EN" "http://www.w3.org/Graphics/SVG/1.1/DTD/svg11.dtd">
<svg version="1.1" xmlns="http://www.w3.org/2000/svg" xmlns:xlink="http://www.w3.org/1999/xlink" x="0px" y="0px" width="48px"
	 height="48px" viewBox="0 0 48 48" style="enable-background:new 0 0 48 48;" xml:space="preserve">
<g id="archive">
</g>
<g id="programming">
</g>
<g id="documents">
</g>
<g id="images">
	<linearGradient id="SVGID_1_" gradientUnits="userSpaceOnUse" x1="24" y1="0.5" x2="24" y2="47.259">
		<stop  offset="7.196800e-013" style="stop-color:#AE301C"/>
		<stop  offset="1" style="stop-color:#F9A978"/>
	</linearGradient>
	<path style="fill:url(#SVGID_1_);" d="M43,44c0,2.2-1.8,4-4,4H9c-2.2,0-4-1.8-4-4V4c0-2.2,1.8-4,4-4h23.1c2.2,3.1,8,9,10.9,11V44z"
		/>
	<linearGradient id="SVGID_2_" gradientUnits="userSpaceOnUse" x1="38.1406" y1="5.125" x2="38.1406" y2="17.6306">
		<stop  offset="1.782189e-003" style="stop-color:#BF4223"/>
		<stop  offset="0.9962" style="stop-color:#F78F3B;stop-opacity:0"/>
	</linearGradient>
	<path style="opacity:0.8;fill:url(#SVGID_2_);" d="M43,11c-2.3-1.6-6.3-5.5-9-8.6l-0.8,7.5l9.7,9.7V11z"/>
	<linearGradient id="SVGID_3_" gradientUnits="userSpaceOnUse" x1="37.5" y1="0.1146" x2="37.5" y2="10.8302">
		<stop  offset="7.196800e-013" style="stop-color:#AE301C"/>
		<stop  offset="1" style="stop-color:#F9A978"/>
	</linearGradient>
	<path style="fill:url(#SVGID_3_);" d="M43,11h-7c-2.2,0-4-1.8-4-4l0.1-7L43,11z"/>
	<linearGradient id="SVGID_4_" gradientUnits="userSpaceOnUse" x1="27.1079" y1="18.3682" x2="27.1079" y2="47.5377">
		<stop  offset="1.782189e-003" style="stop-color:#BF4223"/>
		<stop  offset="0.9962" style="stop-color:#F78F3B;stop-opacity:0"/>
	</linearGradient>
	<path style="opacity:0.8;fill:url(#SVGID_4_);" d="M36.8,19.2L31,19.6l0.3,3.5l-4.4-4.4l-5,1l-0.1,2l-3.6-3.6l-5,1l0,1.7L12,20.6
		l-0.8,8.3L30.3,48H39c2.2,0,4-1.8,4-4V25.4L36.8,19.2z"/>
	<g>
		<g>
			<linearGradient id="SVGID_5_" gradientUnits="userSpaceOnUse" x1="24.1655" y1="17.4167" x2="24.1655" y2="32.2005">
				<stop  offset="4.888515e-003" style="stop-color:#FFFFFF"/>
				<stop  offset="0.9738" style="stop-color:#E2AD81"/>
			</linearGradient>
			<path style="fill:url(#SVGID_5_);" d="M11.2,29h7v-1.9h-4.9v-2.7h4.2v-1.9h-4.2v-2.6h4.9V18h-7V29z M24.5,18h-4.3v11h2.2v-4.1
				h2.1c2.3,0,3.7-1.6,3.7-3.4C28.2,19.6,26.8,18,24.5,18z M24.4,22.9h-2v-3h2c1,0,1.6,0.6,1.6,1.5C26,22.3,25.4,22.9,24.4,22.9z
				 M36.3,23.4c-0.5-0.4-1.1-0.7-2.1-0.8L33,22.4c-0.4-0.1-0.8-0.2-1-0.4c-0.2-0.2-0.3-0.5-0.3-0.8c0-0.7,0.5-1.4,1.7-1.4
				c0.7,0,1.5,0.1,2.2,0.7l1.3-1.3c-0.9-0.9-2-1.3-3.5-1.3c-2.4,0-3.8,1.4-3.8,3.3c0,0.9,0.3,1.6,0.8,2.1c0.5,0.5,1.2,0.8,2.1,0.9
				l1.3,0.2c0.5,0.1,0.7,0.2,1,0.4c0.2,0.2,0.3,0.5,0.3,0.9c0,0.9-0.7,1.3-1.9,1.3c-1,0-1.9-0.2-2.6-0.9l-1.4,1.4
				c1.1,1.1,2.3,1.4,4,1.4c2.3,0,4-1.2,4-3.3C37.2,24.8,36.9,24,36.3,23.4z"/>
		</g>
	</g>
</g>
<g id="video">
</g>
<g id="audio">
</g>
</svg>
