<?xml version="1.0" encoding="iso-8859-1"?>
<!-- Generator: Adobe Illustrator 17.0.0, SVG Export Plug-In . SVG Version: 6.00 Build 0)  -->
<!DOCTYPE svg PUBLIC "-//W3C//DTD SVG 1.1//EN" "http://www.w3.org/Graphics/SVG/1.1/DTD/svg11.dtd">
<svg version="1.1" xmlns="http://www.w3.org/2000/svg" xmlns:xlink="http://www.w3.org/1999/xlink" x="0px" y="0px" width="48px"
	 height="48px" viewBox="0 0 48 48" style="enable-background:new 0 0 48 48;" xml:space="preserve">
<g id="archive">
</g>
<g id="programming">
	<g>
		<linearGradient id="SVGID_1_" gradientUnits="userSpaceOnUse" x1="24" y1="0.5" x2="24" y2="47.259">
			<stop  offset="3.564377e-003" style="stop-color:#C16829"/>
			<stop  offset="0.998" style="stop-color:#DCAC1E"/>
		</linearGradient>
		<path style="fill:url(#SVGID_1_);" d="M43,44c0,2.2-1.8,4-4,4H9c-2.2,0-4-1.8-4-4V4c0-2.2,1.8-4,4-4h23.1c2.2,3.1,8,9,10.9,11V44z
			"/>
		<g>
			<linearGradient id="SVGID_2_" gradientUnits="userSpaceOnUse" x1="38.1406" y1="2.5543" x2="38.1406" y2="19.3591">
				<stop  offset="3.564377e-003" style="stop-color:#C16829"/>
				<stop  offset="0.998" style="stop-color:#DCAC1E;stop-opacity:0"/>
			</linearGradient>
			<path style="opacity:0.6;fill:url(#SVGID_2_);" d="M43,11c-2.3-1.6-6.3-5.5-9-8.6l-0.8,7.5l9.7,9.7V11z"/>
		</g>
		<linearGradient id="SVGID_3_" gradientUnits="userSpaceOnUse" x1="37.5" y1="0.1146" x2="37.5" y2="10.8302">
			<stop  offset="3.564377e-003" style="stop-color:#C16829"/>
			<stop  offset="0.998" style="stop-color:#DCAC1E"/>
		</linearGradient>
		<path style="fill:url(#SVGID_3_);" d="M43,11h-7c-2.2,0-4-1.8-4-4V0L43,11z"/>
		<g>
			<linearGradient id="SVGID_4_" gradientUnits="userSpaceOnUse" x1="27.5" y1="19.3021" x2="27.5" y2="47.5523">
				<stop  offset="3.564377e-003" style="stop-color:#C16829"/>
				<stop  offset="0.998" style="stop-color:#DCAC1E;stop-opacity:0"/>
			</linearGradient>
			<path style="opacity:0.6;fill:url(#SVGID_4_);" d="M37,19l-5.9,0.8l0.2,1.6L28.8,19l-3.3,2.9L22.6,19l0.9,4.5L19,19l-5.9,0.8
				l0.2,1.9l-0.4,0L12,30l18,18h9c2.2,0,4-1.8,4-4V25L37,19z"/>
		</g>
		<g>
			<g>
				<linearGradient id="SVGID_5_" gradientUnits="userSpaceOnUse" x1="24.5" y1="18.5625" x2="24.5" y2="31.4472">
					<stop  offset="4.888515e-003" style="stop-color:#FFFFFF"/>
					<stop  offset="1" style="stop-color:#FBD587"/>
				</linearGradient>
				<path style="fill:url(#SVGID_5_);" d="M12,30h7v-1.9h-4.9v-2.7h4.2v-1.9h-4.2v-2.6H19V19h-7V30z M28.8,19h-2.4l-1.9,3.6L22.6,19
					h-2.4l3.1,5.4L20,30h2.4l2.1-3.8l2.1,3.8H29l-3.4-5.6L28.8,19z M37,20.9V19h-7v11h7v-1.9h-4.9v-2.7h4.2v-1.9h-4.2v-2.6H37z"/>
			</g>
		</g>
	</g>
</g>
<g id="documents">
</g>
<g id="images">
</g>
<g id="video">
</g>
<g id="audio">
</g>
</svg>
