<?xml version="1.0" encoding="iso-8859-1"?>
<!-- Generator: Adobe Illustrator 17.0.0, SVG Export Plug-In . SVG Version: 6.00 Build 0)  -->
<!DOCTYPE svg PUBLIC "-//W3C//DTD SVG 1.1//EN" "http://www.w3.org/Graphics/SVG/1.1/DTD/svg11.dtd">
<svg version="1.1" xmlns="http://www.w3.org/2000/svg" xmlns:xlink="http://www.w3.org/1999/xlink" x="0px" y="0px" width="48px"
	 height="48px" viewBox="0 0 48 48" style="enable-background:new 0 0 48 48;" xml:space="preserve">
<g id="archive">
</g>
<g id="programming">
</g>
<g id="documents">
</g>
<g id="images">
	<linearGradient id="SVGID_1_" gradientUnits="userSpaceOnUse" x1="24" y1="0.5" x2="24" y2="47.259">
		<stop  offset="7.196800e-013" style="stop-color:#30401A"/>
		<stop  offset="1" style="stop-color:#848B5C"/>
	</linearGradient>
	<path style="fill:url(#SVGID_1_);" d="M43,44c0,2.2-1.8,4-4,4H9c-2.2,0-4-1.8-4-4V4c0-2.2,1.8-4,4-4h23.1c2.2,3.1,8,9,10.9,11V44z"
		/>
	<linearGradient id="SVGID_2_" gradientUnits="userSpaceOnUse" x1="38.1406" y1="5.125" x2="38.1406" y2="17.6306">
		<stop  offset="1.247532e-002" style="stop-color:#574144"/>
		<stop  offset="0.9962" style="stop-color:#64A392;stop-opacity:0"/>
	</linearGradient>
	<path style="opacity:0.6;fill:url(#SVGID_2_);" d="M43,11c-2.3-1.6-6.3-5.5-9-8.6l-0.8,7.5l9.7,9.7V11z"/>
	<linearGradient id="SVGID_3_" gradientUnits="userSpaceOnUse" x1="37.5" y1="0.1146" x2="37.5" y2="10.8302">
		<stop  offset="7.196800e-013" style="stop-color:#30401A"/>
		<stop  offset="1" style="stop-color:#848B5C"/>
	</linearGradient>
	<path style="fill:url(#SVGID_3_);" d="M43,11h-7c-2.2,0-4-1.8-4-4l0.1-7L43,11z"/>
	<linearGradient id="SVGID_4_" gradientUnits="userSpaceOnUse" x1="29.0252" y1="18.3125" x2="29.0252" y2="47.5369">
		<stop  offset="1.247532e-002" style="stop-color:#574144"/>
		<stop  offset="0.9962" style="stop-color:#64A392;stop-opacity:0"/>
	</linearGradient>
	<path style="opacity:0.6;fill:url(#SVGID_4_);" d="M43,26l-8-8l-5.3,1.6l-0.1,1.9L26,18l-1.2,5.2l-4-4l-4.9,0.1l-0.8,8.3L35.5,48
		H39c2.2,0,4-1.8,4-4V26z"/>
	<g>
		<g>
			<linearGradient id="SVGID_5_" gradientUnits="userSpaceOnUse" x1="24.5" y1="16.4167" x2="24.5" y2="31.6019">
				<stop  offset="4.888515e-003" style="stop-color:#FFFFFF"/>
				<stop  offset="0.9851" style="stop-color:#CCE3A6"/>
			</linearGradient>
			<path style="fill:url(#SVGID_5_);" d="M17.9,24.7h2v0.4c0,0.6-0.2,1.1-0.5,1.4c-0.4,0.4-0.9,0.6-1.5,0.6c-0.6,0-1-0.2-1.3-0.6
				c-0.4-0.5-0.5-0.9-0.5-3.1c0-2.1,0.1-2.5,0.5-3c0.3-0.4,0.8-0.6,1.3-0.6c1,0,1.7,0.5,1.9,1.6H22c-0.3-1.9-1.6-3.5-4-3.5
				c-1.1,0-2.1,0.4-2.9,1.2c-0.5,0.5-0.8,1-0.9,1.6c-0.1,0.6-0.2,1.5-0.2,2.7c0,1.2,0.1,2.1,0.2,2.7c0.1,0.6,0.4,1.2,0.9,1.6
				c0.8,0.8,1.7,1.2,2.9,1.2c1.2,0,2.2-0.4,3-1.2c0.7-0.8,1-1.7,1-3.3v-1.6h-4.1V24.7z M24,29h2V18h-2V29z M35,19.9V18h-7v11h2.1
				v-4.5h4.2v-1.9h-4.2v-2.7H35z"/>
		</g>
	</g>
</g>
<g id="video">
</g>
<g id="audio">
</g>
</svg>
