<?xml version="1.0" encoding="iso-8859-1"?>
<!-- Generator: Adobe Illustrator 17.0.0, SVG Export Plug-In . SVG Version: 6.00 Build 0)  -->
<!DOCTYPE svg PUBLIC "-//W3C//DTD SVG 1.1//EN" "http://www.w3.org/Graphics/SVG/1.1/DTD/svg11.dtd">
<svg version="1.1" xmlns="http://www.w3.org/2000/svg" xmlns:xlink="http://www.w3.org/1999/xlink" x="0px" y="0px" width="48px"
	 height="48px" viewBox="0 0 48 48" style="enable-background:new 0 0 48 48;" xml:space="preserve">
<g id="archive">
</g>
<g id="programming">
	<g>
		<linearGradient id="SVGID_1_" gradientUnits="userSpaceOnUse" x1="24" y1="0.5" x2="24" y2="47.259">
			<stop  offset="0" style="stop-color:#8E1B45"/>
			<stop  offset="1" style="stop-color:#BE3926"/>
		</linearGradient>
		<path style="fill:url(#SVGID_1_);" d="M43,44c0,2.2-1.8,4-4,4H9c-2.2,0-4-1.8-4-4L5,4c0-2.2,1.8-4,4-4h23.1c2.2,3.1,8,9,10.9,11
			V44z"/>
		<g>
			<linearGradient id="SVGID_2_" gradientUnits="userSpaceOnUse" x1="38.1406" y1="2.5543" x2="38.1406" y2="19.3591">
				<stop  offset="0" style="stop-color:#8E1B45"/>
				<stop  offset="1" style="stop-color:#BE3926;stop-opacity:0"/>
			</linearGradient>
			<path style="fill:url(#SVGID_2_);" d="M43,11c-2.3-1.6-6.3-5.5-9-8.6l-0.8,7.5l9.7,9.7V11z"/>
		</g>
		<linearGradient id="SVGID_3_" gradientUnits="userSpaceOnUse" x1="37.5" y1="0.1146" x2="37.5" y2="10.8302">
			<stop  offset="0" style="stop-color:#8E1B45"/>
			<stop  offset="1" style="stop-color:#BE3926"/>
		</linearGradient>
		<path style="fill:url(#SVGID_3_);" d="M43,11h-7c-2.2,0-4-1.8-4-4V0L43,11z"/>
		<g>
			<linearGradient id="SVGID_4_" gradientUnits="userSpaceOnUse" x1="31.5" y1="19.3021" x2="31.5" y2="47.5523">
				<stop  offset="0" style="stop-color:#8E1B45"/>
				<stop  offset="1" style="stop-color:#BE3926;stop-opacity:0"/>
			</linearGradient>
			<path style="fill:url(#SVGID_4_);" d="M28,19l-1.8,4.1L22.2,19l-0.9,4l-0.5-1.3L20,30l18,18h1c2.2,0,4-1.8,4-4V34L28,19z"/>
		</g>
		<linearGradient id="SVGID_5_" gradientUnits="userSpaceOnUse" x1="24" y1="22.0833" x2="24" y2="35.6792">
			<stop  offset="4.888515e-003" style="stop-color:#FFFFFF"/>
			<stop  offset="1" style="stop-color:#F37230"/>
		</linearGradient>
		<path style="fill:url(#SVGID_5_);" d="M28,30V19h-2.1v4.5h-3.7V19H20v11h2.1v-4.6h3.7V30H28z"/>
	</g>
</g>
<g id="documents">
</g>
<g id="images">
</g>
<g id="video">
</g>
<g id="audio">
</g>
</svg>
