<?xml version="1.0" encoding="iso-8859-1"?>
<!-- Generator: Adobe Illustrator 17.0.0, SVG Export Plug-In . SVG Version: 6.00 Build 0)  -->
<!DOCTYPE svg PUBLIC "-//W3C//DTD SVG 1.1//EN" "http://www.w3.org/Graphics/SVG/1.1/DTD/svg11.dtd">
<svg version="1.1" xmlns="http://www.w3.org/2000/svg" xmlns:xlink="http://www.w3.org/1999/xlink" x="0px" y="0px" width="48px"
	 height="48px" viewBox="0 0 48 48" style="enable-background:new 0 0 48 48;" xml:space="preserve">
<g id="archive">
</g>
<g id="programming">
	<g>
		<linearGradient id="SVGID_1_" gradientUnits="userSpaceOnUse" x1="24" y1="0.5" x2="24" y2="47.259">
			<stop  offset="7.196800e-013" style="stop-color:#207068"/>
			<stop  offset="1" style="stop-color:#549A7D"/>
		</linearGradient>
		<path style="fill:url(#SVGID_1_);" d="M43,44c0,2.2-1.8,4-4,4H9c-2.2,0-4-1.8-4-4V4c0-2.2,1.8-4,4-4h23.1c2.2,3.1,8,9,10.9,11V44z
			"/>
		<g>
			<linearGradient id="SVGID_2_" gradientUnits="userSpaceOnUse" x1="33.2812" y1="11.0153" x2="43" y2="11.0153">
				<stop  offset="7.196800e-013" style="stop-color:#207068"/>
				<stop  offset="1" style="stop-color:#549A7D;stop-opacity:0"/>
			</linearGradient>
			<path style="opacity:0.9;fill:url(#SVGID_2_);" d="M43,11c-2.3-1.6-6.3-5.5-9-8.6l-0.8,7.5l9.7,9.7V11z"/>
		</g>
		<linearGradient id="SVGID_3_" gradientUnits="userSpaceOnUse" x1="37.5" y1="0.1146" x2="37.5" y2="10.8302">
			<stop  offset="7.196800e-013" style="stop-color:#207068"/>
			<stop  offset="1" style="stop-color:#549A7D"/>
		</linearGradient>
		<path style="fill:url(#SVGID_3_);" d="M43,11h-7c-2.2,0-4-1.8-4-4l0.1-7L43,11z"/>
		<g>
			<linearGradient id="SVGID_4_" gradientUnits="userSpaceOnUse" x1="26" y1="20.2917" x2="26" y2="47.5011">
				<stop  offset="7.196800e-013" style="stop-color:#207068"/>
				<stop  offset="1" style="stop-color:#549A7D;stop-opacity:0"/>
			</linearGradient>
			<path style="opacity:0.9;fill:url(#SVGID_4_);" d="M33.8,20l-0.6,2.2L31,20l-0.8,3h-0.7h-1.8l-3-3l-0.6,2.2L22,20l-2.5,1
				l-0.1,0.9l-1.2-1.2l-1.7,0.8L15,20l-1.3,3.2L10.6,20l-1.6,3.1L9.9,24L9,29l19,19h11c2.2,0,4-1.8,4-4V29.2L33.8,20z"/>
		</g>
		<g>
			<g>
				<linearGradient id="SVGID_5_" gradientUnits="userSpaceOnUse" x1="23.5" y1="19.8125" x2="23.5" y2="30.4382">
					<stop  offset="4.888515e-003" style="stop-color:#FFFFFF"/>
					<stop  offset="0.994" style="stop-color:#9DD3AC"/>
				</linearGradient>
				<path style="fill:url(#SVGID_5_);" d="M13.4,23.7h-2.8V20H9v9h1.6v-3.8h2.8V29H15v-9h-1.6V23.7z M16,21.6h2.2V29h1.6v-7.4H22V20
					h-6V21.6z M27,24.9L24.7,20H23v9h1.7v-5.2l1.7,3.4h1.2l1.7-3.4V29H31v-9h-1.7L27,24.9z M33.8,27.4V20H32v9h6v-1.6H33.8z"/>
			</g>
		</g>
	</g>
</g>
<g id="documents">
</g>
<g id="images">
</g>
<g id="video">
</g>
<g id="audio">
</g>
</svg>
