<?xml version="1.0" encoding="iso-8859-1"?>
<!-- Generator: Adobe Illustrator 17.0.0, SVG Export Plug-In . SVG Version: 6.00 Build 0)  -->
<!DOCTYPE svg PUBLIC "-//W3C//DTD SVG 1.1//EN" "http://www.w3.org/Graphics/SVG/1.1/DTD/svg11.dtd">
<svg version="1.1" xmlns="http://www.w3.org/2000/svg" xmlns:xlink="http://www.w3.org/1999/xlink" x="0px" y="0px" width="48px"
	 height="48px" viewBox="0 0 48 48" style="enable-background:new 0 0 48 48;" xml:space="preserve">
<g id="archive">
	<g>
		<linearGradient id="SVGID_1_" gradientUnits="userSpaceOnUse" x1="24" y1="47.0625" x2="24" y2="0.291">
			<stop  offset="5.879654e-002" style="stop-color:#ABB8B5"/>
			<stop  offset="0.9929" style="stop-color:#5D6E6B"/>
		</linearGradient>
		<path style="fill:url(#SVGID_1_);" d="M43,44c0,2.2-1.8,4-4,4H9c-2.2,0-4-1.8-4-4V4c0-2.2,1.8-4,4-4h23.1c2.2,3.1,8,9,10.9,11V44z
			"/>
		<g>
			<linearGradient id="SVGID_2_" gradientUnits="userSpaceOnUse" x1="38.1406" y1="19.3038" x2="38.1406" y2="2.4945">
				<stop  offset="0" style="stop-color:#ABB8B5;stop-opacity:0"/>
				<stop  offset="0.9929" style="stop-color:#5D6E6B"/>
			</linearGradient>
			<path style="opacity:0.6;fill:url(#SVGID_2_);" d="M43,11c-2.3-1.6-6.3-5.5-9-8.6l-0.8,7.5l9.7,9.7V11z"/>
		</g>
		<linearGradient id="SVGID_3_" gradientUnits="userSpaceOnUse" x1="37.5" y1="10.7852" x2="37.5" y2="6.669673e-002">
			<stop  offset="5.879654e-002" style="stop-color:#ABB8B5"/>
			<stop  offset="0.9929" style="stop-color:#5D6E6B"/>
		</linearGradient>
		<path style="fill:url(#SVGID_3_);" d="M43,11h-7c-2.2,0-4-1.8-4-4l0.1-7L43,11z"/>
		<g>
			<linearGradient id="SVGID_4_" gradientUnits="userSpaceOnUse" x1="28.0075" y1="47.436" x2="28.0075" y2="19.2978">
				<stop  offset="0" style="stop-color:#ABB8B5;stop-opacity:0"/>
				<stop  offset="0.9929" style="stop-color:#5D6E6B"/>
			</linearGradient>
			<path style="opacity:0.6;fill:url(#SVGID_4_);" d="M31.9,20.3l-5.6,1.1l0.1,1.6l-2.8-2.8l-5.5,0.3l0.2,2L15,19.1l-1,0.8L13,30
				l18,18h8c2.2,0,4-1.8,4-4V31.4L31.9,20.3z"/>
		</g>
		<g>
			<g>
				<linearGradient id="SVGID_5_" gradientUnits="userSpaceOnUse" x1="23.0075" y1="20.4" x2="23.0075" y2="32.043">
					<stop  offset="4.888515e-003" style="stop-color:#FFFFFF"/>
					<stop  offset="1" style="stop-color:#D4D4D4"/>
				</linearGradient>
				<path style="fill:url(#SVGID_5_);" d="M13,30h2V19h-2V30z M21.1,23.6l-1.3-0.2c-0.4-0.1-0.8-0.2-1-0.4c-0.2-0.2-0.3-0.5-0.3-0.8
					c0-0.7,0.5-1.4,1.7-1.4c0.7,0,1.5,0.1,2.2,0.7l1.3-1.3c-0.9-0.9-2-1.3-3.5-1.3c-2.4,0-3.8,1.4-3.8,3.3c0,0.9,0.3,1.6,0.8,2.1
					c0.5,0.5,1.2,0.8,2.1,0.9l1.3,0.2c0.5,0.1,0.7,0.2,1,0.4c0.2,0.2,0.3,0.5,0.3,0.9c0,0.9-0.7,1.3-1.9,1.3c-1,0-1.9-0.2-2.6-0.9
					L16,28.6c1.1,1.1,2.3,1.4,4,1.4c2.3,0,4-1.2,4-3.3c0-1-0.3-1.7-0.8-2.3C22.7,24,22.1,23.7,21.1,23.6z M31.9,20.2
					C31.2,19.4,30.2,19,29,19c-1.2,0-2.2,0.4-2.9,1.2C25,21.3,25,22.6,25,24.5c0,1.9,0,3.2,1.1,4.3c0.8,0.8,1.7,1.2,2.9,1.2
					c1.2,0,2.1-0.4,2.9-1.2c1.1-1.1,1.1-2.4,1.1-4.3C33,22.6,33,21.3,31.9,20.2z M30.4,27.5c-0.3,0.3-0.8,0.6-1.3,0.6
					c-0.6,0-1.1-0.2-1.4-0.6c-0.4-0.5-0.5-1-0.5-3c0-2.1,0.1-2.6,0.5-3c0.3-0.3,0.8-0.6,1.4-0.6c0.6,0,1,0.2,1.3,0.6
					c0.4,0.5,0.5,1,0.5,3C30.9,26.6,30.8,27.1,30.4,27.5z"/>
			</g>
		</g>
	</g>
</g>
<g id="programming">
</g>
<g id="documents">
</g>
<g id="images">
</g>
<g id="video">
</g>
<g id="audio">
</g>
</svg>
