<?xml version="1.0" encoding="iso-8859-1"?>
<!-- Generator: Adobe Illustrator 17.0.0, SVG Export Plug-In . SVG Version: 6.00 Build 0)  -->
<!DOCTYPE svg PUBLIC "-//W3C//DTD SVG 1.1//EN" "http://www.w3.org/Graphics/SVG/1.1/DTD/svg11.dtd">
<svg version="1.1" xmlns="http://www.w3.org/2000/svg" xmlns:xlink="http://www.w3.org/1999/xlink" x="0px" y="0px" width="48px"
	 height="48px" viewBox="0 0 48 48" style="enable-background:new 0 0 48 48;" xml:space="preserve">
<g id="archive">
</g>
<g id="programming">
	<g>
		<linearGradient id="SVGID_1_" gradientUnits="userSpaceOnUse" x1="24" y1="0.5" x2="24" y2="47.259">
			<stop  offset="7.196800e-013" style="stop-color:#7E1416"/>
			<stop  offset="1" style="stop-color:#F05522"/>
		</linearGradient>
		<path style="fill:url(#SVGID_1_);" d="M43,44c0,2.2-1.8,4-4,4H9c-2.2,0-4-1.8-4-4V4c0-2.2,1.8-4,4-4h23.1c2.2,3.1,8,9,10.9,11V44z
			"/>
		<g>
			<path style="opacity:0.7;fill:#FFFFFF;" d="M43,11c-2.3-1.6-6.3-5.5-9-8.6l-0.8,7.5l9.7,9.7V11z"/>
		</g>
		<linearGradient id="SVGID_2_" gradientUnits="userSpaceOnUse" x1="37.5" y1="0.1146" x2="37.5" y2="10.8302">
			<stop  offset="7.196800e-013" style="stop-color:#7E1416"/>
			<stop  offset="1" style="stop-color:#F05522"/>
		</linearGradient>
		<path style="fill:url(#SVGID_2_);" d="M43,11h-7c-2.2,0-4-1.8-4-4l0.1-7L43,11z"/>
		<g>
			<linearGradient id="SVGID_3_" gradientUnits="userSpaceOnUse" x1="26.7752" y1="20.2917" x2="26.7752" y2="47.5677">
				<stop  offset="7.196800e-013" style="stop-color:#7E1416"/>
				<stop  offset="1" style="stop-color:#F47B20;stop-opacity:0"/>
			</linearGradient>
			<path style="opacity:0.7;fill:url(#SVGID_3_);" d="M43,44V29.3L33.7,20l-1,2.7L30,20l-1.5,3.8L24.7,20l0.7,4.9l-4.8-4.8L19.1,24
				l-3.9-3.9l-1.5,7.6l-3.1,1L29.9,48H39C41.2,48,43,46.2,43,44z"/>
		</g>
		<g>
			<g>
				<linearGradient id="SVGID_4_" gradientUnits="userSpaceOnUse" x1="23.5" y1="20.25" x2="23.5" y2="28.7734">
					<stop  offset="4.888515e-003" style="stop-color:#FFFFFF"/>
					<stop  offset="1" style="stop-color:#F9AF6F"/>
				</linearGradient>
				<path style="fill-rule:evenodd;clip-rule:evenodd;fill:url(#SVGID_4_);" d="M13.4,25.9c0,1-0.5,1.5-1.3,1.5
					c-0.5,0-0.8-0.2-1-0.5L10,28.1c0.6,0.7,1.2,0.9,2.1,0.9c1.5,0,2.9-1,2.9-3v-6h-1.6V25.9z M19.3,20L16,29h1.8l0.5-1.6h3.2
					l0.5,1.6H24l-3.3-9H19.3z M18.9,25.9l1.1-3.3l1.1,3.3H18.9z M28.2,20l-1.7,5.9L24.8,20H23l2.9,9h1.3l2.9-9H28.2z M33.7,20h-1.4
					L29,29h1.8l0.5-1.6h3.2l0.5,1.6H37L33.7,20z M31.9,25.9l1.1-3.3l1.1,3.3H31.9z"/>
			</g>
		</g>
	</g>
</g>
<g id="documents">
</g>
<g id="images">
</g>
<g id="video">
</g>
<g id="audio">
</g>
</svg>
