<?xml version="1.0" encoding="iso-8859-1"?>
<!-- Generator: Adobe Illustrator 17.0.0, SVG Export Plug-In . SVG Version: 6.00 Build 0)  -->
<!DOCTYPE svg PUBLIC "-//W3C//DTD SVG 1.1//EN" "http://www.w3.org/Graphics/SVG/1.1/DTD/svg11.dtd">
<svg version="1.1" xmlns="http://www.w3.org/2000/svg" xmlns:xlink="http://www.w3.org/1999/xlink" x="0px" y="0px" width="48px"
	 height="48px" viewBox="0 0 48 48" style="enable-background:new 0 0 48 48;" xml:space="preserve">
<g id="archive">
</g>
<g id="programming">
</g>
<g id="documents">
	<linearGradient id="SVGID_1_" gradientUnits="userSpaceOnUse" x1="24" y1="0.5" x2="24" y2="47.259">
		<stop  offset="1.247532e-002" style="stop-color:#574144"/>
		<stop  offset="0.9962" style="stop-color:#64A392"/>
	</linearGradient>
	<path style="fill:url(#SVGID_1_);" d="M43,44c0,2.2-1.8,4-4,4H9c-2.2,0-4-1.8-4-4V4c0-2.2,1.8-4,4-4h23.1c2.2,3.1,8,9,10.9,11V44z"
		/>
	<linearGradient id="SVGID_2_" gradientUnits="userSpaceOnUse" x1="38.1406" y1="5.125" x2="38.1406" y2="17.6306">
		<stop  offset="1.247532e-002" style="stop-color:#574144"/>
		<stop  offset="0.9962" style="stop-color:#64A392;stop-opacity:0"/>
	</linearGradient>
	<path style="opacity:0.6;fill:url(#SVGID_2_);" d="M43,11c-2.3-1.6-6.3-5.5-9-8.6l-0.8,7.5l9.7,9.7V11z"/>
	<linearGradient id="SVGID_3_" gradientUnits="userSpaceOnUse" x1="37.5" y1="0.1146" x2="37.5" y2="10.8302">
		<stop  offset="1.247532e-002" style="stop-color:#574144"/>
		<stop  offset="0.9962" style="stop-color:#64A392"/>
	</linearGradient>
	<path style="fill:url(#SVGID_3_);" d="M43,11h-7c-2.2,0-4-1.8-4-4l0.1-7L43,11z"/>
	<linearGradient id="SVGID_4_" gradientUnits="userSpaceOnUse" x1="27.0252" y1="18.3125" x2="27.0252" y2="47.5369">
		<stop  offset="1.247532e-002" style="stop-color:#574144"/>
		<stop  offset="0.9962" style="stop-color:#64A392;stop-opacity:0"/>
	</linearGradient>
	<path style="opacity:0.6;fill:url(#SVGID_4_);" d="M37,18l-2.3,3.4L31.2,18l-0.3,3L28,18l-5.8,1.6l0.1,0.9L19.7,18l-3.3,3.1
		L16.3,21l-0.1,0l-3-3l-1.7,3l0.3,0.3L11.1,29l19,19H39c2.2,0,4-1.8,4-4V24L37,18z"/>
	<g>
		<g>
			
				<linearGradient id="SVGID_5_" gradientUnits="userSpaceOnUse" x1="24" y1="6.5833" x2="24" y2="23.4463" gradientTransform="matrix(1 0 0 1 0 10)">
				<stop  offset="4.888515e-003" style="stop-color:#FFFFFF"/>
				<stop  offset="1" style="stop-color:#9AD5C4"/>
			</linearGradient>
			<path style="fill:url(#SVGID_5_);" d="M19.7,18h-2.6l-3.9,4.8V18H11v11h2.2v-3.3l1.4-1.7l2.9,5H20l-4-6.6L19.7,18z M21,29h7v-1.9
				h-4.9v-2.7h4.2v-1.9h-4.2v-2.6H28V18h-7V29z M34.9,18L33,22.4L31.1,18H29l3,6.5V29h2v-4.5l3-6.5H34.9z"/>
		</g>
	</g>
</g>
<g id="images">
</g>
<g id="video">
</g>
<g id="audio">
</g>
</svg>
