<?xml version="1.0" encoding="iso-8859-1"?>
<!-- Generator: Adobe Illustrator 17.0.0, SVG Export Plug-In . SVG Version: 6.00 Build 0)  -->
<!DOCTYPE svg PUBLIC "-//W3C//DTD SVG 1.1//EN" "http://www.w3.org/Graphics/SVG/1.1/DTD/svg11.dtd">
<svg version="1.1" xmlns="http://www.w3.org/2000/svg" xmlns:xlink="http://www.w3.org/1999/xlink" x="0px" y="0px" width="48px"
	 height="48px" viewBox="0 0 48 48" style="enable-background:new 0 0 48 48;" xml:space="preserve">
<g id="archive">
</g>
<g id="programming">
</g>
<g id="documents">
</g>
<g id="images">
</g>
<g id="video">
</g>
<g id="audio">
	<linearGradient id="SVGID_1_" gradientUnits="userSpaceOnUse" x1="24" y1="0.5" x2="24" y2="47.259">
		<stop  offset="0" style="stop-color:#C3471B"/>
		<stop  offset="0.9945" style="stop-color:#F59D65"/>
	</linearGradient>
	<path style="fill:url(#SVGID_1_);" d="M43,44c0,2.2-1.8,4-4,4H9c-2.2,0-4-1.8-4-4V4c0-2.2,1.8-4,4-4h23.1c2.2,3.1,8,9,10.9,11V44z"
		/>
	<g>
		<linearGradient id="SVGID_2_" gradientUnits="userSpaceOnUse" x1="38.1406" y1="5.125" x2="38.1406" y2="17.6306">
			<stop  offset="5.346566e-003" style="stop-color:#D34D27"/>
			<stop  offset="1" style="stop-color:#D88725;stop-opacity:0"/>
		</linearGradient>
		<path style="opacity:0.9;fill:url(#SVGID_2_);" d="M43,11c-2.3-1.6-6.3-5.5-9-8.6l-0.8,7.5l9.7,9.7V11z"/>
	</g>
	<linearGradient id="SVGID_3_" gradientUnits="userSpaceOnUse" x1="37.5" y1="0.1146" x2="37.5" y2="10.8302">
		<stop  offset="0" style="stop-color:#C3471B"/>
		<stop  offset="0.9945" style="stop-color:#F59D65"/>
	</linearGradient>
	<path style="fill:url(#SVGID_3_);" d="M43,11h-7c-2.2,0-4-1.8-4-4l0.1-7L43,11z"/>
	<g>
		<linearGradient id="SVGID_4_" gradientUnits="userSpaceOnUse" x1="27.7324" y1="18.3125" x2="27.7324" y2="47.5369">
			<stop  offset="5.346566e-003" style="stop-color:#D34D27"/>
			<stop  offset="1" style="stop-color:#D88725;stop-opacity:0"/>
		</linearGradient>
		<path style="opacity:0.9;fill:url(#SVGID_4_);" d="M35.1,19l-6.7,0.4l0.5,1.2L26.5,18l-1.7,2.5l-2.3-2.3l-3.3,4.6l-4.6-4.6
			l-1.3,2.6L12.5,29l19,19H39c2.2,0,4-1.8,4-4V26.8L35.1,19z"/>
	</g>
	<g>
		<g>
			<linearGradient id="SVGID_5_" gradientUnits="userSpaceOnUse" x1="24.0593" y1="16" x2="24.0593" y2="31.6702">
				<stop  offset="4.888515e-003" style="stop-color:#FFFFFF"/>
				<stop  offset="1" style="stop-color:#FCD288"/>
			</linearGradient>
			<path style="fill:url(#SVGID_5_);" d="M17.1,23.9L14.2,18h-2.1v11h2.2v-6.4l2.1,4.2h1.5l2.1-4.2V29h2.2V18H20L17.1,23.9z
				 M24.1,29h2V18h-2V29z M34.9,19.1C34.2,18.3,33.2,18,32,18h-3.9v11H32c1.1,0,2.1-0.3,2.9-1.1c1.2-1.2,1.1-2.8,1.1-4.5
				C36,21.8,36.1,20.3,34.9,19.1z M33.4,26.4c-0.4,0.4-0.9,0.7-1.6,0.7h-1.6v-7.2h1.6c0.7,0,1.2,0.2,1.6,0.7
				c0.4,0.5,0.5,1.2,0.5,2.9C33.9,25.1,33.8,25.9,33.4,26.4z"/>
		</g>
	</g>
</g>
</svg>
