<?xml version="1.0" encoding="iso-8859-1"?>
<!-- Generator: Adobe Illustrator 17.0.0, SVG Export Plug-In . SVG Version: 6.00 Build 0)  -->
<!DOCTYPE svg PUBLIC "-//W3C//DTD SVG 1.1//EN" "http://www.w3.org/Graphics/SVG/1.1/DTD/svg11.dtd">
<svg version="1.1" xmlns="http://www.w3.org/2000/svg" xmlns:xlink="http://www.w3.org/1999/xlink" x="0px" y="0px" width="48px"
	 height="48px" viewBox="0 0 48 48" style="enable-background:new 0 0 48 48;" xml:space="preserve">
<g id="archive">
</g>
<g id="programming">
</g>
<g id="documents">
</g>
<g id="images">
</g>
<g id="video">
	<linearGradient id="SVGID_1_" gradientUnits="userSpaceOnUse" x1="24" y1="0.5" x2="24" y2="47.259">
		<stop  offset="7.196800e-013" style="stop-color:#02597C"/>
		<stop  offset="1" style="stop-color:#7FA2B3"/>
	</linearGradient>
	<path style="fill:url(#SVGID_1_);" d="M43,44c0,2.2-1.8,4-4,4H9c-2.2,0-4-1.8-4-4V4c0-2.2,1.8-4,4-4h23.1c2.2,3.1,8,9,10.9,11V44z"
		/>
	<g>
		<linearGradient id="SVGID_2_" gradientUnits="userSpaceOnUse" x1="38.1406" y1="5.125" x2="38.1406" y2="17.6306">
			<stop  offset="0" style="stop-color:#004546"/>
			<stop  offset="1" style="stop-color:#005F70;stop-opacity:0"/>
		</linearGradient>
		<path style="opacity:0.6;fill:url(#SVGID_2_);" d="M43,11c-2.3-1.6-6.3-5.5-9-8.6l-0.8,7.5l9.7,9.7V11z"/>
	</g>
	<linearGradient id="SVGID_3_" gradientUnits="userSpaceOnUse" x1="37.5" y1="0.1146" x2="37.5" y2="10.8302">
		<stop  offset="7.196800e-013" style="stop-color:#02597C"/>
		<stop  offset="1" style="stop-color:#7FA2B3"/>
	</linearGradient>
	<path style="fill:url(#SVGID_3_);" d="M43,11h-7c-2.2,0-4-1.8-4-4l0.1-7L43,11z"/>
	<g>
		<linearGradient id="SVGID_4_" gradientUnits="userSpaceOnUse" x1="26" y1="18.3125" x2="26" y2="47.5369">
			<stop  offset="0" style="stop-color:#004546"/>
			<stop  offset="1" style="stop-color:#005F70;stop-opacity:0"/>
		</linearGradient>
		<path style="opacity:0.6;fill:url(#SVGID_4_);" d="M39,18l-2.4,3.6l-0.3,0.5L32.2,18l1,6.6l-6-6l-5.2,1v1.6L18.9,18l-2.8,4.3
			l-0.2,0.3L14.2,21l-0.1,0l-3-3l-0.5,2.8l-0.8-0.1L9,29l19,19h11c2.2,0,4-1.8,4-4V22L39,18z"/>
	</g>
	<g>
		<g>
			<linearGradient id="SVGID_5_" gradientUnits="userSpaceOnUse" x1="24" y1="19.8333" x2="24" y2="31.9267">
				<stop  offset="4.888515e-003" style="stop-color:#FFFFFF"/>
				<stop  offset="1" style="stop-color:#A7DEF3"/>
			</linearGradient>
			<path style="fill:url(#SVGID_5_);" d="M14,23.9L11.1,18H9v11h2.2v-6.4l2.1,4.2h1.5l2.1-4.2V29H19V18h-2.1L14,23.9z M25,18
				c-1.2,0-2.2,0.4-2.9,1.2C21,20.3,21,21.6,21,23.5c0,1.9,0,3.2,1.1,4.3c0.8,0.8,1.7,1.2,2.9,1.2c1.2,0,2.1-0.4,2.9-1.2
				c1.1-1.1,1.1-2.4,1.1-4.3c0-1.9,0-3.2-1.1-4.3C27.2,18.4,26.2,18,25,18z M26.4,26.5c-0.3,0.3-0.8,0.6-1.3,0.6
				c-0.6,0-1.1-0.2-1.4-0.6c-0.4-0.5-0.5-1-0.5-3c0-2.1,0.1-2.6,0.5-3c0.3-0.3,0.8-0.6,1.4-0.6c0.6,0,1,0.2,1.3,0.6
				c0.4,0.5,0.5,1,0.5,3C26.9,25.6,26.8,26.1,26.4,26.5z M36.7,18l-2.2,7.2L32.3,18H30l3.7,11h1.6L39,18H36.7z"/>
		</g>
	</g>
</g>
<g id="audio">
</g>
</svg>
