<?xml version="1.0" encoding="iso-8859-1"?>
<!-- Generator: Adobe Illustrator 17.0.0, SVG Export Plug-In . SVG Version: 6.00 Build 0)  -->
<!DOCTYPE svg PUBLIC "-//W3C//DTD SVG 1.1//EN" "http://www.w3.org/Graphics/SVG/1.1/DTD/svg11.dtd">
<svg version="1.1" xmlns="http://www.w3.org/2000/svg" xmlns:xlink="http://www.w3.org/1999/xlink" x="0px" y="0px" width="48px"
	 height="48px" viewBox="0 0 48 48" style="enable-background:new 0 0 48 48;" xml:space="preserve">
<g id="archive">
</g>
<g id="programming">
</g>
<g id="documents">
	<linearGradient id="SVGID_1_" gradientUnits="userSpaceOnUse" x1="24" y1="0.5" x2="24" y2="47.259">
		<stop  offset="1.247532e-002" style="stop-color:#5A183B"/>
		<stop  offset="1" style="stop-color:#A96284"/>
	</linearGradient>
	<path style="fill:url(#SVGID_1_);" d="M43,44c0,2.2-1.8,4-4,4H9c-2.2,0-4-1.8-4-4V4c0-2.2,1.8-4,4-4h23.1c2.2,3.1,8,9,10.9,11V44z"
		/>
	<linearGradient id="SVGID_2_" gradientUnits="userSpaceOnUse" x1="38.1406" y1="5.125" x2="38.1406" y2="17.6306">
		<stop  offset="1.247532e-002" style="stop-color:#5A183B"/>
		<stop  offset="1" style="stop-color:#A96284;stop-opacity:0"/>
	</linearGradient>
	<path style="opacity:0.5;fill:url(#SVGID_2_);" d="M43,11c-2.3-1.6-6.3-5.5-9-8.6l-0.8,7.5l9.7,9.7V11z"/>
	<linearGradient id="SVGID_3_" gradientUnits="userSpaceOnUse" x1="37.5" y1="0.1146" x2="37.5" y2="10.8302">
		<stop  offset="1.247532e-002" style="stop-color:#5A183B"/>
		<stop  offset="1" style="stop-color:#A96284"/>
	</linearGradient>
	<path style="fill:url(#SVGID_3_);" d="M43,11h-7c-2.2,0-4-1.8-4-4l0.1-7L43,11z"/>
	<linearGradient id="SVGID_4_" gradientUnits="userSpaceOnUse" x1="27.1546" y1="18.7403" x2="27.1546" y2="47.5435">
		<stop  offset="1.247532e-002" style="stop-color:#5A183B"/>
		<stop  offset="1" style="stop-color:#A96284;stop-opacity:0"/>
	</linearGradient>
	<path style="opacity:0.5;fill:url(#SVGID_4_);" d="M36.6,18.8l-4.4-0.3L31.7,24l-5.2-5.2L22,18.4l-0.5,5.4l-4.7-4.7l-4.4-0.3
		l-0.1,0.9l-0.1,0l-0.8,8.3L31.4,48H39c2.2,0,4-1.8,4-4V25.2L36.6,18.8z"/>
	<g>
		<g>
			
				<linearGradient id="SVGID_5_" gradientUnits="userSpaceOnUse" x1="24.0151" y1="7" x2="24.0151" y2="20.9397" gradientTransform="matrix(1 0 0 1 0 10)">
				<stop  offset="4.888515e-003" style="stop-color:#FFFFFF"/>
				<stop  offset="1" style="stop-color:#F59696"/>
			</linearGradient>
			<path style="fill:url(#SVGID_5_);" d="M14,18c-1.2,0-2.2,0.4-2.9,1.2C10,20.3,10,21.6,10,23.5c0,1.9,0,3.2,1.1,4.3
				c0.8,0.8,1.7,1.2,2.9,1.2c1.2,0,2.1-0.4,2.9-1.2c1.1-1.1,1.1-2.4,1.1-4.3c0-1.9,0-3.2-1.1-4.3C16.2,18.4,15.2,18,14,18z
				 M15.4,26.5c-0.3,0.3-0.8,0.6-1.3,0.6c-0.6,0-1.1-0.2-1.4-0.6c-0.4-0.5-0.5-1-0.5-3c0-2.1,0.1-2.6,0.5-3c0.3-0.3,0.8-0.6,1.4-0.6
				c0.6,0,1,0.2,1.3,0.6c0.4,0.5,0.5,1,0.5,3C15.9,25.6,15.8,26.1,15.4,26.5z M26.8,19.1C26.1,18.3,25,18,23.9,18H20v11h3.9
				c1.1,0,2.1-0.3,2.9-1.1c1.2-1.2,1.1-2.8,1.1-4.5C27.9,21.8,28,20.3,26.8,19.1z M25.3,26.4c-0.4,0.4-0.9,0.7-1.6,0.7h-1.6v-7.2
				h1.6c0.7,0,1.2,0.2,1.6,0.7c0.4,0.5,0.5,1.2,0.5,2.9C25.8,25.1,25.7,25.9,25.3,26.4z M34.3,18H30v11h2.2v-4.1h2.1
				c2.3,0,3.7-1.6,3.7-3.4C38,19.6,36.6,18,34.3,18z M34.2,22.9h-2v-3h2c1,0,1.6,0.6,1.6,1.5C35.8,22.3,35.2,22.9,34.2,22.9z"/>
		</g>
	</g>
</g>
<g id="images">
</g>
<g id="video">
</g>
<g id="audio">
</g>
</svg>
