<?xml version="1.0" encoding="iso-8859-1"?>
<!-- Generator: Adobe Illustrator 17.0.0, SVG Export Plug-In . SVG Version: 6.00 Build 0)  -->
<!DOCTYPE svg PUBLIC "-//W3C//DTD SVG 1.1//EN" "http://www.w3.org/Graphics/SVG/1.1/DTD/svg11.dtd">
<svg version="1.1" xmlns="http://www.w3.org/2000/svg" xmlns:xlink="http://www.w3.org/1999/xlink" x="0px" y="0px" width="48px"
	 height="48px" viewBox="0 0 48 48" style="enable-background:new 0 0 48 48;" xml:space="preserve">
<g id="archive">
</g>
<g id="programming">
</g>
<g id="documents">
	<linearGradient id="SVGID_1_" gradientUnits="userSpaceOnUse" x1="24" y1="0.5" x2="24" y2="47.259">
		<stop  offset="1.795354e-002" style="stop-color:#3D5F2D"/>
		<stop  offset="0.9934" style="stop-color:#96A339"/>
	</linearGradient>
	<path style="fill:url(#SVGID_1_);" d="M43,44c0,2.2-1.8,4-4,4H9c-2.2,0-4-1.8-4-4V4c0-2.2,1.8-4,4-4h23.1c2.2,3.1,8,9,10.9,11V44z"
		/>
	<g>
		<linearGradient id="SVGID_2_" gradientUnits="userSpaceOnUse" x1="38.1406" y1="5.125" x2="38.1406" y2="17.6306">
			<stop  offset="0" style="stop-color:#919A38"/>
			<stop  offset="0.9962" style="stop-color:#D6D21C;stop-opacity:0"/>
		</linearGradient>
		<path style="opacity:0.8;fill:url(#SVGID_2_);" d="M43,11c-2.3-1.6-6.3-5.5-9-8.6l-0.8,7.5l9.7,9.7V11z"/>
	</g>
	<linearGradient id="SVGID_3_" gradientUnits="userSpaceOnUse" x1="37.5" y1="0.1146" x2="37.5" y2="10.8302">
		<stop  offset="1.795354e-002" style="stop-color:#3D5F2D"/>
		<stop  offset="0.9934" style="stop-color:#96A339"/>
	</linearGradient>
	<path style="fill:url(#SVGID_3_);" d="M43,11h-7c-2.2,0-4-1.8-4-4l0.1-7L43,11z"/>
	<g>
		<linearGradient id="SVGID_4_" gradientUnits="userSpaceOnUse" x1="27.744" y1="18.3302" x2="27.744" y2="47.5371">
			<stop  offset="0" style="stop-color:#919A38"/>
			<stop  offset="0.9962" style="stop-color:#D6D21C;stop-opacity:0"/>
		</linearGradient>
		<path style="opacity:0.8;fill:url(#SVGID_4_);" d="M36.6,19.2l-5.4,0.2L31,20.8L28,18l-8,2l4,4l0,1l-6-5.8l-4.7,0.4l-0.8,8.3
			L32.5,48H39c2.2,0,4-1.8,4-4V25.6L36.6,19.2z"/>
	</g>
	<g>
		<g>
			<linearGradient id="SVGID_5_" gradientUnits="userSpaceOnUse" x1="24.0226" y1="17" x2="24.0226" y2="32.438">
				<stop  offset="4.888515e-003" style="stop-color:#FFFFFF"/>
				<stop  offset="1" style="stop-color:#E4EDB5"/>
			</linearGradient>
			<path style="fill:url(#SVGID_5_);" d="M20,20h3v9h2v-9h3v-2h-8V20z M15,18c-1.2,0-2.2,0.4-2.9,1.2C11,20.3,11,21.6,11,23.5
				c0,1.9,0,3.2,1.1,4.3c0.8,0.8,1.7,1.2,2.9,1.2c1.2,0,2.1-0.4,2.9-1.2c1.1-1.1,1.1-2.4,1.1-4.3c0-1.9,0-3.2-1.1-4.3
				C17.2,18.4,16.2,18,15,18z M16.4,26.5c-0.3,0.3-0.8,0.6-1.3,0.6c-0.6,0-1.1-0.2-1.4-0.6c-0.4-0.5-0.5-1-0.5-3
				c0-2.1,0.1-2.6,0.5-3c0.3-0.3,0.8-0.6,1.4-0.6c0.6,0,1,0.2,1.3,0.6c0.4,0.5,0.5,1,0.5,3C16.9,25.6,16.8,26.1,16.4,26.5z
				 M36.2,23.4c-0.5-0.4-1.1-0.7-2.1-0.8l-1.3-0.2c-0.4-0.1-0.8-0.2-1-0.4c-0.2-0.2-0.3-0.5-0.3-0.8c0-0.7,0.5-1.4,1.7-1.4
				c0.7,0,1.5,0.1,2.2,0.7l1.3-1.3c-0.9-0.9-2-1.3-3.5-1.3c-2.4,0-3.8,1.4-3.8,3.3c0,0.9,0.3,1.6,0.8,2.1c0.5,0.5,1.2,0.8,2.1,0.9
				l1.3,0.2c0.5,0.1,0.7,0.2,1,0.4c0.2,0.2,0.3,0.5,0.3,0.9c0,0.9-0.7,1.3-1.9,1.3c-1,0-1.9-0.2-2.6-0.9L29,27.6
				c1.1,1.1,2.3,1.4,4,1.4c2.3,0,4-1.2,4-3.3C37,24.8,36.7,24,36.2,23.4z"/>
		</g>
	</g>
</g>
<g id="images">
</g>
<g id="video">
</g>
<g id="audio">
</g>
</svg>
