<?xml version="1.0" encoding="iso-8859-1"?>
<!-- Generator: Adobe Illustrator 17.0.0, SVG Export Plug-In . SVG Version: 6.00 Build 0)  -->
<!DOCTYPE svg PUBLIC "-//W3C//DTD SVG 1.1//EN" "http://www.w3.org/Graphics/SVG/1.1/DTD/svg11.dtd">
<svg version="1.1" xmlns="http://www.w3.org/2000/svg" xmlns:xlink="http://www.w3.org/1999/xlink" x="0px" y="0px" width="48px"
	 height="48px" viewBox="0 0 48 48" style="enable-background:new 0 0 48 48;" xml:space="preserve">
<g id="archive">
</g>
<g id="programming">
</g>
<g id="documents">
	<linearGradient id="SVGID_1_" gradientUnits="userSpaceOnUse" x1="24" y1="0.5" x2="24" y2="47.259">
		<stop  offset="7.196800e-013" style="stop-color:#CF2128"/>
		<stop  offset="1" style="stop-color:#F04F66"/>
	</linearGradient>
	<path style="fill:url(#SVGID_1_);" d="M43,44c0,2.2-1.8,4-4,4H9c-2.2,0-4-1.8-4-4V4c0-2.2,1.8-4,4-4h23.1c2.2,3.1,8,9,10.9,11V44z"
		/>
	<linearGradient id="SVGID_2_" gradientUnits="userSpaceOnUse" x1="38.1406" y1="5.125" x2="38.1406" y2="17.6306">
		<stop  offset="7.196800e-013" style="stop-color:#A81B1F"/>
		<stop  offset="1" style="stop-color:#F15F37;stop-opacity:0"/>
	</linearGradient>
	<path style="opacity:0.7;fill:url(#SVGID_2_);" d="M43,11c-2.3-1.6-6.3-5.5-9-8.6l-0.8,7.5l9.7,9.7V11z"/>
	<linearGradient id="SVGID_3_" gradientUnits="userSpaceOnUse" x1="37.5" y1="0.1146" x2="37.5" y2="10.8302">
		<stop  offset="7.196800e-013" style="stop-color:#CF2128"/>
		<stop  offset="1" style="stop-color:#F04F66"/>
	</linearGradient>
	<path style="fill:url(#SVGID_3_);" d="M43,11h-7c-2.2,0-4-1.8-4-4l0.1-7L43,11z"/>
	<linearGradient id="SVGID_4_" gradientUnits="userSpaceOnUse" x1="27" y1="18.3125" x2="27" y2="47.5369">
		<stop  offset="7.196800e-013" style="stop-color:#A81B1F"/>
		<stop  offset="1" style="stop-color:#F15F37;stop-opacity:0"/>
	</linearGradient>
	<path style="opacity:0.7;fill:url(#SVGID_4_);" d="M32.8,18.5v5.5L27.7,19l-4.4-0.3l-0.5,5.2l-5.2-5.2l-4.4-0.3l-0.2,2.4l-1.1-0.1
		L11,28.9L30.1,48H39c2.2,0,4-1.8,4-4V23l-5-5L32.8,18.5z"/>
	<g>
		<g>
			<linearGradient id="SVGID_5_" gradientUnits="userSpaceOnUse" x1="24.5" y1="17.0833" x2="24.5" y2="33.2218">
				<stop  offset="4.888515e-003" style="stop-color:#FFFFFF"/>
				<stop  offset="1" style="stop-color:#F2705E"/>
			</linearGradient>
			<path style="fill:url(#SVGID_5_);" d="M15.3,18H11v11h2.2v-4.1h2.1c2.3,0,3.7-1.6,3.7-3.4C19,19.6,17.6,18,15.3,18z M15.2,22.9
				h-2v-3h2c1,0,1.6,0.6,1.6,1.5C16.8,22.3,16.2,22.9,15.2,22.9z M27.8,19.1C27.1,18.3,26,18,24.9,18H21v11h3.9
				c1.1,0,2.1-0.3,2.9-1.1c1.2-1.2,1.1-2.8,1.1-4.5C28.9,21.8,29,20.3,27.8,19.1z M26.3,26.4c-0.4,0.4-0.9,0.7-1.6,0.7h-1.6v-7.2
				h1.6c0.7,0,1.2,0.2,1.6,0.7c0.4,0.5,0.5,1.2,0.5,2.9C26.8,25.1,26.7,25.9,26.3,26.4z M38,19.9V18h-7v11h2.1v-4.5h4.2v-1.9h-4.2
				v-2.7H38z"/>
		</g>
	</g>
</g>
<g id="images">
</g>
<g id="video">
</g>
<g id="audio">
</g>
</svg>
