<?xml version="1.0" encoding="iso-8859-1"?>
<!-- Generator: Adobe Illustrator 17.0.0, SVG Export Plug-In . SVG Version: 6.00 Build 0)  -->
<!DOCTYPE svg PUBLIC "-//W3C//DTD SVG 1.1//EN" "http://www.w3.org/Graphics/SVG/1.1/DTD/svg11.dtd">
<svg version="1.1" xmlns="http://www.w3.org/2000/svg" xmlns:xlink="http://www.w3.org/1999/xlink" x="0px" y="0px" width="48px"
	 height="48px" viewBox="0 0 48 48" style="enable-background:new 0 0 48 48;" xml:space="preserve">
<g id="archive">
</g>
<g id="programming">
</g>
<g id="documents">
</g>
<g id="images">
	<linearGradient id="SVGID_1_" gradientUnits="userSpaceOnUse" x1="24" y1="0.5" x2="24" y2="47.2536">
		<stop  offset="7.196800e-013" style="stop-color:#492D89"/>
		<stop  offset="1" style="stop-color:#F5866D"/>
	</linearGradient>
	<path style="fill:url(#SVGID_1_);" d="M43,44c0,2.2-1.8,4-4,4H9c-2.2,0-4-1.8-4-4V4c0-2.2,1.8-4,4-4h23.1c2.2,3.1,8,9,10.9,11V44z"
		/>
	<linearGradient id="SVGID_2_" gradientUnits="userSpaceOnUse" x1="38.1406" y1="5.125" x2="38.1406" y2="17.6306">
		<stop  offset="1.247532e-002" style="stop-color:#5A183B"/>
		<stop  offset="1" style="stop-color:#A96284;stop-opacity:0"/>
	</linearGradient>
	<path style="opacity:0.5;fill:url(#SVGID_2_);" d="M43,11c-2.3-1.6-6.3-5.5-9-8.6l-0.8,7.5l9.7,9.7V11z"/>
	<linearGradient id="SVGID_3_" gradientUnits="userSpaceOnUse" x1="37.5" y1="0.1146" x2="37.5" y2="10.8302">
		<stop  offset="7.196800e-013" style="stop-color:#492D89"/>
		<stop  offset="1" style="stop-color:#F5866D"/>
	</linearGradient>
	<path style="fill:url(#SVGID_3_);" d="M43,11h-7c-2.2,0-4-1.8-4-4l0.1-7L43,11z"/>
	<linearGradient id="SVGID_4_" gradientUnits="userSpaceOnUse" x1="26.5" y1="18.3472" x2="26.5" y2="47.5341">
		<stop  offset="1.247532e-002" style="stop-color:#5A183B"/>
		<stop  offset="1" style="stop-color:#A96284;stop-opacity:0"/>
	</linearGradient>
	<path style="opacity:0.5;fill:url(#SVGID_4_);" d="M32,19.2l-1.3,1.6L28,18l-1,7l-6.1-3.3l0.3,1.5l-4.6-4.6l-4.4-0.3l-0.2,2.2
		l-1.1-0.1L10,28.8L29.3,48H39c2.2,0,4-1.8,4-4V25.4l-6.5-6.5L32,19.2z"/>
	<g>
		<g>
			<linearGradient id="SVGID_5_" gradientUnits="userSpaceOnUse" x1="24" y1="15.8333" x2="24" y2="34.5067">
				<stop  offset="4.888515e-003" style="stop-color:#FFFFFF"/>
				<stop  offset="1" style="stop-color:#F9AA8A"/>
			</linearGradient>
			<path style="fill:url(#SVGID_5_);" d="M14.3,18H10v11h2.2v-4.1h2.1c2.3,0,3.7-1.6,3.7-3.4C18,19.6,16.6,18,14.3,18z M14.2,22.9
				h-2v-3h2c1,0,1.6,0.6,1.6,1.5C15.8,22.3,15.2,22.9,14.2,22.9z M26,24.7L21.8,18H20v11h2v-6.8l4.1,6.8H28V18h-2V24.7z M33.9,22.9
				v1.8h2v0.4c0,0.6-0.2,1.1-0.5,1.4c-0.4,0.4-0.9,0.6-1.5,0.6c-0.6,0-1-0.2-1.3-0.6c-0.4-0.5-0.5-0.9-0.5-3.1c0-2.1,0.1-2.5,0.5-3
				c0.3-0.4,0.8-0.6,1.3-0.6c1,0,1.7,0.5,1.9,1.6H38c-0.3-1.9-1.6-3.5-4-3.5c-1.1,0-2.1,0.4-2.9,1.2c-0.5,0.5-0.8,1-0.9,1.6
				c-0.1,0.6-0.2,1.5-0.2,2.7c0,1.2,0.1,2.1,0.2,2.7c0.1,0.6,0.4,1.2,0.9,1.6c0.8,0.8,1.7,1.2,2.9,1.2c1.2,0,2.2-0.4,3-1.2
				c0.7-0.8,1-1.7,1-3.3v-1.6H33.9z"/>
		</g>
	</g>
</g>
<g id="video">
</g>
<g id="audio">
</g>
</svg>
