<?xml version="1.0" encoding="iso-8859-1"?>
<!-- Generator: Adobe Illustrator 17.0.0, SVG Export Plug-In . SVG Version: 6.00 Build 0)  -->
<!DOCTYPE svg PUBLIC "-//W3C//DTD SVG 1.1//EN" "http://www.w3.org/Graphics/SVG/1.1/DTD/svg11.dtd">
<svg version="1.1" xmlns="http://www.w3.org/2000/svg" xmlns:xlink="http://www.w3.org/1999/xlink" x="0px" y="0px" width="48px"
	 height="48px" viewBox="0 0 48 48" style="enable-background:new 0 0 48 48;" xml:space="preserve">
<g id="archive">
</g>
<g id="programming">
</g>
<g id="documents">
	<linearGradient id="SVGID_1_" gradientUnits="userSpaceOnUse" x1="24" y1="0.5" x2="24" y2="47.259">
		<stop  offset="1.782189e-003" style="stop-color:#BF4223"/>
		<stop  offset="0.9962" style="stop-color:#F78F3B"/>
	</linearGradient>
	<path style="fill:url(#SVGID_1_);" d="M43,44c0,2.2-1.8,4-4,4H9c-2.2,0-4-1.8-4-4V4c0-2.2,1.8-4,4-4h23.1c2.2,3.1,8,9,10.9,11V44z"
		/>
	<linearGradient id="SVGID_2_" gradientUnits="userSpaceOnUse" x1="38.1406" y1="5.125" x2="38.1406" y2="17.6306">
		<stop  offset="1.782189e-003" style="stop-color:#BF4223"/>
		<stop  offset="0.9962" style="stop-color:#F78F3B;stop-opacity:0"/>
	</linearGradient>
	<path style="opacity:0.8;fill:url(#SVGID_2_);" d="M43,11c-2.3-1.6-6.3-5.5-9-8.6l-0.8,7.5l9.7,9.7V11z"/>
	<linearGradient id="SVGID_3_" gradientUnits="userSpaceOnUse" x1="37.5" y1="0.1146" x2="37.5" y2="10.8302">
		<stop  offset="1.782189e-003" style="stop-color:#BF4223"/>
		<stop  offset="0.9962" style="stop-color:#F78F3B"/>
	</linearGradient>
	<path style="fill:url(#SVGID_3_);" d="M43,11h-7c-2.2,0-4-1.8-4-4l0.1-7L43,11z"/>
	<linearGradient id="SVGID_4_" gradientUnits="userSpaceOnUse" x1="27" y1="18.346" x2="27" y2="47.5374">
		<stop  offset="1.782189e-003" style="stop-color:#BF4223"/>
		<stop  offset="0.9962" style="stop-color:#F78F3B;stop-opacity:0"/>
	</linearGradient>
	<path style="opacity:0.8;fill:url(#SVGID_4_);" d="M34.2,19.5l-1.1-1.1L30,19.9l3.2,3.2l-0.2,0.9l-5.4-5.4l-4.4-0.3l-0.5,5.4
		l-5.1-5.1l-4.4-0.3L13,20.7l-1.2-0.1L11,28.9L30.1,48H39c2.2,0,4-1.8,4-4V23l-5-5L34.2,19.5z"/>
	<g>
		<g>
			
				<linearGradient id="SVGID_5_" gradientUnits="userSpaceOnUse" x1="24.5" y1="7.1667" x2="24.5" y2="21.2589" gradientTransform="matrix(1 0 0 1 0 10)">
				<stop  offset="4.888515e-003" style="stop-color:#FFFFFF"/>
				<stop  offset="1" style="stop-color:#F8A46C"/>
			</linearGradient>
			<path style="fill:url(#SVGID_5_);" d="M15.3,18H11v11h2.2v-4.1h2.1c2.3,0,3.7-1.6,3.7-3.4C19,19.6,17.6,18,15.3,18z M15.2,22.9
				h-2v-3h2c1,0,1.6,0.6,1.6,1.5C16.8,22.3,16.2,22.9,15.2,22.9z M25.3,18H21v11h2.2v-4.1h2.1c2.3,0,3.7-1.6,3.7-3.4
				C29,19.6,27.6,18,25.3,18z M25.2,22.9h-2v-3h2c1,0,1.6,0.6,1.6,1.5C26.8,22.3,26.2,22.9,25.2,22.9z M30,18v1.9h3V29h2v-9.1h3V18
				H30z"/>
		</g>
	</g>
</g>
<g id="images">
</g>
<g id="video">
</g>
<g id="audio">
</g>
</svg>
