<?xml version="1.0" encoding="iso-8859-1"?>
<!-- Generator: Adobe Illustrator 17.0.0, SVG Export Plug-In . SVG Version: 6.00 Build 0)  -->
<!DOCTYPE svg PUBLIC "-//W3C//DTD SVG 1.1//EN" "http://www.w3.org/Graphics/SVG/1.1/DTD/svg11.dtd">
<svg version="1.1" xmlns="http://www.w3.org/2000/svg" xmlns:xlink="http://www.w3.org/1999/xlink" x="0px" y="0px" width="48px"
	 height="48px" viewBox="0 0 48 48" style="enable-background:new 0 0 48 48;" xml:space="preserve">
<g id="archive">
</g>
<g id="programming">
	<g>
		<linearGradient id="SVGID_1_" gradientUnits="userSpaceOnUse" x1="24" y1="0.5" x2="24" y2="47.259">
			<stop  offset="0" style="stop-color:#217345"/>
			<stop  offset="1" style="stop-color:#5F9251"/>
		</linearGradient>
		<path style="fill:url(#SVGID_1_);" d="M43,44c0,2.2-1.8,4-4,4H9c-2.2,0-4-1.8-4-4V4c0-2.2,1.8-4,4-4h23.1c2.2,3.1,8,9,10.9,11V44z
			"/>
		<g>
			<linearGradient id="SVGID_2_" gradientUnits="userSpaceOnUse" x1="38.1406" y1="2.5696" x2="38.1406" y2="19.3744">
				<stop  offset="0" style="stop-color:#217345"/>
				<stop  offset="1" style="stop-color:#5F9251;stop-opacity:0"/>
			</linearGradient>
			<path style="opacity:0.7;fill:url(#SVGID_2_);" d="M43,11c-2.3-1.6-6.3-5.5-9-8.6l-0.8,7.5l9.7,9.7V11z"/>
		</g>
		<linearGradient id="SVGID_3_" gradientUnits="userSpaceOnUse" x1="37.5" y1="0.1146" x2="37.5" y2="10.8302">
			<stop  offset="0" style="stop-color:#217345"/>
			<stop  offset="1" style="stop-color:#5F9251"/>
		</linearGradient>
		<path style="fill:url(#SVGID_3_);" d="M43,11h-7c-2.2,0-4-1.8-4-4l0.1-7L43,11z"/>
		<g>
			<linearGradient id="SVGID_4_" gradientUnits="userSpaceOnUse" x1="29.5407" y1="19.3021" x2="29.5407" y2="47.5523">
				<stop  offset="0" style="stop-color:#217345"/>
				<stop  offset="1" style="stop-color:#5F9251;stop-opacity:0"/>
			</linearGradient>
			<path style="opacity:0.7;fill:url(#SVGID_4_);" d="M43,44V29L33,19l-3.5,3.6L26.1,19l0.6,3.3l1.7,2.6l-0.4,0.3l-5.3-5.3l-4.5-0.1
				L16.1,30l18.2,18H39C41.2,48,43,46.2,43,44z"/>
		</g>
		<g>
			<g>
				<linearGradient id="SVGID_5_" gradientUnits="userSpaceOnUse" x1="24.5" y1="18.875" x2="24.5" y2="30.6678">
					<stop  offset="4.888515e-003" style="stop-color:#FFFFFF"/>
					<stop  offset="1" style="stop-color:#89C8B8"/>
				</linearGradient>
				<path style="fill:url(#SVGID_5_);" d="M20.3,19H16v11h2.2v-4.1h2.1c2.3,0,3.7-1.6,3.7-3.4C24,20.6,22.6,19,20.3,19z M20.2,23.9
					h-2v-3h2c1,0,1.6,0.6,1.6,1.5C21.8,23.3,21.2,23.9,20.2,23.9z M30.9,19L29,23.4L27.1,19H25l3,6.5V30h2v-4.5l3-6.5H30.9z"/>
			</g>
		</g>
	</g>
</g>
<g id="documents">
</g>
<g id="images">
</g>
<g id="video">
</g>
<g id="audio">
</g>
</svg>
