<?xml version="1.0" encoding="iso-8859-1"?>
<!-- Generator: Adobe Illustrator 17.0.0, SVG Export Plug-In . SVG Version: 6.00 Build 0)  -->
<!DOCTYPE svg PUBLIC "-//W3C//DTD SVG 1.1//EN" "http://www.w3.org/Graphics/SVG/1.1/DTD/svg11.dtd">
<svg version="1.1" xmlns="http://www.w3.org/2000/svg" xmlns:xlink="http://www.w3.org/1999/xlink" x="0px" y="0px" width="48px"
	 height="48px" viewBox="0 0 48 48" style="enable-background:new 0 0 48 48;" xml:space="preserve">
<g id="archive">
</g>
<g id="programming">
</g>
<g id="documents">
</g>
<g id="images">
</g>
<g id="video">
	<linearGradient id="SVGID_1_" gradientUnits="userSpaceOnUse" x1="24" y1="0.5" x2="24" y2="47.259">
		<stop  offset="0" style="stop-color:#0C184B"/>
		<stop  offset="1" style="stop-color:#487C93"/>
	</linearGradient>
	<path style="fill:url(#SVGID_1_);" d="M43,44c0,2.2-1.8,4-4,4H9c-2.2,0-4-1.8-4-4V4c0-2.2,1.8-4,4-4h23.1c2.2,3.1,8,9,10.9,11V44z"
		/>
	<g>
		<linearGradient id="SVGID_2_" gradientUnits="userSpaceOnUse" x1="38.1406" y1="5.125" x2="38.1406" y2="17.6306">
			<stop  offset="0" style="stop-color:#004546"/>
			<stop  offset="1" style="stop-color:#005F70;stop-opacity:0"/>
		</linearGradient>
		<path style="opacity:0.6;fill:url(#SVGID_2_);" d="M43,11c-2.3-1.6-6.3-5.5-9-8.6l-0.8,7.5l9.7,9.7V11z"/>
	</g>
	<linearGradient id="SVGID_3_" gradientUnits="userSpaceOnUse" x1="37.5" y1="0.1146" x2="37.5" y2="10.8302">
		<stop  offset="0" style="stop-color:#0C184B"/>
		<stop  offset="1" style="stop-color:#487C93"/>
	</linearGradient>
	<path style="fill:url(#SVGID_3_);" d="M43,11h-7c-2.2,0-4-1.8-4-4l0.1-7L43,11z"/>
	<g>
		<linearGradient id="SVGID_4_" gradientUnits="userSpaceOnUse" x1="30.1562" y1="18.373" x2="30.1562" y2="47.5378">
			<stop  offset="0" style="stop-color:#004546"/>
			<stop  offset="1" style="stop-color:#005F70;stop-opacity:0"/>
		</linearGradient>
		<path style="opacity:0.6;fill:url(#SVGID_4_);" d="M32.9,18.1l-4,0.5l-3.9,1.5l5.1,5.1l-0.7,0.1l-0.5,0.2l-6.6-6.6l-4,0.5
			l-0.8,8.3L37.7,48H39c2.2,0,4-1.8,4-4V28.2L32.9,18.1z"/>
	</g>
	<g>
		<g>
			<linearGradient id="SVGID_5_" gradientUnits="userSpaceOnUse" x1="24.4853" y1="20" x2="24.4853" y2="30.3133">
				<stop  offset="4.888515e-003" style="stop-color:#FFFFFF"/>
				<stop  offset="1" style="stop-color:#A7DEF3"/>
			</linearGradient>
			<path style="fill:url(#SVGID_5_);" d="M23.7,23.3c0-1.8,0-3.1-1-4.2C21.9,18.4,21,18,19.9,18c-1.2,0-2.1,0.4-2.8,1.1
				c-1.1,1.1-1,2.4-1,4.2c0,1.8,0,3.1,1,4.2c0.7,0.7,1.6,1.1,2.8,1.1c0.8,0,1.5-0.2,2.1-0.6l0.9,0.9l1.1-1.1L23.1,27
				C23.7,26.1,23.7,24.9,23.7,23.3z M21.5,25.4l-0.8-0.8l-1.1,1.1l0.9,0.9c-0.2,0.1-0.4,0.2-0.7,0.2c-0.6,0-1-0.2-1.3-0.6
				c-0.4-0.4-0.5-0.9-0.5-2.9s0.1-2.5,0.5-2.9c0.3-0.3,0.8-0.6,1.3-0.6s1,0.2,1.3,0.6c0.4,0.4,0.5,0.9,0.5,2.9
				C21.7,24.4,21.7,25,21.5,25.4z M25,18v2h3v9h2v-9h3v-2H25z"/>
		</g>
	</g>
</g>
<g id="audio">
</g>
</svg>
