<?xml version="1.0" encoding="iso-8859-1"?>
<!-- Generator: Adobe Illustrator 17.0.0, SVG Export Plug-In . SVG Version: 6.00 Build 0)  -->
<!DOCTYPE svg PUBLIC "-//W3C//DTD SVG 1.1//EN" "http://www.w3.org/Graphics/SVG/1.1/DTD/svg11.dtd">
<svg version="1.1" xmlns="http://www.w3.org/2000/svg" xmlns:xlink="http://www.w3.org/1999/xlink" x="0px" y="0px" width="48px"
	 height="48px" viewBox="0 0 48 48" style="enable-background:new 0 0 48 48;" xml:space="preserve">
<g id="archive">
	<g>
		<linearGradient id="SVGID_1_" gradientUnits="userSpaceOnUse" x1="24" y1="0.5" x2="24" y2="47.259">
			<stop  offset="4.009924e-003" style="stop-color:#583180"/>
			<stop  offset="1" style="stop-color:#3E71A7"/>
		</linearGradient>
		<path style="fill:url(#SVGID_1_);" d="M43,44c0,2.2-1.8,4-4,4H9c-2.2,0-4-1.8-4-4V4c0-2.2,1.8-4,4-4h23.1c2.2,3.1,8,9,10.9,11V44z
			"/>
		<g>
			<linearGradient id="SVGID_2_" gradientUnits="userSpaceOnUse" x1="38.1406" y1="2.5696" x2="38.1406" y2="19.3744">
				<stop  offset="4.009924e-003" style="stop-color:#583180"/>
				<stop  offset="1" style="stop-color:#3E71A7;stop-opacity:0"/>
			</linearGradient>
			<path style="opacity:0.5;fill:url(#SVGID_2_);" d="M43,11c-2.3-1.6-6.3-5.5-9-8.6l-0.8,7.5l9.7,9.7V11z"/>
		</g>
		<linearGradient id="SVGID_3_" gradientUnits="userSpaceOnUse" x1="37.5" y1="0.6667" x2="37.5" y2="10.5032">
			<stop  offset="4.009924e-003" style="stop-color:#583180"/>
			<stop  offset="1" style="stop-color:#3E71A7"/>
		</linearGradient>
		<path style="fill:url(#SVGID_3_);" d="M43,11h-7c-2.2,0-4-1.8-4-4l0.1-7L43,11z"/>
		<g>
			<linearGradient id="SVGID_4_" gradientUnits="userSpaceOnUse" x1="26.5" y1="19.3021" x2="26.5" y2="47.5523">
				<stop  offset="4.009924e-003" style="stop-color:#583180"/>
				<stop  offset="1" style="stop-color:#3E71A7;stop-opacity:0"/>
			</linearGradient>
			<path style="opacity:0.5;fill:url(#SVGID_4_);" d="M35.6,19.9L30,20.3l0.2,4.7l-6-6l-2.6,6l-5.4-5.4l-4.4-0.3l-0.2,2.4l-0.8-0.1
				L10,30l18,18h11c2.2,0,4-1.8,4-4V27.3L35.6,19.9z"/>
		</g>
		<g>
			<g>
				<linearGradient id="SVGID_5_" gradientUnits="userSpaceOnUse" x1="23.5" y1="19.75" x2="23.5" y2="30.1999">
					<stop  offset="4.888515e-003" style="stop-color:#FFFFFF"/>
					<stop  offset="1" style="stop-color:#91CCF0"/>
				</linearGradient>
				<path style="fill:url(#SVGID_5_);" d="M17.6,22.4c0-1.8-1.3-3.4-3.4-3.4H10v11h2.1v-4.4h1.5l2.1,4.4H18l-2.4-4.7
					C16.7,24.9,17.6,23.9,17.6,22.4z M14,23.8h-1.9v-2.9H14c0.9,0,1.5,0.6,1.5,1.5C15.5,23.2,14.9,23.8,14,23.8z M22.7,19L19,30h2.1
					l0.6-1.9h3.6l0.6,1.9H28l-3.7-11H22.7z M22.3,26.2l1.3-4l1.2,4H22.3z M34.6,25.3c1-0.4,1.9-1.3,1.9-2.9c0-1.8-1.3-3.4-3.4-3.4
					H29v11h2.1v-4.4h1.5l2.1,4.4H37L34.6,25.3z M33,23.8h-1.9v-2.9H33c0.9,0,1.5,0.6,1.5,1.5C34.5,23.2,33.9,23.8,33,23.8z"/>
			</g>
		</g>
	</g>
</g>
<g id="programming">
</g>
<g id="documents">
</g>
<g id="images">
</g>
<g id="video">
</g>
<g id="audio">
</g>
</svg>
