<?xml version="1.0" encoding="iso-8859-1"?>
<!-- Generator: Adobe Illustrator 17.0.0, SVG Export Plug-In . SVG Version: 6.00 Build 0)  -->
<!DOCTYPE svg PUBLIC "-//W3C//DTD SVG 1.1//EN" "http://www.w3.org/Graphics/SVG/1.1/DTD/svg11.dtd">
<svg version="1.1" xmlns="http://www.w3.org/2000/svg" xmlns:xlink="http://www.w3.org/1999/xlink" x="0px" y="0px" width="48px"
	 height="48px" viewBox="0 0 48 48" style="enable-background:new 0 0 48 48;" xml:space="preserve">
<g id="archive">
</g>
<g id="programming">
	<g>
		<linearGradient id="SVGID_1_" gradientUnits="userSpaceOnUse" x1="24" y1="0.5" x2="24" y2="47.259">
			<stop  offset="0" style="stop-color:#004546"/>
			<stop  offset="1" style="stop-color:#007480"/>
		</linearGradient>
		<path style="fill:url(#SVGID_1_);" d="M43,44c0,2.2-1.8,4-4,4H9c-2.2,0-4-1.8-4-4V4c0-2.2,1.8-4,4-4h23.1c2.2,3.1,8,9,10.9,11V44z
			"/>
		<g>
			<linearGradient id="SVGID_2_" gradientUnits="userSpaceOnUse" x1="38.1406" y1="2.5696" x2="38.1406" y2="19.3744">
				<stop  offset="0" style="stop-color:#004546"/>
				<stop  offset="1" style="stop-color:#005F70;stop-opacity:0"/>
			</linearGradient>
			<path style="opacity:0.6;fill:url(#SVGID_2_);" d="M43,11c-2.3-1.6-6.3-5.5-9-8.6l-0.8,7.5l9.7,9.7V11z"/>
		</g>
		<linearGradient id="SVGID_3_" gradientUnits="userSpaceOnUse" x1="37.5" y1="0.1146" x2="37.5" y2="10.8302">
			<stop  offset="0" style="stop-color:#004546"/>
			<stop  offset="1" style="stop-color:#007480"/>
		</linearGradient>
		<path style="fill:url(#SVGID_3_);" d="M43,11h-7c-2.2,0-4-1.8-4-4l0.1-7L43,11z"/>
		<g>
			<linearGradient id="SVGID_4_" gradientUnits="userSpaceOnUse" x1="29.5" y1="20.1314" x2="29.5" y2="47.5652">
				<stop  offset="0" style="stop-color:#004546"/>
				<stop  offset="1" style="stop-color:#005F70;stop-opacity:0"/>
			</linearGradient>
			<path style="opacity:0.6;fill:url(#SVGID_4_);" d="M31.3,19.8l-5.6,0.1l-0.4,3.5l-3.5-3.5l-4.9,0L16,30l18,18h5c2.2,0,4-1.8,4-4
				V31.5L31.3,19.8z"/>
		</g>
		<g>
			<g>
				<linearGradient id="SVGID_5_" gradientUnits="userSpaceOnUse" x1="24.1449" y1="20.125" x2="24.1449" y2="32.3943">
					<stop  offset="4.888515e-003" style="stop-color:#FFFFFF"/>
					<stop  offset="1" style="stop-color:#A7DEF3"/>
				</linearGradient>
				<path style="fill-rule:evenodd;clip-rule:evenodd;fill:url(#SVGID_5_);" d="M22.9,22.3c0-1.8-1.2-3.3-3.1-3.3H16v10.9h1.9v-4.4
					h1.4l1.9,4.4h2.2l-2.2-4.7C22.1,24.8,22.9,23.9,22.9,22.3z M19.7,23.8h-1.8v-2.9h1.8c0.8,0,1.4,0.6,1.4,1.4
					C21,23.2,20.5,23.8,19.7,23.8z M30.9,24.3c0.5-0.3,1.2-1,1.2-2.3c0-1.9-1.1-3.1-3.1-3.1h-4v10.9h4.2c1.8,0,3.1-1.1,3.1-3.1
					C32.3,25.3,31.5,24.6,30.9,24.3z M27,20.9h1.9c0.8,0,1.3,0.5,1.3,1.3c0,0.8-0.5,1.3-1.3,1.3H27V20.9z M29,28h-2v-2.7h2
					c0.9,0,1.3,0.6,1.3,1.3C30.3,27.4,29.9,28,29,28z"/>
			</g>
		</g>
	</g>
</g>
<g id="documents">
</g>
<g id="images">
</g>
<g id="video">
</g>
<g id="audio">
</g>
</svg>
