<?xml version="1.0" encoding="iso-8859-1"?>
<!-- Generator: Adobe Illustrator 17.0.0, SVG Export Plug-In . SVG Version: 6.00 Build 0)  -->
<!DOCTYPE svg PUBLIC "-//W3C//DTD SVG 1.1//EN" "http://www.w3.org/Graphics/SVG/1.1/DTD/svg11.dtd">
<svg version="1.1" xmlns="http://www.w3.org/2000/svg" xmlns:xlink="http://www.w3.org/1999/xlink" x="0px" y="0px" width="48px"
	 height="48px" viewBox="0 0 48 48" style="enable-background:new 0 0 48 48;" xml:space="preserve">
<g id="archive">
</g>
<g id="programming">
</g>
<g id="documents">
</g>
<g id="images">
	<linearGradient id="SVGID_1_" gradientUnits="userSpaceOnUse" x1="24" y1="0.5" x2="24" y2="47.259">
		<stop  offset="7.196800e-013" style="stop-color:#924622"/>
		<stop  offset="1" style="stop-color:#FFCC32"/>
	</linearGradient>
	<path style="fill:url(#SVGID_1_);" d="M43,44c0,2.2-1.8,4-4,4H9c-2.2,0-4-1.8-4-4V4c0-2.2,1.8-4,4-4h23.1c2.2,3.1,8,9,10.9,11V44z"
		/>
	<linearGradient id="SVGID_2_" gradientUnits="userSpaceOnUse" x1="38.1406" y1="5.125" x2="38.1406" y2="17.6306">
		<stop  offset="1.782189e-003" style="stop-color:#BF4223"/>
		<stop  offset="0.9962" style="stop-color:#F78F3B;stop-opacity:0"/>
	</linearGradient>
	<path style="opacity:0.8;fill:url(#SVGID_2_);" d="M43,11c-2.3-1.6-6.3-5.5-9-8.6l-0.8,7.5l9.7,9.7V11z"/>
	<linearGradient id="SVGID_3_" gradientUnits="userSpaceOnUse" x1="37.5" y1="0.1146" x2="37.5" y2="10.8302">
		<stop  offset="7.196800e-013" style="stop-color:#924622"/>
		<stop  offset="1" style="stop-color:#FFCC32"/>
	</linearGradient>
	<path style="fill:url(#SVGID_3_);" d="M43,11h-7c-2.2,0-4-1.8-4-4l0.1-7L43,11z"/>
	<linearGradient id="SVGID_4_" gradientUnits="userSpaceOnUse" x1="27.0827" y1="18.4268" x2="27.0827" y2="47.5387">
		<stop  offset="1.782189e-003" style="stop-color:#BF4223"/>
		<stop  offset="0.9962" style="stop-color:#F78F3B;stop-opacity:0"/>
	</linearGradient>
	<path style="opacity:0.8;fill:url(#SVGID_4_);" d="M34.2,18.1l-1.7,4.5l-0.8,1.5l-5.1-5.1l-5.2,0.6l0,1L19,18.1l-4,2.5L13,18.7
		L11.2,20l3.4,3.4L14,29l19,19h6c2.2,0,4-1.8,4-4V26.9L34.2,18.1z"/>
	<g>
		<g>
			<linearGradient id="SVGID_5_" gradientUnits="userSpaceOnUse" x1="24.5" y1="16.3333" x2="24.5" y2="31.8656">
				<stop  offset="4.888515e-003" style="stop-color:#FFFFFF"/>
				<stop  offset="0.9765" style="stop-color:#E6D48E"/>
			</linearGradient>
			<path style="fill:url(#SVGID_5_);" d="M11,19.9h2.9V29h2.2v-9.1H19V18h-8V19.9z M23.9,24.7h2v0.4c0,0.6-0.2,1.1-0.5,1.4
				c-0.4,0.4-0.9,0.6-1.5,0.6c-0.6,0-1-0.2-1.3-0.6c-0.4-0.5-0.5-0.9-0.5-3.1c0-2.1,0.1-2.5,0.5-3c0.3-0.4,0.8-0.6,1.3-0.6
				c1,0,1.7,0.5,1.9,1.6H28c-0.3-1.9-1.6-3.5-4-3.5c-1.1,0-2.1,0.4-2.9,1.2c-0.5,0.5-0.8,1-0.9,1.6c-0.1,0.6-0.2,1.5-0.2,2.7
				c0,1.2,0.1,2.1,0.2,2.7c0.1,0.6,0.4,1.2,0.9,1.6c0.8,0.8,1.7,1.2,2.9,1.2c1.2,0,2.2-0.4,3-1.2c0.7-0.8,1-1.7,1-3.3v-1.6h-4.1
				V24.7z M34.3,18h-1.6L29,29h2.1l0.6-1.9h3.6l0.6,1.9H38L34.3,18z M32.3,25.2l1.3-4l1.2,4H32.3z"/>
		</g>
	</g>
</g>
<g id="video">
</g>
<g id="audio">
</g>
</svg>
