<?xml version="1.0" encoding="iso-8859-1"?>
<!-- Generator: Adobe Illustrator 17.0.0, SVG Export Plug-In . SVG Version: 6.00 Build 0)  -->
<!DOCTYPE svg PUBLIC "-//W3C//DTD SVG 1.1//EN" "http://www.w3.org/Graphics/SVG/1.1/DTD/svg11.dtd">
<svg version="1.1" xmlns="http://www.w3.org/2000/svg" xmlns:xlink="http://www.w3.org/1999/xlink" x="0px" y="0px" width="48px"
	 height="48px" viewBox="0 0 48 48" style="enable-background:new 0 0 48 48;" xml:space="preserve">
<g id="archive">
	<g>
		<linearGradient id="SVGID_1_" gradientUnits="userSpaceOnUse" x1="24" y1="46.5" x2="24" y2="-0.2715">
			<stop  offset="0" style="stop-color:#D3833E"/>
			<stop  offset="0.996" style="stop-color:#A17256"/>
		</linearGradient>
		<path style="fill:url(#SVGID_1_);" d="M43,44c0,2.2-1.8,4-4,4H9c-2.2,0-4-1.8-4-4V4c0-2.2,1.8-4,4-4h23.1c2.2,3.1,8,9,10.9,11V44z
			"/>
		<g>
			<linearGradient id="SVGID_2_" gradientUnits="userSpaceOnUse" x1="38.1406" y1="18.7083" x2="38.1406" y2="3.8286">
				<stop  offset="0" style="stop-color:#D3833E;stop-opacity:0"/>
				<stop  offset="0.996" style="stop-color:#A17256"/>
			</linearGradient>
			<path style="opacity:0.6;fill:url(#SVGID_2_);" d="M43,11c-2.3-1.6-6.3-5.5-9-8.6l-0.8,7.5l9.7,9.7V11z"/>
		</g>
		<linearGradient id="SVGID_3_" gradientUnits="userSpaceOnUse" x1="37.5" y1="10.5" x2="37.5" y2="0.654">
			<stop  offset="0" style="stop-color:#D3833E"/>
			<stop  offset="0.996" style="stop-color:#A17256"/>
		</linearGradient>
		<path style="fill:url(#SVGID_3_);" d="M43,11h-7c-2.2,0-4-1.8-4-4l0.1-7L43,11z"/>
		<g>
			<linearGradient id="SVGID_4_" gradientUnits="userSpaceOnUse" x1="27" y1="47.0945" x2="27" y2="18.8612">
				<stop  offset="0" style="stop-color:#D3833E;stop-opacity:0"/>
				<stop  offset="0.996" style="stop-color:#A17256"/>
			</linearGradient>
			<path style="opacity:0.6;fill:url(#SVGID_4_);" d="M36,19l-6.8,1.9l3.6,3.6l-0.4,1.3L26.6,20l-3.2-0.7l-2.1,2.1L19,19l-3.7,0.2
				l0,0.3L11,20.9l3.5,3.6L14,30l17.9,18H39c1.3,0,4-0.9,4-4.5V26L36,19z"/>
		</g>
		<g>
			<g>
				<linearGradient id="SVGID_5_" gradientUnits="userSpaceOnUse" x1="23.5" y1="20.6" x2="23.5" y2="30.4082">
					<stop  offset="4.888515e-003" style="stop-color:#FFFFFF"/>
					<stop  offset="1" style="stop-color:#E6D5B8"/>
				</linearGradient>
				<path style="fill:url(#SVGID_5_);" d="M11,20.9h3V30h2v-9.1h3V19h-8V20.9z M23.9,25.7h2v0.4c0,0.6-0.2,1.1-0.5,1.4
					c-0.4,0.4-0.9,0.6-1.5,0.6c-0.6,0-1-0.2-1.3-0.6c-0.4-0.5-0.5-0.9-0.5-3.1c0-2.1,0.1-2.5,0.5-3c0.3-0.4,0.8-0.6,1.3-0.6
					c1,0,1.7,0.5,1.9,1.6H28c-0.3-1.9-1.6-3.5-4-3.5c-1.1,0-2.1,0.4-2.9,1.2c-0.5,0.5-0.8,1-0.9,1.6c-0.1,0.6-0.2,1.5-0.2,2.7
					c0,1.2,0.1,2.1,0.2,2.7c0.1,0.6,0.4,1.2,0.9,1.6c0.8,0.8,1.7,1.2,2.9,1.2c1.2,0,2.2-0.4,3-1.2c0.7-0.8,1-1.7,1-3.3v-1.6h-4.1
					V25.7z M36,19h-6.8v1.9h4.4L29,28.3V30h7v-1.9h-4.6l4.6-7.4V19z"/>
			</g>
		</g>
	</g>
</g>
<g id="programming">
</g>
<g id="documents">
</g>
<g id="images">
</g>
<g id="video">
</g>
<g id="audio">
</g>
</svg>
