<?xml version="1.0" encoding="iso-8859-1"?>
<!-- Generator: Adobe Illustrator 17.0.0, SVG Export Plug-In . SVG Version: 6.00 Build 0)  -->
<!DOCTYPE svg PUBLIC "-//W3C//DTD SVG 1.1//EN" "http://www.w3.org/Graphics/SVG/1.1/DTD/svg11.dtd">
<svg version="1.1" xmlns="http://www.w3.org/2000/svg" xmlns:xlink="http://www.w3.org/1999/xlink" x="0px" y="0px" width="48px"
	 height="48px" viewBox="0 0 48 48" style="enable-background:new 0 0 48 48;" xml:space="preserve">
<g id="archive">
</g>
<g id="programming">
</g>
<g id="documents">
</g>
<g id="images">
	<linearGradient id="SVGID_1_" gradientUnits="userSpaceOnUse" x1="24" y1="0.5" x2="24" y2="47.2536">
		<stop  offset="5.347177e-003" style="stop-color:#004C42"/>
		<stop  offset="1" style="stop-color:#9AB08F"/>
	</linearGradient>
	<path style="fill:url(#SVGID_1_);" d="M43,44c0,2.2-1.8,4-4,4H9c-2.2,0-4-1.8-4-4V4c0-2.2,1.8-4,4-4h23.1c2.2,3.1,8,9,10.9,11V44z"
		/>
	<linearGradient id="SVGID_2_" gradientUnits="userSpaceOnUse" x1="38.1406" y1="5.125" x2="38.1406" y2="17.6306">
		<stop  offset="1.247532e-002" style="stop-color:#574144"/>
		<stop  offset="0.9962" style="stop-color:#64A392;stop-opacity:0"/>
	</linearGradient>
	<path style="opacity:0.6;fill:url(#SVGID_2_);" d="M43,11c-2.3-1.6-6.3-5.5-9-8.6l-0.8,7.5l9.7,9.7V11z"/>
	<linearGradient id="SVGID_3_" gradientUnits="userSpaceOnUse" x1="37.5" y1="0.1146" x2="37.5" y2="10.8302">
		<stop  offset="5.347177e-003" style="stop-color:#29484B"/>
		<stop  offset="1" style="stop-color:#A4B49B"/>
	</linearGradient>
	<path style="fill:url(#SVGID_3_);" d="M43,11h-7c-2.2,0-4-1.8-4-4l0.1-7L43,11z"/>
	<linearGradient id="SVGID_4_" gradientUnits="userSpaceOnUse" x1="27" y1="20.3859" x2="27" y2="47.5661">
		<stop  offset="1.247532e-002" style="stop-color:#574144"/>
		<stop  offset="0.9962" style="stop-color:#64A392;stop-opacity:0"/>
	</linearGradient>
	<path style="opacity:0.6;fill:url(#SVGID_4_);" d="M37,20.1l-5,1.3l0.3,2L29,20.1l-5,1.3l0.3,2.2l-3.5-3.5l-1,2.9L17,20.1L14,20.7
		l0,0.1l-3,0.9l2.7,2.7L13.2,29l19,19H39c2.2,0,4-1.8,4-4V26.1L37,20.1z"/>
	<g>
		<g>
			<linearGradient id="SVGID_5_" gradientUnits="userSpaceOnUse" x1="24" y1="18.5" x2="24" y2="36.004">
				<stop  offset="4.888515e-003" style="stop-color:#FFFFFF"/>
				<stop  offset="1" style="stop-color:#CEEAE8"/>
			</linearGradient>
			<path style="fill:url(#SVGID_5_);" d="M11,21.6h2.2V29h1.6v-7.4H17V20h-6V21.6z M19,29h2v-9h-2V29z M23,29h1.8v-3.7h3.6v-1.6
				h-3.6v-2.2H29V20h-6V29z M37,21.6V20h-6v9h1.8v-3.7h3.6v-1.6h-3.6v-2.2H37z"/>
		</g>
	</g>
</g>
<g id="video">
</g>
<g id="audio">
</g>
</svg>
