<?xml version="1.0" encoding="iso-8859-1"?>
<!-- Generator: Adobe Illustrator 17.0.0, SVG Export Plug-In . SVG Version: 6.00 Build 0)  -->
<!DOCTYPE svg PUBLIC "-//W3C//DTD SVG 1.1//EN" "http://www.w3.org/Graphics/SVG/1.1/DTD/svg11.dtd">
<svg version="1.1" xmlns="http://www.w3.org/2000/svg" xmlns:xlink="http://www.w3.org/1999/xlink" x="0px" y="0px" width="48px"
	 height="48px" viewBox="0 0 48 48" style="enable-background:new 0 0 48 48;" xml:space="preserve">
<g id="archive">
</g>
<g id="programming">
</g>
<g id="documents">
	<linearGradient id="SVGID_1_" gradientUnits="userSpaceOnUse" x1="24" y1="0.5" x2="24" y2="47.259">
		<stop  offset="1.871298e-002" style="stop-color:#4F9341"/>
		<stop  offset="0.9934" style="stop-color:#9BC03C"/>
	</linearGradient>
	<path style="fill:url(#SVGID_1_);" d="M43,44c0,2.2-1.8,4-4,4H9c-2.2,0-4-1.8-4-4V4c0-2.2,1.8-4,4-4h23.1c2.2,3.1,8,9,10.9,11V44z"
		/>
	<g>
		<linearGradient id="SVGID_2_" gradientUnits="userSpaceOnUse" x1="38.1406" y1="5.125" x2="38.1406" y2="17.6306">
			<stop  offset="0" style="stop-color:#919A38"/>
			<stop  offset="0.9962" style="stop-color:#D6D21C;stop-opacity:0"/>
		</linearGradient>
		<path style="opacity:0.8;fill:url(#SVGID_2_);" d="M43,11c-2.3-1.6-6.3-5.5-9-8.6l-0.8,7.5l9.7,9.7V11z"/>
	</g>
	<linearGradient id="SVGID_3_" gradientUnits="userSpaceOnUse" x1="37.5" y1="0.1146" x2="37.5" y2="10.8302">
		<stop  offset="1.871298e-002" style="stop-color:#4F9341"/>
		<stop  offset="0.9934" style="stop-color:#9BC03C"/>
	</linearGradient>
	<path style="fill:url(#SVGID_3_);" d="M43,11h-7c-2.2,0-4-1.8-4-4l0.1-7L43,11z"/>
	<g>
		<linearGradient id="SVGID_4_" gradientUnits="userSpaceOnUse" x1="27" y1="18.3302" x2="27" y2="47.5371">
			<stop  offset="0" style="stop-color:#919A38"/>
			<stop  offset="0.9962" style="stop-color:#D6D21C;stop-opacity:0"/>
		</linearGradient>
		<path style="opacity:0.8;fill:url(#SVGID_4_);" d="M36.8,19.2h-5.1l-0.1-0.1l0,0.1h-0.8l0.4,0.6L29.8,23l5,5h-1.6L23.2,18
			l-1.7,1.6L19.8,18l-2.9,2.7l-0.1,0.3L13.7,18L13.1,20l2.6,2.6l-0.8,2.2L11,29l19,19h9c2.2,0,4-1.8,4-4V25.4L36.8,19.2z"/>
	</g>
	<g>
		<g>
			<linearGradient id="SVGID_5_" gradientUnits="userSpaceOnUse" x1="24" y1="15.9167" x2="24" y2="30.0797">
				<stop  offset="4.888515e-003" style="stop-color:#FFFFFF"/>
				<stop  offset="1" style="stop-color:#E4EDB5"/>
			</linearGradient>
			<path style="fill:url(#SVGID_5_);" d="M19.8,18h-2.4l-1.9,3.6L13.6,18h-2.4l3.1,5.4L11,29h2.4l2.1-3.8l2.1,3.8H20l-3.4-5.6
				L19.8,18z M23.1,18H21v11h7v-1.9h-4.9V18z M36.2,23.4c-0.5-0.4-1.1-0.7-2.1-0.8l-1.3-0.2c-0.4-0.1-0.8-0.2-1-0.4
				c-0.2-0.2-0.3-0.5-0.3-0.8c0-0.7,0.5-1.4,1.7-1.4c0.7,0,1.5,0.1,2.2,0.7l1.3-1.3c-0.9-0.9-2-1.3-3.5-1.3c-2.4,0-3.8,1.4-3.8,3.3
				c0,0.9,0.3,1.6,0.8,2.1c0.5,0.5,1.2,0.8,2.1,0.9l1.3,0.2c0.5,0.1,0.7,0.2,1,0.4c0.2,0.2,0.3,0.5,0.3,0.9c0,0.9-0.7,1.3-1.9,1.3
				c-1,0-1.9-0.2-2.6-0.9L29,27.6c1.1,1.1,2.3,1.4,4,1.4c2.3,0,4-1.2,4-3.3C37,24.8,36.7,24,36.2,23.4z"/>
		</g>
	</g>
</g>
<g id="images">
</g>
<g id="video">
</g>
<g id="audio">
</g>
</svg>
