<?xml version="1.0" encoding="iso-8859-1"?>
<!-- Generator: Adobe Illustrator 17.0.0, SVG Export Plug-In . SVG Version: 6.00 Build 0)  -->
<!DOCTYPE svg PUBLIC "-//W3C//DTD SVG 1.1//EN" "http://www.w3.org/Graphics/SVG/1.1/DTD/svg11.dtd">
<svg version="1.1" xmlns="http://www.w3.org/2000/svg" xmlns:xlink="http://www.w3.org/1999/xlink" x="0px" y="0px" width="48px"
	 height="48px" viewBox="0 0 48 48" style="enable-background:new 0 0 48 48;" xml:space="preserve">
<g id="archive">
</g>
<g id="programming">
</g>
<g id="documents">
	<linearGradient id="SVGID_1_" gradientUnits="userSpaceOnUse" x1="24" y1="0.5" x2="24" y2="47.259">
		<stop  offset="2.405955e-002" style="stop-color:#346E2E"/>
		<stop  offset="0.9905" style="stop-color:#81A231"/>
	</linearGradient>
	<path style="fill:url(#SVGID_1_);" d="M43,44c0,2.2-1.8,4-4,4H9c-2.2,0-4-1.8-4-4V4c0-2.2,1.8-4,4-4h23.1c2.2,3.1,8,9,10.9,11V44z"
		/>
	<g>
		<linearGradient id="SVGID_2_" gradientUnits="userSpaceOnUse" x1="38.1406" y1="5.125" x2="38.1406" y2="17.6306">
			<stop  offset="0" style="stop-color:#919A38"/>
			<stop  offset="0.9962" style="stop-color:#D6D21C;stop-opacity:0"/>
		</linearGradient>
		<path style="opacity:0.8;fill:url(#SVGID_2_);" d="M43,11c-2.3-1.6-6.3-5.5-9-8.6l-0.8,7.5l9.7,9.7V11z"/>
	</g>
	<linearGradient id="SVGID_3_" gradientUnits="userSpaceOnUse" x1="37.5" y1="0.1146" x2="37.5" y2="10.8302">
		<stop  offset="2.405955e-002" style="stop-color:#346E2E"/>
		<stop  offset="0.9905" style="stop-color:#81A231"/>
	</linearGradient>
	<path style="fill:url(#SVGID_3_);" d="M43,11h-7c-2.2,0-4-1.8-4-4l0.1-7L43,11z"/>
	<g>
		<linearGradient id="SVGID_4_" gradientUnits="userSpaceOnUse" x1="26" y1="20.2917" x2="26" y2="47.5677">
			<stop  offset="0" style="stop-color:#919A38"/>
			<stop  offset="0.9962" style="stop-color:#D6D21C;stop-opacity:0"/>
		</linearGradient>
		<path style="opacity:0.8;fill:url(#SVGID_4_);" d="M37.8,20l-1.9,2.9L33.1,20l1.4,4.7l0.1,0.2l-0.3,0.5l-4.5-4.5l-3.5,0.3
			l-0.1-0.1l-0.1,0.1l-0.2,0l0.1,0.2l-1.2,2.9l3.3,3.3l-1.2,0.4L18.8,20l-1.3,1.7L15.8,20l-1.1,1.4l-0.5-0.5l-0.6,1.7L11,20l1,4.5
			l0.3,0.3l-0.5,0.9L9,28.9L28.1,48H39c2.2,0,4-1.8,4-4V25.2L37.8,20z"/>
	</g>
	<g>
		<g>
			<linearGradient id="SVGID_5_" gradientUnits="userSpaceOnUse" x1="9" y1="24.5" x2="38" y2="24.5">
				<stop  offset="4.888515e-003" style="stop-color:#FFFFFF"/>
				<stop  offset="1" style="stop-color:#E4EDB5"/>
			</linearGradient>
			<path style="fill:url(#SVGID_5_);" d="M15.8,20H14l-1.5,2.9L11,20H9.2l2.4,4.4L9,29h1.9l1.6-3.1l1.6,3.1H16l-2.6-4.6L15.8,20z
				 M18.8,20H17v9h6v-1.6h-4.2V20z M27.8,23.8l-1-0.1c-0.3,0-0.6-0.2-0.8-0.3c-0.2-0.2-0.2-0.4-0.2-0.6c0-0.6,0.4-1.1,1.3-1.1
				c0.5,0,1.2,0.1,1.7,0.6l1-1.1c-0.7-0.7-1.5-1-2.6-1c-1.8,0-2.8,1.1-2.8,2.7c0,0.7,0.2,1.3,0.6,1.7c0.4,0.4,0.9,0.6,1.6,0.7l1,0.1
				c0.4,0.1,0.6,0.1,0.7,0.3c0.2,0.2,0.3,0.4,0.3,0.7c0,0.7-0.5,1.1-1.4,1.1c-0.8,0-1.5-0.2-2-0.7l-1,1.1c0.8,0.9,1.7,1.2,3,1.2
				c1.7,0,3-1,3-2.7c0-0.8-0.2-1.4-0.6-1.9C29,24.1,28.6,23.9,27.8,23.8z M35.4,24.4l2.4-4.4H36l-1.5,2.9L33,20h-1.9l2.4,4.4L31,29
				h1.9l1.6-3.1l1.6,3.1H38L35.4,24.4z"/>
		</g>
	</g>
</g>
<g id="images">
</g>
<g id="video">
</g>
<g id="audio">
</g>
</svg>
