<?xml version="1.0" encoding="iso-8859-1"?>
<!-- Generator: Adobe Illustrator 17.0.0, SVG Export Plug-In . SVG Version: 6.00 Build 0)  -->
<!DOCTYPE svg PUBLIC "-//W3C//DTD SVG 1.1//EN" "http://www.w3.org/Graphics/SVG/1.1/DTD/svg11.dtd">
<svg version="1.1" xmlns="http://www.w3.org/2000/svg" xmlns:xlink="http://www.w3.org/1999/xlink" x="0px" y="0px" width="48px"
	 height="48px" viewBox="0 0 48 48" style="enable-background:new 0 0 48 48;" xml:space="preserve">
<g id="archive">
</g>
<g id="programming">
	<g>
		<linearGradient id="SVGID_1_" gradientUnits="userSpaceOnUse" x1="24" y1="0.5" x2="24" y2="47.259">
			<stop  offset="5.346566e-003" style="stop-color:#D34D27"/>
			<stop  offset="1" style="stop-color:#D88725"/>
		</linearGradient>
		<path style="fill:url(#SVGID_1_);" d="M43,44c0,2.2-1.8,4-4,4H9c-2.2,0-4-1.8-4-4L5,4c0-2.2,1.8-4,4-4h23.1c2.2,3.1,8,9,10.9,11
			V44z"/>
		<g>
			<linearGradient id="SVGID_2_" gradientUnits="userSpaceOnUse" x1="38.1406" y1="2.5543" x2="38.1406" y2="19.3591">
				<stop  offset="5.346566e-003" style="stop-color:#D34D27"/>
				<stop  offset="1" style="stop-color:#D88725;stop-opacity:0"/>
			</linearGradient>
			<path style="opacity:0.9;fill:url(#SVGID_2_);" d="M43,11c-2.3-1.6-6.3-5.5-9-8.6l-0.8,7.5l9.7,9.7V11z"/>
		</g>
		<linearGradient id="SVGID_3_" gradientUnits="userSpaceOnUse" x1="37.5" y1="0.1146" x2="37.5" y2="10.8302">
			<stop  offset="5.346566e-003" style="stop-color:#D34D27"/>
			<stop  offset="1" style="stop-color:#D88725"/>
		</linearGradient>
		<path style="fill:url(#SVGID_3_);" d="M43,11h-7c-2.2,0-4-1.8-4-4V0L43,11z"/>
		<g>
			<linearGradient id="SVGID_4_" gradientUnits="userSpaceOnUse" x1="26.5" y1="19.3021" x2="26.5" y2="47.5523">
				<stop  offset="5.346566e-003" style="stop-color:#D34D27"/>
				<stop  offset="1" style="stop-color:#D88725;stop-opacity:0"/>
			</linearGradient>
			<path style="opacity:0.9;fill:url(#SVGID_4_);" d="M34,19l-1.7,2.3L30,19l-3.3,4.5L22.2,19l-1.5,2l-2-2l-2.6,3.5L12.6,19l1.6,6.1
				l-0.4,0.5L10,30l18,18h11c2.2,0,4-1.8,4-4V28L34,19z"/>
		</g>
		<g>
			<g>
				<linearGradient id="SVGID_5_" gradientUnits="userSpaceOnUse" x1="24.5" y1="18.625" x2="24.5" y2="31.4681">
					<stop  offset="4.888515e-003" style="stop-color:#FFFFFF"/>
					<stop  offset="1" style="stop-color:#F0CB84"/>
				</linearGradient>
				<path style="fill:url(#SVGID_5_);" d="M18.8,19h-2.4l-1.9,3.6L12.6,19h-2.4l3.1,5.4L10,30h2.4l2.1-3.8l2.1,3.8H19l-3.4-5.6
					L18.8,19z M25,24.9L22.1,19H20v11h2.2v-6.4l2.1,4.2h1.5l2.1-4.2V30H30V19h-2.1L25,24.9z M34,28v-9l-2,0v11h7v-2H34z"/>
			</g>
		</g>
	</g>
</g>
<g id="documents">
</g>
<g id="images">
</g>
<g id="video">
</g>
<g id="audio">
</g>
</svg>
