<?xml version="1.0" encoding="iso-8859-1"?>
<!-- Generator: Adobe Illustrator 17.0.0, SVG Export Plug-In . SVG Version: 6.00 Build 0)  -->
<!DOCTYPE svg PUBLIC "-//W3C//DTD SVG 1.1//EN" "http://www.w3.org/Graphics/SVG/1.1/DTD/svg11.dtd">
<svg version="1.1" xmlns="http://www.w3.org/2000/svg" xmlns:xlink="http://www.w3.org/1999/xlink" x="0px" y="0px" width="48px"
	 height="48px" viewBox="0 0 48 48" style="enable-background:new 0 0 48 48;" xml:space="preserve">
<g id="archive">
</g>
<g id="programming">
	<g>
		<linearGradient id="SVGID_1_" gradientUnits="userSpaceOnUse" x1="24" y1="0.5" x2="24" y2="47.259">
			<stop  offset="1.336642e-003" style="stop-color:#8F4F26"/>
			<stop  offset="1" style="stop-color:#CE8833"/>
		</linearGradient>
		<path style="fill:url(#SVGID_1_);" d="M43,44c0,2.2-1.8,4-4,4H9c-2.2,0-4-1.8-4-4V4c0-2.2,1.8-4,4-4h23.1c2.2,3.1,8,9,10.9,11
			L43,44z"/>
		<g>
			<linearGradient id="SVGID_2_" gradientUnits="userSpaceOnUse" x1="38.1406" y1="2.5543" x2="38.1406" y2="19.3591">
				<stop  offset="1.336642e-003" style="stop-color:#8F4F26"/>
				<stop  offset="1" style="stop-color:#CE8833"/>
			</linearGradient>
			<path style="opacity:0.4;fill:url(#SVGID_2_);" d="M43,11c-2.3-1.6-6.3-5.5-9-8.6l-0.8,7.5l9.7,9.7L43,11z"/>
		</g>
		<linearGradient id="SVGID_3_" gradientUnits="userSpaceOnUse" x1="37.5" y1="0.1146" x2="37.5" y2="10.8302">
			<stop  offset="1.336642e-003" style="stop-color:#8F4F26"/>
			<stop  offset="1" style="stop-color:#CE8833"/>
		</linearGradient>
		<path style="fill:url(#SVGID_3_);" d="M43,11h-7c-2.2,0-4-1.8-4-4V0L43,11z"/>
		<g>
			<linearGradient id="SVGID_4_" gradientUnits="userSpaceOnUse" x1="27.5339" y1="19.3021" x2="27.5339" y2="47.5523">
				<stop  offset="1.336642e-003" style="stop-color:#8F4F26"/>
				<stop  offset="1" style="stop-color:#CE8833"/>
			</linearGradient>
			<path style="opacity:0.5;fill:url(#SVGID_4_);" d="M31.3,21.3L29,19l-2.4,3.2l-0.8,1.4L21.1,19l-1.3,1.8L18,19l-2.4,3.2l-0.1,0.1
				L12.1,19l-0.1,3.5l2.1,2.1l-0.9,1.7l0.8,0.8L13,30l18,18h8c2.2,0,4-1.8,4-4V29L33,19L31.3,21.3z"/>
		</g>
		<g>
			<g>
				<linearGradient id="SVGID_5_" gradientUnits="userSpaceOnUse" x1="24" y1="19.5" x2="24" y2="31.8182">
					<stop  offset="4.888515e-003" style="stop-color:#FFFFFF"/>
					<stop  offset="1" style="stop-color:#F0D8A8"/>
				</linearGradient>
				<path style="fill:url(#SVGID_5_);" d="M14,23.4L12.1,19H10l3,6.5V30h2v-4.5l3-6.5h-2.1L14,23.4z M24,24.9L21.1,19H19v11h2.2
					v-6.4l2.1,4.2h1.5l2.1-4.2V30H29V19h-2.1L24,24.9z M33,28v-9h-2v11h7v-2H33z"/>
			</g>
		</g>
	</g>
</g>
<g id="documents">
</g>
<g id="images">
</g>
<g id="video">
</g>
<g id="audio">
</g>
</svg>
