<?xml version="1.0" encoding="iso-8859-1"?>
<!-- Generator: Adobe Illustrator 17.0.0, SVG Export Plug-In . SVG Version: 6.00 Build 0)  -->
<!DOCTYPE svg PUBLIC "-//W3C//DTD SVG 1.1//EN" "http://www.w3.org/Graphics/SVG/1.1/DTD/svg11.dtd">
<svg version="1.1" xmlns="http://www.w3.org/2000/svg" xmlns:xlink="http://www.w3.org/1999/xlink" x="0px" y="0px" width="48px"
	 height="48px" viewBox="0 0 48 48" style="enable-background:new 0 0 48 48;" xml:space="preserve">
<g id="archive">
	<g>
		<linearGradient id="SVGID_1_" gradientUnits="userSpaceOnUse" x1="24" y1="46.5" x2="24" y2="-0.2715">
			<stop  offset="0" style="stop-color:#89B334"/>
			<stop  offset="0.996" style="stop-color:#55843B"/>
		</linearGradient>
		<path style="fill:url(#SVGID_1_);" d="M43,44c0,2.2-1.8,4-4,4H9c-2.2,0-4-1.8-4-4V4c0-2.2,1.8-4,4-4h23.1c2.2,3.1,8,9,10.9,11V44z
			"/>
		<g>
			<linearGradient id="SVGID_2_" gradientUnits="userSpaceOnUse" x1="38.1406" y1="18.7083" x2="38.1406" y2="3.8286">
				<stop  offset="0" style="stop-color:#89B334;stop-opacity:0"/>
				<stop  offset="0.996" style="stop-color:#55843B"/>
			</linearGradient>
			<path style="opacity:0.6;fill:url(#SVGID_2_);" d="M43,11c-2.3-1.6-6.3-5.5-9-8.6l-0.8,7.5l9.7,9.7V11z"/>
		</g>
		<linearGradient id="SVGID_3_" gradientUnits="userSpaceOnUse" x1="37.5" y1="10.5" x2="37.5" y2="0.654">
			<stop  offset="0" style="stop-color:#89B334"/>
			<stop  offset="0.996" style="stop-color:#55843B"/>
		</linearGradient>
		<path style="fill:url(#SVGID_3_);" d="M43,11h-7c-2.2,0-4-1.8-4-4l0.1-7L43,11z"/>
		<g>
			<linearGradient id="SVGID_4_" gradientUnits="userSpaceOnUse" x1="28.5099" y1="47.0938" x2="28.5099" y2="18.836">
				<stop  offset="0" style="stop-color:#89B334;stop-opacity:0"/>
				<stop  offset="0.996" style="stop-color:#55843B"/>
			</linearGradient>
			<path style="opacity:0.6;fill:url(#SVGID_4_);" d="M43,29l-9-9l-4.3,0l-1.4,2.5L25,19l-1,3.1L21,19l-1.7,1.8l0.3-1l-5.4,1.2
				l3.4,3.4L14,30l18,18h7c2.2,0,4-1.8,4-4V29z"/>
		</g>
		<g>
			<g>
				<linearGradient id="SVGID_5_" gradientUnits="userSpaceOnUse" x1="24.5" y1="20" x2="24.5" y2="31.341">
					<stop  offset="4.888515e-003" style="stop-color:#FFFFFF"/>
					<stop  offset="1" style="stop-color:#E9DE90"/>
				</linearGradient>
				<path style="fill:url(#SVGID_5_);" d="M14.2,20.9h4.4L14,28.3V30h7v-1.9h-4.6l4.6-7.4V19h-6.8V20.9z M23,30h2V19h-2V30z
					 M31.3,19H27v11h2.2v-4.1h2.1c2.3,0,3.7-1.6,3.7-3.4C35,20.6,33.6,19,31.3,19z M31.2,23.9h-2v-3h2c1,0,1.6,0.6,1.6,1.5
					C32.8,23.3,32.2,23.9,31.2,23.9z"/>
			</g>
		</g>
	</g>
</g>
<g id="programming">
</g>
<g id="documents">
</g>
<g id="images">
</g>
<g id="video">
</g>
<g id="audio">
</g>
</svg>
