<?xml version="1.0" encoding="iso-8859-1"?>
<!-- Generator: Adobe Illustrator 17.0.0, SVG Export Plug-In . SVG Version: 6.00 Build 0)  -->
<!DOCTYPE svg PUBLIC "-//W3C//DTD SVG 1.1//EN" "http://www.w3.org/Graphics/SVG/1.1/DTD/svg11.dtd">
<svg version="1.1" xmlns="http://www.w3.org/2000/svg" xmlns:xlink="http://www.w3.org/1999/xlink" x="0px" y="0px" width="48px"
	 height="48px" viewBox="0 0 48 48" style="enable-background:new 0 0 48 48;" xml:space="preserve">
<g id="archive">
</g>
<g id="programming">
	<g>
		<linearGradient id="SVGID_1_" gradientUnits="userSpaceOnUse" x1="24" y1="0.5" x2="24" y2="47.259">
			<stop  offset="0" style="stop-color:#03262A"/>
			<stop  offset="1" style="stop-color:#00465B"/>
		</linearGradient>
		<path style="fill:url(#SVGID_1_);" d="M43,44c0,2.2-1.8,4-4,4H9c-2.2,0-4-1.8-4-4V4c0-2.2,1.8-4,4-4h23.1c2.2,3.1,8,9,10.9,11V44z
			"/>
		<g>
			<linearGradient id="SVGID_2_" gradientUnits="userSpaceOnUse" x1="38.1406" y1="2.5715" x2="38.1406" y2="19.559">
				<stop  offset="0" style="stop-color:#03262A"/>
				<stop  offset="0.9959" style="stop-color:#A84D54;stop-opacity:0"/>
			</linearGradient>
			<path style="opacity:0.6;fill:url(#SVGID_2_);" d="M43,11c-2.3-1.6-6.3-5.5-9-8.6l-0.8,7.5l9.7,9.9V11z"/>
		</g>
		<linearGradient id="SVGID_3_" gradientUnits="userSpaceOnUse" x1="37.5" y1="0.1146" x2="37.5" y2="10.8302">
			<stop  offset="0" style="stop-color:#03262A"/>
			<stop  offset="1" style="stop-color:#00465B"/>
		</linearGradient>
		<path style="fill:url(#SVGID_3_);" d="M43,11h-7c-2.2,0-4-1.8-4-4l0.1-7L43,11z"/>
		<g>
			<linearGradient id="SVGID_4_" gradientUnits="userSpaceOnUse" x1="28.5" y1="19.4876" x2="28.5" y2="47.5552">
				<stop  offset="0" style="stop-color:#03262A"/>
				<stop  offset="0.9959" style="stop-color:#A84D54;stop-opacity:0"/>
			</linearGradient>
			<path style="opacity:0.6;fill:url(#SVGID_4_);" d="M43,28.7l-8.3-8.3l-6.1,0.2l0.3,3.6l-4.2-4.2l-4.9,0.3l0.1,2.7L16,19.2
				L14.5,20L14,30.2L32.1,48H39c2.2,0,4-1.8,4-4V28.7z"/>
		</g>
		<g>
			<g>
				<linearGradient id="SVGID_5_" gradientUnits="userSpaceOnUse" x1="24.5" y1="18.5" x2="24.5" y2="31.4188">
					<stop  offset="4.888515e-003" style="stop-color:#FFFFFF"/>
					<stop  offset="1" style="stop-color:#9BBAC6"/>
				</linearGradient>
				<path style="fill:url(#SVGID_5_);" d="M14,30.2h2v-11h-2V30.2z M22,21.1c1,0,1.6,0.6,1.8,1.5H26c-0.4-2.2-1.9-3.4-4-3.4
					c-1.2,0-2.1,0.4-2.9,1.2c-0.5,0.5-0.8,1-0.9,1.6c-0.1,0.6-0.2,1.5-0.2,2.7c0,1.2,0.1,2.1,0.2,2.7c0.1,0.6,0.4,1.2,0.9,1.6
					c0.8,0.8,1.8,1.2,2.9,1.2c2.1,0,3.6-1.2,4-3.4h-2.2c-0.2,0.9-0.8,1.5-1.8,1.5c-0.6,0-1-0.2-1.4-0.6c-0.4-0.5-0.5-1-0.5-3.1
					c0-2.1,0.1-2.6,0.5-3.1C21,21.3,21.4,21.1,22,21.1z M34.2,24.6c-0.5-0.4-1.1-0.7-2.1-0.8l-1.3-0.2c-0.4-0.1-0.8-0.2-1-0.4
					c-0.2-0.2-0.3-0.5-0.3-0.8c0-0.7,0.5-1.4,1.7-1.4c0.7,0,1.5,0.1,2.2,0.7l1.3-1.3c-0.9-0.9-2-1.3-3.5-1.3c-2.4,0-3.8,1.4-3.8,3.3
					c0,0.9,0.3,1.6,0.8,2.1c0.5,0.5,1.2,0.8,2.1,0.9l1.3,0.2c0.5,0.1,0.7,0.2,1,0.4c0.2,0.2,0.3,0.5,0.3,0.9c0,0.9-0.7,1.3-1.9,1.3
					c-1,0-1.9-0.2-2.6-0.9L27,28.8c1.1,1.1,2.3,1.4,4,1.4c2.3,0,4-1.2,4-3.3C35,25.9,34.7,25.2,34.2,24.6z"/>
			</g>
		</g>
	</g>
</g>
<g id="documents">
</g>
<g id="images">
</g>
<g id="video">
</g>
<g id="audio">
</g>
</svg>
