<?xml version="1.0" encoding="iso-8859-1"?>
<!-- Generator: Adobe Illustrator 17.0.0, SVG Export Plug-In . SVG Version: 6.00 Build 0)  -->
<!DOCTYPE svg PUBLIC "-//W3C//DTD SVG 1.1//EN" "http://www.w3.org/Graphics/SVG/1.1/DTD/svg11.dtd">
<svg version="1.1" xmlns="http://www.w3.org/2000/svg" xmlns:xlink="http://www.w3.org/1999/xlink" x="0px" y="0px" width="48px"
	 height="48px" viewBox="0 0 48 48" style="enable-background:new 0 0 48 48;" xml:space="preserve">
<g id="archive">
</g>
<g id="programming">
	<g>
		<linearGradient id="SVGID_1_" gradientUnits="userSpaceOnUse" x1="24" y1="0.5" x2="24" y2="47.259">
			<stop  offset="0" style="stop-color:#3A3468"/>
			<stop  offset="1" style="stop-color:#3B6191"/>
		</linearGradient>
		<path style="fill:url(#SVGID_1_);" d="M43,44c0,2.2-1.8,4-4,4H9c-2.2,0-4-1.8-4-4V4c0-2.2,1.8-4,4-4h23.1c2.2,3.1,8,9,10.9,11V44z
			"/>
		<g>
			<linearGradient id="SVGID_2_" gradientUnits="userSpaceOnUse" x1="38.1406" y1="2.5696" x2="38.1406" y2="19.3744">
				<stop  offset="0" style="stop-color:#3A3468"/>
				<stop  offset="1" style="stop-color:#36C0CC;stop-opacity:0"/>
			</linearGradient>
			<path style="opacity:0.7;fill:url(#SVGID_2_);" d="M43,11c-2.3-1.6-6.3-5.5-9-8.6l-0.8,7.5l9.7,9.7V11z"/>
		</g>
		<linearGradient id="SVGID_3_" gradientUnits="userSpaceOnUse" x1="37.5" y1="0.1146" x2="37.5" y2="10.8302">
			<stop  offset="0" style="stop-color:#3A3468"/>
			<stop  offset="1" style="stop-color:#3B6191"/>
		</linearGradient>
		<path style="fill:url(#SVGID_3_);" d="M43,11h-7c-2.2,0-4-1.8-4-4l0.1-7L43,11z"/>
		<g>
			<linearGradient id="SVGID_4_" gradientUnits="userSpaceOnUse" x1="27.0011" y1="19.3011" x2="27.0011" y2="47.5523">
				<stop  offset="0" style="stop-color:#3A3468"/>
				<stop  offset="1" style="stop-color:#36C0CC;stop-opacity:0"/>
			</linearGradient>
			<path style="opacity:0.7;fill:url(#SVGID_4_);" d="M36.5,20.6l-5.6-0.7l-0.8,1.2L28,19l-1.3,4.5L22.1,19l-1.3,3.9L17.9,20l-6-0.3
				L11,30l18.3,18H39c2.2,0,4-1.8,4-4V27.1L36.5,20.6z"/>
		</g>
		<g>
			<g>
				<linearGradient id="SVGID_5_" gradientUnits="userSpaceOnUse" x1="24" y1="18.75" x2="24" y2="30.8359">
					<stop  offset="4.888515e-003" style="stop-color:#FFFFFF"/>
					<stop  offset="1" style="stop-color:#91CCF0"/>
				</linearGradient>
				<path style="fill:url(#SVGID_5_);" d="M15.3,19H11v11h2.2v-4.1h2.1c2.3,0,3.7-1.6,3.7-3.4S17.6,19,15.3,19z M15.2,23.9h-2v-3h2
					c1,0,1.6,0.6,1.6,1.5C16.8,23.3,16.2,23.9,15.2,23.9z M25.9,24h-3.7v-5H20v11h2.1v-4h3.7v4H28V19h-2.1V24z M33.3,19H29v11h2.2
					v-4.1h2.1c2.3,0,3.7-1.6,3.7-3.4S35.6,19,33.3,19z M33.2,23.9h-2v-3h2c1,0,1.6,0.6,1.6,1.5C34.8,23.3,34.2,23.9,33.2,23.9z"/>
			</g>
		</g>
	</g>
</g>
<g id="documents">
</g>
<g id="images">
</g>
<g id="video">
</g>
<g id="audio">
</g>
</svg>
