<?xml version="1.0" encoding="iso-8859-1"?>
<!-- Generator: Adobe Illustrator 17.0.0, SVG Export Plug-In . SVG Version: 6.00 Build 0)  -->
<!DOCTYPE svg PUBLIC "-//W3C//DTD SVG 1.1//EN" "http://www.w3.org/Graphics/SVG/1.1/DTD/svg11.dtd">
<svg version="1.1" xmlns="http://www.w3.org/2000/svg" xmlns:xlink="http://www.w3.org/1999/xlink" x="0px" y="0px" width="48px"
	 height="48px" viewBox="0 0 48 48" style="enable-background:new 0 0 48 48;" xml:space="preserve">
<g id="archive">
</g>
<g id="programming">
</g>
<g id="documents">
</g>
<g id="images">
	<linearGradient id="SVGID_1_" gradientUnits="userSpaceOnUse" x1="24" y1="0.5" x2="24" y2="47.259">
		<stop  offset="1.603970e-002" style="stop-color:#07506A"/>
		<stop  offset="0.9934" style="stop-color:#5394CF"/>
	</linearGradient>
	<path style="fill:url(#SVGID_1_);" d="M43,44c0,2.2-1.8,4-4,4H9c-2.2,0-4-1.8-4-4V4c0-2.2,1.8-4,4-4h23.1c2.2,3.1,8,9,10.9,11V44z"
		/>
	<linearGradient id="SVGID_2_" gradientUnits="userSpaceOnUse" x1="38.1406" y1="5.125" x2="38.1406" y2="17.6306">
		<stop  offset="1.247532e-002" style="stop-color:#5A183B"/>
		<stop  offset="1" style="stop-color:#A96284;stop-opacity:0"/>
	</linearGradient>
	<path style="opacity:0.4;fill:url(#SVGID_2_);" d="M43,11c-2.3-1.6-6.3-5.5-9-8.6l-0.8,7.5l9.7,9.7V11z"/>
	<linearGradient id="SVGID_3_" gradientUnits="userSpaceOnUse" x1="37.5" y1="0.1146" x2="37.5" y2="10.8302">
		<stop  offset="1.603970e-002" style="stop-color:#07506A"/>
		<stop  offset="0.9934" style="stop-color:#5394CF"/>
	</linearGradient>
	<path style="fill:url(#SVGID_3_);" d="M43,11h-7c-2.2,0-4-1.8-4-4l0.1-7L43,11z"/>
	<path style="fill:none;" d="M19,28v-2h-8v2h3v9h2v-9H19z"/>
	<linearGradient id="SVGID_4_" gradientUnits="userSpaceOnUse" x1="27" y1="19.0134" x2="27" y2="47.5478">
		<stop  offset="1.247532e-002" style="stop-color:#5A183B"/>
		<stop  offset="1" style="stop-color:#A96284;stop-opacity:0"/>
	</linearGradient>
	<path style="opacity:0.4;fill:url(#SVGID_4_);" d="M30.9,19.2l0.3,3.5l-3.4-3.4l-6,0l0.4,4l-4.4-4.4l-6,0l0.2,2l-0.2,0L11,29l19,19
		h9c2.2,0,4-1.8,4-4V25.3l-6.1-6.1L30.9,19.2z"/>
	<g>
		<g>
			<linearGradient id="SVGID_5_" gradientUnits="userSpaceOnUse" x1="24.4407" y1="16.9167" x2="24.4407" y2="33.8499">
				<stop  offset="4.888515e-003" style="stop-color:#FFFFFF"/>
				<stop  offset="1" style="stop-color:#99D9E5"/>
			</linearGradient>
			<path style="fill:url(#SVGID_5_);" d="M15.3,18H11v11h2.2v-4.1h2.1c2.3,0,3.7-1.6,3.7-3.4C19,19.6,17.6,18,15.3,18z M15.2,22.9
				h-2v-3h2c1,0,1.6,0.6,1.6,1.5C16.8,22.3,16.2,22.9,15.2,22.9z M25.2,22.6l-1.3-0.2c-0.4-0.1-0.8-0.2-1-0.4
				c-0.2-0.2-0.3-0.5-0.3-0.8c0-0.7,0.5-1.4,1.7-1.4c0.7,0,1.5,0.1,2.2,0.7l1.3-1.3c-0.9-0.9-2-1.3-3.5-1.3c-2.4,0-3.8,1.4-3.8,3.3
				c0,0.9,0.3,1.6,0.8,2.1c0.5,0.5,1.2,0.8,2.1,0.9l1.3,0.2c0.5,0.1,0.7,0.2,1,0.4c0.2,0.2,0.3,0.5,0.3,0.9c0,0.9-0.7,1.3-1.9,1.3
				c-1,0-1.9-0.2-2.6-0.9l-1.4,1.4c1.1,1.1,2.3,1.4,4,1.4c2.3,0,4-1.2,4-3.3c0-1-0.3-1.7-0.8-2.3C26.8,23,26.2,22.7,25.2,22.6z
				 M36.8,19.1C36.1,18.3,35,18,33.9,18H30v11h3.9c1.1,0,2.1-0.3,2.9-1.1c1.2-1.2,1.1-2.8,1.1-4.5C37.9,21.8,38,20.3,36.8,19.1z
				 M35.3,26.4c-0.4,0.4-0.9,0.7-1.6,0.7h-1.6v-7.2h1.6c0.7,0,1.2,0.2,1.6,0.7c0.4,0.5,0.5,1.2,0.5,2.9
				C35.8,25.1,35.7,25.9,35.3,26.4z"/>
		</g>
	</g>
</g>
<g id="video">
</g>
<g id="audio">
</g>
</svg>
