<?xml version="1.0" encoding="iso-8859-1"?>
<!-- Generator: Adobe Illustrator 17.0.0, SVG Export Plug-In . SVG Version: 6.00 Build 0)  -->
<!DOCTYPE svg PUBLIC "-//W3C//DTD SVG 1.1//EN" "http://www.w3.org/Graphics/SVG/1.1/DTD/svg11.dtd">
<svg version="1.1" xmlns="http://www.w3.org/2000/svg" xmlns:xlink="http://www.w3.org/1999/xlink" x="0px" y="0px" width="48px"
	 height="48px" viewBox="0 0 48 48" style="enable-background:new 0 0 48 48;" xml:space="preserve">
<g id="archive">
</g>
<g id="programming">
</g>
<g id="documents">
	<linearGradient id="SVGID_1_" gradientUnits="userSpaceOnUse" x1="24" y1="0.5" x2="24" y2="47.259">
		<stop  offset="1.470306e-002" style="stop-color:#2F344A"/>
		<stop  offset="0.9958" style="stop-color:#7F9475"/>
	</linearGradient>
	<path style="fill:url(#SVGID_1_);" d="M43,44c0,2.2-1.8,4-4,4H9c-2.2,0-4-1.8-4-4V4c0-2.2,1.8-4,4-4h23.1c2.2,3.1,8,9,10.9,11V44z"
		/>
	<linearGradient id="SVGID_2_" gradientUnits="userSpaceOnUse" x1="38.1406" y1="5.125" x2="38.1406" y2="17.6306">
		<stop  offset="1.247532e-002" style="stop-color:#5A183B"/>
		<stop  offset="1" style="stop-color:#A96284;stop-opacity:0"/>
	</linearGradient>
	<path style="opacity:0.4;fill:url(#SVGID_2_);" d="M43,11c-2.3-1.6-6.3-5.5-9-8.6l-0.8,7.5l9.7,9.7V11z"/>
	<linearGradient id="SVGID_3_" gradientUnits="userSpaceOnUse" x1="37.5" y1="0.1146" x2="37.5" y2="10.8302">
		<stop  offset="1.470306e-002" style="stop-color:#2F344A"/>
		<stop  offset="0.9958" style="stop-color:#7F9475"/>
	</linearGradient>
	<path style="fill:url(#SVGID_3_);" d="M43,11h-7c-2.2,0-4-1.8-4-4l0.1-7L43,11z"/>
	<linearGradient id="SVGID_4_" gradientUnits="userSpaceOnUse" x1="27.0252" y1="18.3125" x2="27.0252" y2="47.5369">
		<stop  offset="1.247532e-002" style="stop-color:#5A183B"/>
		<stop  offset="1" style="stop-color:#A96284;stop-opacity:0"/>
	</linearGradient>
	<path style="opacity:0.4;fill:url(#SVGID_4_);" d="M29.9,20L28,18.1l-4.7,0.8l-0.1,0.8l-1.1-1.1L20,19.9l3,3l-0.1,1.3l-5.4-5.4
		l-4.4-0.3l-0.2,2.4l-0.9-0.1l-0.8,8.3L30,48h9c2.2,0,4-1.8,4-4V25l-7-7L29.9,20z"/>
	<g>
		<g>
			
				<linearGradient id="SVGID_5_" gradientUnits="userSpaceOnUse" x1="23.5" y1="6.7" x2="23.5" y2="21.1522" gradientTransform="matrix(1 0 0 1 0 10)">
				<stop  offset="4.888515e-003" style="stop-color:#FFFFFF"/>
				<stop  offset="1" style="stop-color:#B8DFCA"/>
			</linearGradient>
			<path style="fill:url(#SVGID_5_);" d="M18.6,21.4c0-1.8-1.3-3.4-3.4-3.4H11v11h2.1v-4.4h1.5l2.1,4.4H19l-2.4-4.7
				C17.7,23.9,18.6,22.9,18.6,21.4z M15,22.8h-1.9v-2.9H15c0.9,0,1.5,0.6,1.5,1.5C16.5,22.2,15.9,22.8,15,22.8z M20,20h3v9h2v-9h3
				v-2h-8V20z M36,19.9V18h-7v11h2.1v-4.1h4.2V23h-4.2v-3.1H36z"/>
		</g>
	</g>
</g>
<g id="images">
</g>
<g id="video">
</g>
<g id="audio">
</g>
</svg>
