<?xml version="1.0" encoding="iso-8859-1"?>
<!-- Generator: Adobe Illustrator 17.0.0, SVG Export Plug-In . SVG Version: 6.00 Build 0)  -->
<!DOCTYPE svg PUBLIC "-//W3C//DTD SVG 1.1//EN" "http://www.w3.org/Graphics/SVG/1.1/DTD/svg11.dtd">
<svg version="1.1" xmlns="http://www.w3.org/2000/svg" xmlns:xlink="http://www.w3.org/1999/xlink" x="0px" y="0px" width="48px"
	 height="48px" viewBox="0 0 48 48" style="enable-background:new 0 0 48 48;" xml:space="preserve">
<g id="archive">
</g>
<g id="programming">
</g>
<g id="documents">
</g>
<g id="images">
</g>
<g id="video">
</g>
<g id="audio">
	<linearGradient id="SVGID_1_" gradientUnits="userSpaceOnUse" x1="24" y1="0.5" x2="24" y2="47.259">
		<stop  offset="0" style="stop-color:#307984"/>
		<stop  offset="0.9945" style="stop-color:#B1D78F"/>
	</linearGradient>
	<path style="fill:url(#SVGID_1_);" d="M43,44c0,2.2-1.8,4-4,4H9c-2.2,0-4-1.8-4-4V4c0-2.2,1.8-4,4-4h23.1c2.2,3.1,8,9,10.9,11V44z"
		/>
	<linearGradient id="SVGID_2_" gradientUnits="userSpaceOnUse" x1="38.1406" y1="5.125" x2="38.1406" y2="17.6306">
		<stop  offset="1.247532e-002" style="stop-color:#574144"/>
		<stop  offset="0.9962" style="stop-color:#64A392;stop-opacity:0"/>
	</linearGradient>
	<path style="opacity:0.6;fill:url(#SVGID_2_);" d="M43,11c-2.3-1.6-6.3-5.5-9-8.6l-0.8,7.5l9.7,9.7V11z"/>
	<linearGradient id="SVGID_3_" gradientUnits="userSpaceOnUse" x1="37.5" y1="0.1146" x2="37.5" y2="10.8302">
		<stop  offset="0" style="stop-color:#307984"/>
		<stop  offset="0.9945" style="stop-color:#B1D78F"/>
	</linearGradient>
	<path style="fill:url(#SVGID_3_);" d="M43,11h-7c-2.2,0-4-1.8-4-4l0.1-7L43,11z"/>
	<linearGradient id="SVGID_4_" gradientUnits="userSpaceOnUse" x1="26.5063" y1="18.3125" x2="26.5063" y2="47.5369">
		<stop  offset="1.247532e-002" style="stop-color:#574144"/>
		<stop  offset="0.9962" style="stop-color:#64A392;stop-opacity:0"/>
	</linearGradient>
	<path style="opacity:0.6;fill:url(#SVGID_4_);" d="M43,22l-4-4l-2.4,4.5l0,0L32.2,18l0.5,6.4L26.3,18l-1.5,3.8L20.9,18l-1.6,4.1
		l-4-4.1l-0.1,3l-2.2-0.2L10.2,18L10,21.1l0.8,5.3l0.5,0.5L11,29l19,19h9c2.2,0,4-1.8,4-4V22z"/>
	<g>
		<g>
			<linearGradient id="SVGID_5_" gradientUnits="userSpaceOnUse" x1="23.5" y1="20.5" x2="23.5" y2="31.2616">
				<stop  offset="4.888515e-003" style="stop-color:#FFFFFF"/>
				<stop  offset="0.9851" style="stop-color:#BEDDA1"/>
			</linearGradient>
			<path style="fill:url(#SVGID_5_);" d="M18.8,18l-1.6,6.9L15.3,18h-1.5l-1.9,6.9L10.2,18H8l2.8,11h1.7l1.9-6.7l1.9,6.7h1.7L21,18
				H18.8z M24.7,18L21,29h2.1l0.6-1.9h3.6l0.6,1.9H30l-3.7-11H24.7z M24.3,25.2l1.3-4l1.2,4H24.3z M36.7,18l-2.2,7.2L32.3,18H30
				l3.7,11h1.6L39,18H36.7z"/>
		</g>
	</g>
</g>
</svg>
